M48
; DRILL file KiCad 10.0.0 date 2026-04-21T21:22:49
; FORMAT={-:-/ absolute / metric / decimal}
; #@! TF.CreationDate,2026-04-21T21:22:49+02:00
; #@! TF.GenerationSoftware,Kicad,Pcbnew,10.0.0
; #@! TF.FileFunction,Plated,1,2,PTH
FMAT,2
METRIC
; #@! TA.AperFunction,Plated,PTH,ViaDrill
T1C0.300
; #@! TA.AperFunction,Plated,PTH,ComponentDrill
T2C0.600
; #@! TA.AperFunction,Plated,PTH,ComponentDrill
T3C0.700
; #@! TA.AperFunction,Plated,PTH,ComponentDrill
T4C0.800
; #@! TA.AperFunction,Plated,PTH,ComponentDrill
T5C0.889
; #@! TA.AperFunction,Plated,PTH,ComponentDrill
T6C0.900
; #@! TA.AperFunction,Plated,PTH,ComponentDrill
T7C3.000
; #@! TA.AperFunction,Plated,PTH,ComponentDrill
T8C4.000
%
G90
G05
T1
X45.0Y-69.75
X45.0Y-84.0
X45.0Y-98.0
X45.0Y-112.0
X45.0Y-126.0
X45.0Y-140.0
X45.0Y-154.0
X45.0Y-168.0
X45.0Y-182.0
X45.0Y-196.0
X45.0Y-210.0
X45.0Y-224.0
X45.0Y-238.0
X45.0Y-252.0
X45.0Y-266.0
X235.0Y-70.0
X235.0Y-84.0
X235.0Y-98.0
X235.0Y-112.0
X235.0Y-126.0
X235.0Y-140.0
X235.0Y-154.0
X235.0Y-168.0
X235.0Y-182.0
X235.0Y-196.0
X235.0Y-210.0
X235.0Y-224.0
X235.0Y-238.0
X235.0Y-252.0
X235.0Y-266.0
X242.0Y-59.0
T2
X31.5Y-167.0
X32.379Y-164.879
X32.379Y-169.121
X34.0Y-50.0
X34.0Y-305.0
X34.5Y-164.0
X34.5Y-170.0
X34.879Y-47.879
X34.879Y-52.121
X34.879Y-302.879
X34.879Y-307.121
X36.621Y-164.879
X36.621Y-169.121
X37.0Y-47.0
X37.0Y-53.0
X37.0Y-302.0
X37.0Y-308.0
X37.5Y-167.0
X39.121Y-47.879
X39.121Y-52.121
X39.121Y-302.879
X39.121Y-307.121
X40.0Y-50.0
X40.0Y-305.0
X237.0Y-50.0
X237.0Y-305.0
X237.879Y-47.879
X237.879Y-52.121
X237.879Y-302.879
X237.879Y-307.121
X239.71Y-166.775
X240.0Y-47.0
X240.0Y-53.0
X240.0Y-302.0
X240.0Y-308.0
X240.589Y-164.654
X240.589Y-168.896
X242.121Y-47.879
X242.121Y-52.121
X242.121Y-302.879
X242.121Y-307.121
X242.71Y-163.775
X242.71Y-169.775
X243.0Y-50.0
X243.0Y-305.0
X244.831Y-164.654
X244.831Y-168.896
X245.71Y-166.775
T3
X76.0Y-283.69
X76.0Y-291.31
T4
X38.0Y-60.003
X38.0Y-63.803
X38.0Y-74.003
X38.0Y-77.803
X38.0Y-88.003
X38.0Y-91.803
X38.0Y-102.003
X38.0Y-105.803
X38.0Y-116.003
X38.0Y-119.803
X38.0Y-130.003
X38.0Y-133.803
X38.0Y-144.003
X38.0Y-147.803
X38.0Y-155.503
X38.0Y-159.303
X38.0Y-174.503
X38.0Y-178.303
X38.0Y-186.003
X38.0Y-189.803
X38.0Y-200.003
X38.0Y-203.803
X38.0Y-216.0
X38.0Y-219.8
X38.0Y-228.003
X38.0Y-231.803
X38.0Y-242.003
X38.0Y-245.803
X38.0Y-256.003
X38.0Y-259.803
X38.0Y-270.003
X38.0Y-273.803
X76.2Y-297.5
X80.0Y-297.5
X81.07Y-283.69
X81.07Y-291.31
X83.61Y-283.69
X83.61Y-291.31
X86.15Y-283.69
X86.15Y-291.31
X88.69Y-283.69
X88.69Y-291.31
X91.23Y-283.69
X91.23Y-291.31
X93.77Y-283.69
X93.77Y-291.31
X96.31Y-283.69
X96.31Y-291.31
X98.85Y-283.69
X98.85Y-291.31
X101.39Y-283.69
X101.39Y-291.31
X103.93Y-283.69
X103.93Y-291.31
X112.0Y-285.2
X112.0Y-289.0
T5
X123.72Y-287.57
X123.72Y-310.43
X126.26Y-287.57
X126.26Y-310.43
X128.8Y-287.57
X128.8Y-310.43
X131.34Y-287.57
X131.34Y-310.43
X133.88Y-287.57
X133.88Y-310.43
X136.42Y-287.57
X136.42Y-310.43
X138.96Y-287.57
X138.96Y-310.43
X141.5Y-287.57
X141.5Y-310.43
X144.04Y-287.57
X144.04Y-310.43
X146.58Y-287.57
X146.58Y-310.43
X149.12Y-287.57
X149.12Y-310.43
X151.66Y-287.57
X151.66Y-310.43
X154.2Y-287.57
X154.2Y-310.43
X156.74Y-287.57
X156.74Y-310.43
X159.28Y-287.57
X159.28Y-310.43
T6
X68.0Y-294.5
X68.0Y-297.0
X68.0Y-299.5
X232.0Y-294.67
X232.0Y-297.17
X232.0Y-299.67
T7
X185.0Y-300.0
X200.5Y-300.0
T8
X34.5Y-167.0
X37.0Y-50.0
X37.0Y-305.0
X240.0Y-50.0
X240.0Y-305.0
X242.71Y-166.775
M30
