%TF.GenerationSoftware,KiCad,Pcbnew,10.0.0*%
%TF.CreationDate,2026-04-21T21:22:46+02:00*%
%TF.ProjectId,stair-ligh-project,73746169-722d-46c6-9967-682d70726f6a,rev?*%
%TF.SameCoordinates,Original*%
%TF.FileFunction,Paste,Top*%
%TF.FilePolarity,Positive*%
%FSLAX46Y46*%
G04 Gerber Fmt 4.6, Leading zero omitted, Abs format (unit mm)*
G04 Created by KiCad (PCBNEW 10.0.0) date 2026-04-21 21:22:46*
%MOMM*%
%LPD*%
G01*
G04 APERTURE LIST*
G04 Aperture macros list*
%AMRoundRect*
0 Rectangle with rounded corners*
0 $1 Rounding radius*
0 $2 $3 $4 $5 $6 $7 $8 $9 X,Y pos of 4 corners*
0 Add a 4 corners polygon primitive as box body*
4,1,4,$2,$3,$4,$5,$6,$7,$8,$9,$2,$3,0*
0 Add four circle primitives for the rounded corners*
1,1,$1+$1,$2,$3*
1,1,$1+$1,$4,$5*
1,1,$1+$1,$6,$7*
1,1,$1+$1,$8,$9*
0 Add four rect primitives between the rounded corners*
20,1,$1+$1,$2,$3,$4,$5,0*
20,1,$1+$1,$4,$5,$6,$7,0*
20,1,$1+$1,$6,$7,$8,$9,0*
20,1,$1+$1,$8,$9,$2,$3,0*%
G04 Aperture macros list end*
%ADD10RoundRect,0.216535X-0.833465X-0.333465X0.833465X-0.333465X0.833465X0.333465X-0.833465X0.333465X0*%
G04 APERTURE END LIST*
D10*
%TO.C,LED16*%
X45000000Y-59000000D03*
X45000000Y-62000000D03*
X45000000Y-65000000D03*
X235000000Y-65000000D03*
X235000000Y-62000000D03*
X235000000Y-59000000D03*
%TD*%
%TO.C,LED11*%
X45000000Y-129000000D03*
X45000000Y-132000000D03*
X45000000Y-135000000D03*
X235000000Y-135000000D03*
X235000000Y-132000000D03*
X235000000Y-129000000D03*
%TD*%
%TO.C,LED2*%
X45000000Y-255000000D03*
X45000000Y-258000000D03*
X45000000Y-261000000D03*
X235000000Y-261000000D03*
X235000000Y-258000000D03*
X235000000Y-255000000D03*
%TD*%
%TO.C,LED5*%
X45000000Y-213000000D03*
X45000000Y-216000000D03*
X45000000Y-219000000D03*
X235000000Y-219000000D03*
X235000000Y-216000000D03*
X235000000Y-213000000D03*
%TD*%
%TO.C,LED15*%
X45000000Y-73000000D03*
X45000000Y-76000000D03*
X45000000Y-79000000D03*
X235000000Y-79000000D03*
X235000000Y-76000000D03*
X235000000Y-73000000D03*
%TD*%
%TO.C,LED3*%
X45000000Y-241000000D03*
X45000000Y-244000000D03*
X45000000Y-247000000D03*
X235000000Y-247000000D03*
X235000000Y-244000000D03*
X235000000Y-241000000D03*
%TD*%
%TO.C,LED9*%
X45000000Y-157000000D03*
X45000000Y-160000000D03*
X45000000Y-163000000D03*
X235000000Y-163000000D03*
X235000000Y-160000000D03*
X235000000Y-157000000D03*
%TD*%
%TO.C,LED12*%
X45000000Y-115000000D03*
X45000000Y-118000000D03*
X45000000Y-121000000D03*
X235000000Y-121000000D03*
X235000000Y-118000000D03*
X235000000Y-115000000D03*
%TD*%
%TO.C,LED10*%
X45000000Y-143000000D03*
X45000000Y-146000000D03*
X45000000Y-149000000D03*
X235000000Y-149000000D03*
X235000000Y-146000000D03*
X235000000Y-143000000D03*
%TD*%
%TO.C,LED8*%
X45000000Y-171000000D03*
X45000000Y-174000000D03*
X45000000Y-177000000D03*
X235000000Y-177000000D03*
X235000000Y-174000000D03*
X235000000Y-171000000D03*
%TD*%
%TO.C,LED4*%
X45000000Y-227000000D03*
X45000000Y-230000000D03*
X45000000Y-233000000D03*
X235000000Y-233000000D03*
X235000000Y-230000000D03*
X235000000Y-227000000D03*
%TD*%
%TO.C,LED13*%
X45000000Y-101000000D03*
X45000000Y-104000000D03*
X45000000Y-107000000D03*
X235000000Y-107000000D03*
X235000000Y-104000000D03*
X235000000Y-101000000D03*
%TD*%
%TO.C,LED6*%
X45000000Y-199000000D03*
X45000000Y-202000000D03*
X45000000Y-205000000D03*
X235000000Y-205000000D03*
X235000000Y-202000000D03*
X235000000Y-199000000D03*
%TD*%
%TO.C,LED7*%
X45000000Y-185000000D03*
X45000000Y-188000000D03*
X45000000Y-191000000D03*
X235000000Y-191000000D03*
X235000000Y-188000000D03*
X235000000Y-185000000D03*
%TD*%
%TO.C,LED14*%
X45000000Y-87000000D03*
X45000000Y-90000000D03*
X45000000Y-93000000D03*
X235000000Y-93000000D03*
X235000000Y-90000000D03*
X235000000Y-87000000D03*
%TD*%
%TO.C,LED1*%
X45000000Y-269000000D03*
X45000000Y-272000000D03*
X45000000Y-275000000D03*
X235000000Y-275000000D03*
X235000000Y-272000000D03*
X235000000Y-269000000D03*
%TD*%
M02*
