%TF.GenerationSoftware,KiCad,Pcbnew,10.0.0*%
%TF.CreationDate,2026-04-21T21:22:46+02:00*%
%TF.ProjectId,stair-ligh-project,73746169-722d-46c6-9967-682d70726f6a,rev?*%
%TF.SameCoordinates,Original*%
%TF.FileFunction,Copper,L2,Bot*%
%TF.FilePolarity,Positive*%
%FSLAX46Y46*%
G04 Gerber Fmt 4.6, Leading zero omitted, Abs format (unit mm)*
G04 Created by KiCad (PCBNEW 10.0.0) date 2026-04-21 21:22:46*
%MOMM*%
%LPD*%
G01*
G04 APERTURE LIST*
G04 Aperture macros list*
%AMRoundRect*
0 Rectangle with rounded corners*
0 $1 Rounding radius*
0 $2 $3 $4 $5 $6 $7 $8 $9 X,Y pos of 4 corners*
0 Add a 4 corners polygon primitive as box body*
4,1,4,$2,$3,$4,$5,$6,$7,$8,$9,$2,$3,0*
0 Add four circle primitives for the rounded corners*
1,1,$1+$1,$2,$3*
1,1,$1+$1,$4,$5*
1,1,$1+$1,$6,$7*
1,1,$1+$1,$8,$9*
0 Add four rect primitives between the rounded corners*
20,1,$1+$1,$2,$3,$4,$5,0*
20,1,$1+$1,$4,$5,$6,$7,0*
20,1,$1+$1,$6,$7,$8,$9,0*
20,1,$1+$1,$8,$9,$2,$3,0*%
G04 Aperture macros list end*
%TA.AperFunction,ComponentPad*%
%ADD10RoundRect,0.250000X0.550000X-0.550000X0.550000X0.550000X-0.550000X0.550000X-0.550000X-0.550000X0*%
%TD*%
%TA.AperFunction,ComponentPad*%
%ADD11C,1.600000*%
%TD*%
%TA.AperFunction,ComponentPad*%
%ADD12RoundRect,0.250000X0.550000X-0.950000X0.550000X0.950000X-0.550000X0.950000X-0.550000X-0.950000X0*%
%TD*%
%TA.AperFunction,ComponentPad*%
%ADD13O,1.600000X2.400000*%
%TD*%
%TA.AperFunction,ComponentPad*%
%ADD14C,1.500000*%
%TD*%
%TA.AperFunction,ComponentPad*%
%ADD15C,1.400000*%
%TD*%
%TA.AperFunction,ComponentPad*%
%ADD16C,0.900000*%
%TD*%
%TA.AperFunction,ComponentPad*%
%ADD17C,8.000000*%
%TD*%
%TA.AperFunction,ComponentPad*%
%ADD18RoundRect,0.250000X-0.550000X-0.550000X0.550000X-0.550000X0.550000X0.550000X-0.550000X0.550000X0*%
%TD*%
%TA.AperFunction,ComponentPad*%
%ADD19RoundRect,0.250000X-1.750000X-1.750000X1.750000X-1.750000X1.750000X1.750000X-1.750000X1.750000X0*%
%TD*%
%TA.AperFunction,ComponentPad*%
%ADD20R,1.930000X1.930000*%
%TD*%
%TA.AperFunction,ComponentPad*%
%ADD21C,1.930000*%
%TD*%
%TA.AperFunction,ComponentPad*%
%ADD22RoundRect,0.250000X-0.550000X0.550000X-0.550000X-0.550000X0.550000X-0.550000X0.550000X0.550000X0*%
%TD*%
%TA.AperFunction,ViaPad*%
%ADD23C,0.600000*%
%TD*%
%TA.AperFunction,Conductor*%
%ADD24C,1.000000*%
%TD*%
%TA.AperFunction,Conductor*%
%ADD25C,0.200000*%
%TD*%
G04 APERTURE END LIST*
D10*
%TO.P,C11,1*%
%TO.N,+5V*%
X38000000Y-178302651D03*
D11*
%TO.P,C11,2*%
%TO.N,GND*%
X38000000Y-174502651D03*
%TD*%
D12*
%TO.P,U1,1,A->B_1*%
%TO.N,+5V*%
X81070000Y-291310000D03*
D13*
%TO.P,U1,2,A0_2*%
%TO.N,Level Shifter*%
X83610000Y-291310000D03*
%TO.P,U1,3,A1_3*%
%TO.N,GND*%
X86150000Y-291310000D03*
%TO.P,U1,4,A2_4*%
X88690000Y-291310000D03*
%TO.P,U1,5,A3_5*%
X91230000Y-291310000D03*
%TO.P,U1,6,A4_6*%
X93770000Y-291310000D03*
%TO.P,U1,7,A5_7*%
X96310000Y-291310000D03*
%TO.P,U1,8,A6_8*%
X98850000Y-291310000D03*
%TO.P,U1,9,A7_9*%
X101390000Y-291310000D03*
%TO.P,U1,10,GND_10*%
X103930000Y-291310000D03*
%TO.P,U1,11,B7_11*%
%TO.N,unconnected-(U1-B7-Pad11)*%
X103930000Y-283690000D03*
%TO.P,U1,12,B6_12*%
%TO.N,unconnected-(U1-B6-Pad12)*%
X101390000Y-283690000D03*
%TO.P,U1,13,B5_13*%
%TO.N,unconnected-(U1-B5-Pad13)*%
X98850000Y-283690000D03*
%TO.P,U1,14,B4_14*%
%TO.N,unconnected-(U1-B4-Pad14)*%
X96310000Y-283690000D03*
%TO.P,U1,15,B3_15*%
%TO.N,unconnected-(U1-B3-Pad15)*%
X93770000Y-283690000D03*
%TO.P,U1,16,B2_16*%
%TO.N,unconnected-(U1-B2-Pad16)*%
X91230000Y-283690000D03*
%TO.P,U1,17,B1_17*%
%TO.N,unconnected-(U1-B1-Pad17)*%
X88690000Y-283690000D03*
%TO.P,U1,18,B0_18*%
%TO.N,Net-(U1-B0)*%
X86150000Y-283690000D03*
%TO.P,U1,19,CE_19*%
%TO.N,GND*%
X83610000Y-283690000D03*
%TO.P,U1,20,VCC_20*%
%TO.N,+5V*%
X81070000Y-283690000D03*
%TD*%
D14*
%TO.P,U3,1,GND_1*%
%TO.N,+5V*%
X232000000Y-299669636D03*
%TO.P,U3,2,OUT_2*%
%TO.N,PIR1*%
X232000000Y-297169636D03*
%TO.P,U3,3,5V_3*%
%TO.N,GND*%
X232000000Y-294669636D03*
%TD*%
D15*
%TO.P,R1,1*%
%TO.N,Net-(U1-B0)*%
X76000000Y-291310000D03*
%TO.P,R1,2*%
%TO.N,Neopixel*%
X76000000Y-283690000D03*
%TD*%
D14*
%TO.P,U2,1,GND_1*%
%TO.N,+5V*%
X68000000Y-299500000D03*
%TO.P,U2,2,OUT_2*%
%TO.N,PIR2*%
X68000000Y-297000000D03*
%TO.P,U2,3,5V_3*%
%TO.N,GND*%
X68000000Y-294500000D03*
%TD*%
D10*
%TO.P,C4,1*%
%TO.N,+5V*%
X38000000Y-77802651D03*
D11*
%TO.P,C4,2*%
%TO.N,GND*%
X38000000Y-74002651D03*
%TD*%
D10*
%TO.P,C14,1*%
%TO.N,+5V*%
X38000000Y-219800000D03*
D11*
%TO.P,C14,2*%
%TO.N,GND*%
X38000000Y-216000000D03*
%TD*%
D16*
%TO.P,H5,1,1_1*%
%TO.N,GND*%
X239709830Y-166775000D03*
X240588510Y-164653680D03*
X240588510Y-168896320D03*
X242709830Y-163775000D03*
D17*
X242709830Y-166775000D03*
D16*
X242709830Y-169775000D03*
X244831150Y-164653680D03*
X244831150Y-168896320D03*
X245709830Y-166775000D03*
%TD*%
D18*
%TO.P,C1,1*%
%TO.N,+5V*%
X76200000Y-297500000D03*
D11*
%TO.P,C1,2*%
%TO.N,GND*%
X80000000Y-297500000D03*
%TD*%
D10*
%TO.P,C17,1*%
%TO.N,+5V*%
X38000000Y-259802651D03*
D11*
%TO.P,C17,2*%
%TO.N,GND*%
X38000000Y-256002651D03*
%TD*%
D10*
%TO.P,C18,1*%
%TO.N,+5V*%
X38000000Y-273802651D03*
D11*
%TO.P,C18,2*%
%TO.N,GND*%
X38000000Y-270002651D03*
%TD*%
D10*
%TO.P,C16,1*%
%TO.N,+5V*%
X38000000Y-245802651D03*
D11*
%TO.P,C16,2*%
%TO.N,GND*%
X38000000Y-242002651D03*
%TD*%
D19*
%TO.P,J3,1,Pin_1_1*%
%TO.N,+5V*%
X185000000Y-300000000D03*
%TD*%
D10*
%TO.P,C15,1*%
%TO.N,+5V*%
X38000000Y-231802651D03*
D11*
%TO.P,C15,2*%
%TO.N,GND*%
X38000000Y-228002651D03*
%TD*%
D10*
%TO.P,C9,1*%
%TO.N,+5V*%
X38000000Y-147802651D03*
D11*
%TO.P,C9,2*%
%TO.N,GND*%
X38000000Y-144002651D03*
%TD*%
D10*
%TO.P,C5,1*%
%TO.N,+5V*%
X38000000Y-91802651D03*
D11*
%TO.P,C5,2*%
%TO.N,GND*%
X38000000Y-88002651D03*
%TD*%
D16*
%TO.P,H6,1,1_1*%
%TO.N,GND*%
X31500000Y-167000000D03*
X32378680Y-164878680D03*
X32378680Y-169121320D03*
X34500000Y-164000000D03*
D17*
X34500000Y-167000000D03*
D16*
X34500000Y-170000000D03*
X36621320Y-164878680D03*
X36621320Y-169121320D03*
X37500000Y-167000000D03*
%TD*%
D10*
%TO.P,C3,1*%
%TO.N,+5V*%
X38000000Y-63802651D03*
D11*
%TO.P,C3,2*%
%TO.N,GND*%
X38000000Y-60002651D03*
%TD*%
D10*
%TO.P,C10,1*%
%TO.N,+5V*%
X38000000Y-159302651D03*
D11*
%TO.P,C10,2*%
%TO.N,GND*%
X38000000Y-155502651D03*
%TD*%
D10*
%TO.P,C8,1*%
%TO.N,+5V*%
X38000000Y-133802651D03*
D11*
%TO.P,C8,2*%
%TO.N,GND*%
X38000000Y-130002651D03*
%TD*%
D16*
%TO.P,H1,1,1_1*%
%TO.N,GND*%
X34000000Y-50000000D03*
X34878680Y-47878680D03*
X34878680Y-52121320D03*
X37000000Y-47000000D03*
D17*
X37000000Y-50000000D03*
D16*
X37000000Y-53000000D03*
X39121320Y-47878680D03*
X39121320Y-52121320D03*
X40000000Y-50000000D03*
%TD*%
%TO.P,H4,1,1_1*%
%TO.N,GND*%
X34000000Y-305000000D03*
X34878680Y-302878680D03*
X34878680Y-307121320D03*
X37000000Y-302000000D03*
D17*
X37000000Y-305000000D03*
D16*
X37000000Y-308000000D03*
X39121320Y-302878680D03*
X39121320Y-307121320D03*
X40000000Y-305000000D03*
%TD*%
%TO.P,H3,1,1_1*%
%TO.N,GND*%
X237000000Y-305000000D03*
X237878680Y-302878680D03*
X237878680Y-307121320D03*
X240000000Y-302000000D03*
D17*
X240000000Y-305000000D03*
D16*
X240000000Y-308000000D03*
X242121320Y-302878680D03*
X242121320Y-307121320D03*
X243000000Y-305000000D03*
%TD*%
D20*
%TO.P,A1,J1_1,A0_J1_1*%
%TO.N,unconnected-(A1A-A0-PadJ1_1)*%
X159280000Y-287570000D03*
D21*
%TO.P,A1,J1_2,RSV1_J1_2*%
%TO.N,unconnected-(A1A-RSV1-PadJ1_2)*%
X156740000Y-287570000D03*
%TO.P,A1,J1_3,RSV2_J1_3*%
%TO.N,unconnected-(A1A-RSV2-PadJ1_3)*%
X154200000Y-287570000D03*
%TO.P,A1,J1_4,SD3_J1_4*%
%TO.N,unconnected-(A1A-SD3-PadJ1_4)*%
X151660000Y-287570000D03*
%TO.P,A1,J1_5,SD2_J1_5*%
%TO.N,unconnected-(A1A-SD2-PadJ1_5)*%
X149120000Y-287570000D03*
%TO.P,A1,J1_6,SD1_J1_6*%
%TO.N,unconnected-(A1A-SD1-PadJ1_6)*%
X146580000Y-287570000D03*
%TO.P,A1,J1_7,CMD_J1_7*%
%TO.N,unconnected-(A1A-CMD-PadJ1_7)*%
X144040000Y-287570000D03*
%TO.P,A1,J1_8,SD0_J1_8*%
%TO.N,unconnected-(A1A-SD0-PadJ1_8)*%
X141500000Y-287570000D03*
%TO.P,A1,J1_9,CLK_J1_9*%
%TO.N,unconnected-(A1A-CLK-PadJ1_9)*%
X138960000Y-287570000D03*
%TO.P,A1,J1_10,GND_J1_10*%
%TO.N,GND*%
X136420000Y-287570000D03*
%TO.P,A1,J1_11,3V3_J1_11*%
%TO.N,unconnected-(A1A-3V3-PadJ1_11)*%
X133880000Y-287570000D03*
%TO.P,A1,J1_12,EN_J1_12*%
%TO.N,unconnected-(A1A-EN-PadJ1_12)*%
X131340000Y-287570000D03*
%TO.P,A1,J1_13,RST_J1_13*%
%TO.N,unconnected-(A1A-RST-PadJ1_13)*%
X128800000Y-287570000D03*
%TO.P,A1,J1_14,GND_J1_14*%
%TO.N,GND*%
X126260000Y-287570000D03*
%TO.P,A1,J1_15,VIN_J1_15*%
%TO.N,+5V*%
X123720000Y-287570000D03*
D20*
%TO.P,A1,J2_1,D0_J2_1*%
%TO.N,PIR1*%
X159280000Y-310430000D03*
D21*
%TO.P,A1,J2_2,D1_J2_2*%
%TO.N,unconnected-(A1B-D1-PadJ2_2)*%
X156740000Y-310430000D03*
%TO.P,A1,J2_3,D2_J2_3*%
%TO.N,PIR2*%
X154200000Y-310430000D03*
%TO.P,A1,J2_4,D3_J2_4*%
%TO.N,unconnected-(A1B-D3-PadJ2_4)*%
X151660000Y-310430000D03*
%TO.P,A1,J2_5,D4_J2_5*%
%TO.N,unconnected-(A1B-D4-PadJ2_5)*%
X149120000Y-310430000D03*
%TO.P,A1,J2_6,3V3_J2_6*%
%TO.N,3V3_1*%
X146580000Y-310430000D03*
%TO.P,A1,J2_7,GND_J2_7*%
%TO.N,GND*%
X144040000Y-310430000D03*
%TO.P,A1,J2_8,D5_J2_8*%
%TO.N,Level Shifter*%
X141500000Y-310430000D03*
%TO.P,A1,J2_9,D6_J2_9*%
%TO.N,unconnected-(A1B-D6-PadJ2_9)*%
X138960000Y-310430000D03*
%TO.P,A1,J2_10,D7_J2_10*%
%TO.N,unconnected-(A1B-D7-PadJ2_10)*%
X136420000Y-310430000D03*
%TO.P,A1,J2_11,D8_J2_11*%
%TO.N,unconnected-(A1B-D8-PadJ2_11)*%
X133880000Y-310430000D03*
%TO.P,A1,J2_12,D9_J2_12*%
%TO.N,unconnected-(A1B-D9-PadJ2_12)*%
X131340000Y-310430000D03*
%TO.P,A1,J2_13,D10_J2_13*%
%TO.N,unconnected-(A1B-D10-PadJ2_13)*%
X128800000Y-310430000D03*
%TO.P,A1,J2_14,GND_J2_14*%
%TO.N,GND*%
X126260000Y-310430000D03*
%TO.P,A1,J2_15,3V3_J2_15*%
%TO.N,3V3*%
X123720000Y-310430000D03*
%TD*%
D19*
%TO.P,J4,1,Pin_1_1*%
%TO.N,GND*%
X200500000Y-300000000D03*
%TD*%
D16*
%TO.P,H2,1,1_1*%
%TO.N,GND*%
X237000000Y-50000000D03*
X237878680Y-47878680D03*
X237878680Y-52121320D03*
X240000000Y-47000000D03*
D17*
X240000000Y-50000000D03*
D16*
X240000000Y-53000000D03*
X242121320Y-47878680D03*
X242121320Y-52121320D03*
X243000000Y-50000000D03*
%TD*%
D10*
%TO.P,C12,1*%
%TO.N,+5V*%
X38000000Y-189802651D03*
D11*
%TO.P,C12,2*%
%TO.N,GND*%
X38000000Y-186002651D03*
%TD*%
D10*
%TO.P,C7,1*%
%TO.N,+5V*%
X38000000Y-119802651D03*
D11*
%TO.P,C7,2*%
%TO.N,GND*%
X38000000Y-116002651D03*
%TD*%
D22*
%TO.P,C2,1*%
%TO.N,+5V*%
X112000000Y-285200000D03*
D11*
%TO.P,C2,2*%
%TO.N,GND*%
X112000000Y-289000000D03*
%TD*%
D10*
%TO.P,C6,1*%
%TO.N,+5V*%
X38000000Y-105802651D03*
D11*
%TO.P,C6,2*%
%TO.N,GND*%
X38000000Y-102002651D03*
%TD*%
D10*
%TO.P,C13,1*%
%TO.N,+5V*%
X38000000Y-203802651D03*
D11*
%TO.P,C13,2*%
%TO.N,GND*%
X38000000Y-200002651D03*
%TD*%
D23*
%TO.N,GND*%
X242000000Y-59000000D03*
X235000000Y-196000000D03*
X45000000Y-168000000D03*
X235000000Y-154000000D03*
X45000000Y-112000000D03*
X235000000Y-70000000D03*
X235000000Y-182000000D03*
X235000000Y-112000000D03*
X235000000Y-238000000D03*
X45000000Y-126000000D03*
X45000000Y-84000000D03*
X235000000Y-98000000D03*
X45000000Y-252000000D03*
X45000000Y-266000000D03*
X45000000Y-210000000D03*
X235000000Y-126000000D03*
X45000000Y-69750000D03*
X45000000Y-238000000D03*
X235000000Y-84000000D03*
X235000000Y-224000000D03*
X235000000Y-266000000D03*
X45000000Y-182000000D03*
X45000000Y-98000000D03*
X235000000Y-252000000D03*
X235000000Y-210000000D03*
X235000000Y-168000000D03*
X45000000Y-224000000D03*
X235000000Y-140000000D03*
X45000000Y-154000000D03*
X45000000Y-196000000D03*
X45000000Y-140000000D03*
%TD*%
%TO.N,GND*%
D24*
X80000000Y-297500000D02*
X80000000Y-297460000D01*
X33000000Y-275002651D02*
X33000000Y-301000000D01*
X36500000Y-187502651D02*
X36500000Y-196000000D01*
X36500000Y-86502651D02*
X38000000Y-88002651D01*
X142375000Y-308765000D02*
X127925000Y-308765000D01*
X38000000Y-270002651D02*
X33000000Y-275002651D01*
X36500000Y-84000000D02*
X36500000Y-86502651D01*
X240000000Y-305000000D02*
X240000000Y-302669636D01*
X242000000Y-126000000D02*
X242000000Y-112000000D01*
X36500000Y-268502651D02*
X38000000Y-270002651D01*
X36500000Y-154002651D02*
X36500000Y-145502651D01*
X93770000Y-291310000D02*
X96310000Y-291310000D01*
X36500000Y-72502651D02*
X38000000Y-74002651D01*
X242709830Y-178790170D02*
X242709830Y-166775000D01*
X45000000Y-84000000D02*
X36500000Y-84000000D01*
X122640000Y-291190000D02*
X114190000Y-291190000D01*
X242000000Y-238000000D02*
X242000000Y-224000000D01*
X36500000Y-217500000D02*
X36500000Y-224000000D01*
X36500000Y-198502651D02*
X38000000Y-200002651D01*
X38000000Y-242002651D02*
X36500000Y-243502651D01*
X205500000Y-305000000D02*
X240000000Y-305000000D01*
X242000000Y-154000000D02*
X242709830Y-154709830D01*
X34500000Y-159002651D02*
X38000000Y-155502651D01*
X242000000Y-112000000D02*
X242000000Y-98000000D01*
X38000000Y-216000000D02*
X36500000Y-217500000D01*
X88690000Y-291310000D02*
X86150000Y-291310000D01*
X36500000Y-114502651D02*
X38000000Y-116002651D01*
X242000000Y-98000000D02*
X242000000Y-84000000D01*
X242000000Y-140000000D02*
X242000000Y-126000000D01*
X36500000Y-142502651D02*
X38000000Y-144002651D01*
X242000000Y-182000000D02*
X242000000Y-179500000D01*
X36500000Y-131502651D02*
X36500000Y-140000000D01*
X127925000Y-308765000D02*
X126260000Y-310430000D01*
X242000000Y-252000000D02*
X242000000Y-238000000D01*
X34500000Y-171002651D02*
X38000000Y-174502651D01*
X38000000Y-116002651D02*
X36500000Y-117502651D01*
X101390000Y-291310000D02*
X103930000Y-291310000D01*
X45000000Y-69750000D02*
X36500000Y-69750000D01*
X38000000Y-88002651D02*
X36500000Y-89502651D01*
X235000000Y-70000000D02*
X242000000Y-70000000D01*
X241484830Y-168000000D02*
X242709830Y-166775000D01*
X136420000Y-287570000D02*
X132990000Y-291000000D01*
X242000000Y-303000000D02*
X240000000Y-305000000D01*
X235000000Y-126000000D02*
X242000000Y-126000000D01*
X36500000Y-254502651D02*
X38000000Y-256002651D01*
X45000000Y-210000000D02*
X36500000Y-210000000D01*
X109690000Y-291310000D02*
X112000000Y-289000000D01*
X45000000Y-266000000D02*
X36500000Y-266000000D01*
X38000000Y-186002651D02*
X36500000Y-187502651D01*
X200500000Y-300000000D02*
X195000000Y-305500000D01*
X235000000Y-238000000D02*
X242000000Y-238000000D01*
X103930000Y-291310000D02*
X109690000Y-291310000D01*
X242000000Y-196000000D02*
X242000000Y-182000000D01*
X235000000Y-154000000D02*
X242000000Y-154000000D01*
X126260000Y-291000000D02*
X126260000Y-297500000D01*
X45000000Y-182000000D02*
X36500000Y-182000000D01*
X86150000Y-291310000D02*
X86150000Y-286230000D01*
X36500000Y-89502651D02*
X36500000Y-98000000D01*
X36500000Y-196000000D02*
X36500000Y-198502651D01*
X36500000Y-229502651D02*
X36500000Y-238000000D01*
X36500000Y-61502651D02*
X36500000Y-69750000D01*
X45000000Y-126000000D02*
X44750000Y-125750000D01*
X242000000Y-154000000D02*
X242000000Y-140000000D01*
X86150000Y-286230000D02*
X83610000Y-283690000D01*
X195000000Y-305500000D02*
X148970000Y-305500000D01*
X38000000Y-130002651D02*
X36500000Y-131502651D01*
X38000000Y-228002651D02*
X36500000Y-229502651D01*
X235000000Y-224000000D02*
X242000000Y-224000000D01*
X39502651Y-154000000D02*
X38000000Y-155502651D01*
X242000000Y-224000000D02*
X242000000Y-210000000D01*
X44000000Y-167000000D02*
X45000000Y-168000000D01*
X235000000Y-140000000D02*
X242000000Y-140000000D01*
X235000000Y-112000000D02*
X242000000Y-112000000D01*
X36500000Y-210000000D02*
X36500000Y-214500000D01*
X38000000Y-60002651D02*
X36500000Y-61502651D01*
X148970000Y-305500000D02*
X144040000Y-310430000D01*
X45000000Y-112000000D02*
X36500000Y-112000000D01*
X45000000Y-140000000D02*
X36500000Y-140000000D01*
X33000000Y-301000000D02*
X37000000Y-305000000D01*
X36500000Y-201502651D02*
X36500000Y-210000000D01*
X80000000Y-297460000D02*
X86150000Y-291310000D01*
X235000000Y-182000000D02*
X242000000Y-182000000D01*
X34500000Y-167000000D02*
X34500000Y-171002651D01*
X36500000Y-182000000D02*
X36500000Y-176002651D01*
X242000000Y-266000000D02*
X242000000Y-303000000D01*
X242000000Y-210000000D02*
X242000000Y-196000000D01*
X36500000Y-100502651D02*
X38000000Y-102002651D01*
X38000000Y-256002651D02*
X36500000Y-257502651D01*
X36500000Y-145502651D02*
X38000000Y-144002651D01*
X126260000Y-297500000D02*
X126260000Y-310430000D01*
X235000000Y-252000000D02*
X242000000Y-252000000D01*
X36500000Y-176002651D02*
X38000000Y-174502651D01*
X126260000Y-287570000D02*
X122640000Y-291190000D01*
X68000000Y-294500000D02*
X47500000Y-294500000D01*
X242709830Y-154709830D02*
X242709830Y-166775000D01*
X235000000Y-168000000D02*
X241484830Y-168000000D01*
X77000000Y-294500000D02*
X80000000Y-297500000D01*
X235000000Y-98000000D02*
X242000000Y-98000000D01*
X38000000Y-155502651D02*
X36500000Y-154002651D01*
X36500000Y-243502651D02*
X36500000Y-252000000D01*
X36500000Y-112000000D02*
X36500000Y-114502651D01*
X36500000Y-103502651D02*
X36500000Y-112000000D01*
X36500000Y-182000000D02*
X36500000Y-184502651D01*
X36500000Y-184502651D02*
X38000000Y-186002651D01*
X200500000Y-300000000D02*
X205500000Y-305000000D01*
X36500000Y-117502651D02*
X36500000Y-125750000D01*
X45000000Y-98000000D02*
X36500000Y-98000000D01*
X36500000Y-125750000D02*
X36500000Y-128502651D01*
X36500000Y-238000000D02*
X36500000Y-240502651D01*
X235000000Y-266000000D02*
X242000000Y-266000000D01*
X242000000Y-179500000D02*
X242709830Y-178790170D01*
X38000000Y-102002651D02*
X36500000Y-103502651D01*
X36500000Y-224000000D02*
X36500000Y-226502651D01*
X132990000Y-291000000D02*
X126260000Y-291000000D01*
X44750000Y-125750000D02*
X36500000Y-125750000D01*
X235000000Y-196000000D02*
X242000000Y-196000000D01*
X235000000Y-210000000D02*
X242000000Y-210000000D01*
X36500000Y-252000000D02*
X36500000Y-254502651D01*
X36500000Y-257502651D02*
X36500000Y-266000000D01*
X114190000Y-291190000D02*
X112000000Y-289000000D01*
X36500000Y-98000000D02*
X36500000Y-100502651D01*
X235000000Y-84000000D02*
X242000000Y-84000000D01*
X36500000Y-240502651D02*
X38000000Y-242002651D01*
X47500000Y-294500000D02*
X37000000Y-305000000D01*
X68000000Y-294500000D02*
X77000000Y-294500000D01*
X36500000Y-266000000D02*
X36500000Y-268502651D01*
X37500000Y-167000000D02*
X44000000Y-167000000D01*
X242000000Y-70000000D02*
X242000000Y-59000000D01*
X91230000Y-291310000D02*
X93770000Y-291310000D01*
X242000000Y-266000000D02*
X242000000Y-252000000D01*
X36500000Y-226502651D02*
X38000000Y-228002651D01*
X45000000Y-196000000D02*
X36500000Y-196000000D01*
X242000000Y-59000000D02*
X242000000Y-52000000D01*
X45000000Y-252000000D02*
X36500000Y-252000000D01*
X96310000Y-291310000D02*
X98850000Y-291310000D01*
X242000000Y-52000000D02*
X240000000Y-50000000D01*
X240000000Y-302669636D02*
X232000000Y-294669636D01*
X144040000Y-310430000D02*
X142375000Y-308765000D01*
X38000000Y-74002651D02*
X36500000Y-75502651D01*
X242000000Y-84000000D02*
X242000000Y-70000000D01*
X45000000Y-238000000D02*
X36500000Y-238000000D01*
X36500000Y-214500000D02*
X38000000Y-216000000D01*
X36500000Y-140000000D02*
X36500000Y-142502651D01*
X36500000Y-75502651D02*
X36500000Y-84000000D01*
X88690000Y-291310000D02*
X91230000Y-291310000D01*
X38000000Y-200002651D02*
X36500000Y-201502651D01*
X98850000Y-291310000D02*
X101390000Y-291310000D01*
X36500000Y-128502651D02*
X38000000Y-130002651D01*
X36500000Y-69750000D02*
X36500000Y-72502651D01*
X126260000Y-287570000D02*
X126260000Y-291000000D01*
X34500000Y-167000000D02*
X34500000Y-159002651D01*
X45000000Y-154000000D02*
X39502651Y-154000000D01*
X45000000Y-224000000D02*
X36500000Y-224000000D01*
%TO.N,PIR2*%
D25*
X68000000Y-297000000D02*
X82695000Y-311695000D01*
X82695000Y-311695000D02*
X152935000Y-311695000D01*
X152935000Y-311695000D02*
X154200000Y-310430000D01*
%TD*%
%TA.AperFunction,Conductor*%
%TO.N,GND*%
G36*
X88369920Y-291064394D02*
G01*
X88317259Y-291155606D01*
X88290000Y-291257339D01*
X88290000Y-291362661D01*
X88317259Y-291464394D01*
X88369920Y-291555606D01*
X88374314Y-291560000D01*
X86465686Y-291560000D01*
X86470080Y-291555606D01*
X86522741Y-291464394D01*
X86550000Y-291362661D01*
X86550000Y-291257339D01*
X86522741Y-291155606D01*
X86470080Y-291064394D01*
X86465686Y-291060000D01*
X88374314Y-291060000D01*
X88369920Y-291064394D01*
G37*
%TD.AperFunction*%
%TA.AperFunction,Conductor*%
G36*
X90909920Y-291064394D02*
G01*
X90857259Y-291155606D01*
X90830000Y-291257339D01*
X90830000Y-291362661D01*
X90857259Y-291464394D01*
X90909920Y-291555606D01*
X90914314Y-291560000D01*
X89005686Y-291560000D01*
X89010080Y-291555606D01*
X89062741Y-291464394D01*
X89090000Y-291362661D01*
X89090000Y-291257339D01*
X89062741Y-291155606D01*
X89010080Y-291064394D01*
X89005686Y-291060000D01*
X90914314Y-291060000D01*
X90909920Y-291064394D01*
G37*
%TD.AperFunction*%
%TA.AperFunction,Conductor*%
G36*
X93449920Y-291064394D02*
G01*
X93397259Y-291155606D01*
X93370000Y-291257339D01*
X93370000Y-291362661D01*
X93397259Y-291464394D01*
X93449920Y-291555606D01*
X93454314Y-291560000D01*
X91545686Y-291560000D01*
X91550080Y-291555606D01*
X91602741Y-291464394D01*
X91630000Y-291362661D01*
X91630000Y-291257339D01*
X91602741Y-291155606D01*
X91550080Y-291064394D01*
X91545686Y-291060000D01*
X93454314Y-291060000D01*
X93449920Y-291064394D01*
G37*
%TD.AperFunction*%
%TA.AperFunction,Conductor*%
G36*
X95989920Y-291064394D02*
G01*
X95937259Y-291155606D01*
X95910000Y-291257339D01*
X95910000Y-291362661D01*
X95937259Y-291464394D01*
X95989920Y-291555606D01*
X95994314Y-291560000D01*
X94085686Y-291560000D01*
X94090080Y-291555606D01*
X94142741Y-291464394D01*
X94170000Y-291362661D01*
X94170000Y-291257339D01*
X94142741Y-291155606D01*
X94090080Y-291064394D01*
X94085686Y-291060000D01*
X95994314Y-291060000D01*
X95989920Y-291064394D01*
G37*
%TD.AperFunction*%
%TA.AperFunction,Conductor*%
G36*
X98529920Y-291064394D02*
G01*
X98477259Y-291155606D01*
X98450000Y-291257339D01*
X98450000Y-291362661D01*
X98477259Y-291464394D01*
X98529920Y-291555606D01*
X98534314Y-291560000D01*
X96625686Y-291560000D01*
X96630080Y-291555606D01*
X96682741Y-291464394D01*
X96710000Y-291362661D01*
X96710000Y-291257339D01*
X96682741Y-291155606D01*
X96630080Y-291064394D01*
X96625686Y-291060000D01*
X98534314Y-291060000D01*
X98529920Y-291064394D01*
G37*
%TD.AperFunction*%
%TA.AperFunction,Conductor*%
G36*
X101069920Y-291064394D02*
G01*
X101017259Y-291155606D01*
X100990000Y-291257339D01*
X100990000Y-291362661D01*
X101017259Y-291464394D01*
X101069920Y-291555606D01*
X101074314Y-291560000D01*
X99165686Y-291560000D01*
X99170080Y-291555606D01*
X99222741Y-291464394D01*
X99250000Y-291362661D01*
X99250000Y-291257339D01*
X99222741Y-291155606D01*
X99170080Y-291064394D01*
X99165686Y-291060000D01*
X101074314Y-291060000D01*
X101069920Y-291064394D01*
G37*
%TD.AperFunction*%
%TA.AperFunction,Conductor*%
G36*
X103609920Y-291064394D02*
G01*
X103557259Y-291155606D01*
X103530000Y-291257339D01*
X103530000Y-291362661D01*
X103557259Y-291464394D01*
X103609920Y-291555606D01*
X103614314Y-291560000D01*
X101705686Y-291560000D01*
X101710080Y-291555606D01*
X101762741Y-291464394D01*
X101790000Y-291362661D01*
X101790000Y-291257339D01*
X101762741Y-291155606D01*
X101710080Y-291064394D01*
X101705686Y-291060000D01*
X103614314Y-291060000D01*
X103609920Y-291064394D01*
G37*
%TD.AperFunction*%
%TA.AperFunction,Conductor*%
G36*
X248004418Y-40500816D02*
G01*
X248204561Y-40515130D01*
X248222063Y-40517647D01*
X248413791Y-40559354D01*
X248470278Y-40590199D01*
X248606207Y-40630111D01*
X248630695Y-40640254D01*
X248747495Y-40704032D01*
X248802908Y-40734290D01*
X248817791Y-40743855D01*
X248974864Y-40861438D01*
X248988235Y-40873024D01*
X249126975Y-41011764D01*
X249138561Y-41025135D01*
X249256144Y-41182208D01*
X249265709Y-41197091D01*
X249359743Y-41369300D01*
X249367093Y-41385394D01*
X249435661Y-41569234D01*
X249440645Y-41586209D01*
X249482351Y-41777931D01*
X249484869Y-41795442D01*
X249499184Y-41995579D01*
X249499500Y-42004426D01*
X249499500Y-312995572D01*
X249499184Y-313004419D01*
X249484869Y-313204557D01*
X249482351Y-313222068D01*
X249440645Y-313413790D01*
X249435661Y-313430765D01*
X249367093Y-313614605D01*
X249359743Y-313630699D01*
X249265709Y-313802908D01*
X249256144Y-313817791D01*
X249138561Y-313974864D01*
X249126975Y-313988235D01*
X248988235Y-314126975D01*
X248974864Y-314138561D01*
X248817791Y-314256144D01*
X248802908Y-314265709D01*
X248630699Y-314359743D01*
X248614605Y-314367093D01*
X248430765Y-314435661D01*
X248413790Y-314440645D01*
X248222068Y-314482351D01*
X248204557Y-314484869D01*
X248023779Y-314497799D01*
X248004417Y-314499184D01*
X247995572Y-314499500D01*
X29004428Y-314499500D01*
X28995582Y-314499184D01*
X28973622Y-314497613D01*
X28795442Y-314484869D01*
X28777931Y-314482351D01*
X28586209Y-314440645D01*
X28569234Y-314435661D01*
X28385394Y-314367093D01*
X28369300Y-314359743D01*
X28197091Y-314265709D01*
X28182208Y-314256144D01*
X28025135Y-314138561D01*
X28011764Y-314126975D01*
X27873024Y-313988235D01*
X27861438Y-313974864D01*
X27743855Y-313817791D01*
X27734290Y-313802908D01*
X27640256Y-313630699D01*
X27632909Y-313614611D01*
X27564336Y-313430760D01*
X27559354Y-313413790D01*
X27554036Y-313389345D01*
X27517647Y-313222063D01*
X27515130Y-313204556D01*
X27511863Y-313158882D01*
X27500816Y-313004418D01*
X27500500Y-312995572D01*
X27500500Y-311901577D01*
X57749500Y-311901577D01*
X57749500Y-312098422D01*
X57780290Y-312292826D01*
X57841117Y-312480029D01*
X57927549Y-312649661D01*
X57930476Y-312655405D01*
X58046172Y-312814646D01*
X58185354Y-312953828D01*
X58344595Y-313069524D01*
X58427455Y-313111743D01*
X58519970Y-313158882D01*
X58519972Y-313158882D01*
X58519975Y-313158884D01*
X58620317Y-313191487D01*
X58707173Y-313219709D01*
X58901578Y-313250500D01*
X58901583Y-313250500D01*
X59098422Y-313250500D01*
X59292826Y-313219709D01*
X59312240Y-313213401D01*
X59480025Y-313158884D01*
X59655405Y-313069524D01*
X59814646Y-312953828D01*
X59953828Y-312814646D01*
X60069524Y-312655405D01*
X60158884Y-312480025D01*
X60219709Y-312292826D01*
X60230350Y-312225641D01*
X60250500Y-312098422D01*
X60250500Y-311901577D01*
X60219709Y-311707173D01*
X60172520Y-311561942D01*
X60158884Y-311519975D01*
X60158882Y-311519972D01*
X60158882Y-311519970D01*
X60069523Y-311344594D01*
X60046807Y-311313328D01*
X59953828Y-311185354D01*
X59814646Y-311046172D01*
X59655405Y-310930476D01*
X59627096Y-310916052D01*
X59480029Y-310841117D01*
X59292826Y-310780290D01*
X59098422Y-310749500D01*
X59098417Y-310749500D01*
X58901583Y-310749500D01*
X58901578Y-310749500D01*
X58707173Y-310780290D01*
X58519970Y-310841117D01*
X58344594Y-310930476D01*
X58278031Y-310978838D01*
X58185354Y-311046172D01*
X58185352Y-311046174D01*
X58185351Y-311046174D01*
X58046174Y-311185351D01*
X58046174Y-311185352D01*
X58046172Y-311185354D01*
X57996485Y-311253741D01*
X57930476Y-311344594D01*
X57841117Y-311519970D01*
X57780290Y-311707173D01*
X57749500Y-311901577D01*
X27500500Y-311901577D01*
X27500500Y-296901577D01*
X66749500Y-296901577D01*
X66749500Y-297098422D01*
X66780290Y-297292826D01*
X66841117Y-297480029D01*
X66884739Y-297565641D01*
X66930476Y-297655405D01*
X67046172Y-297814646D01*
X67185354Y-297953828D01*
X67344595Y-298069524D01*
X67404410Y-298100001D01*
X67481960Y-298139515D01*
X67532756Y-298187490D01*
X67549551Y-298255311D01*
X67527014Y-298321446D01*
X67481960Y-298360485D01*
X67344594Y-298430476D01*
X67273476Y-298482147D01*
X67185354Y-298546172D01*
X67185352Y-298546174D01*
X67185351Y-298546174D01*
X67046174Y-298685351D01*
X67046174Y-298685352D01*
X67046172Y-298685354D01*
X67010237Y-298734814D01*
X66930476Y-298844594D01*
X66841117Y-299019970D01*
X66780290Y-299207173D01*
X66749500Y-299401577D01*
X66749500Y-299598422D01*
X66780290Y-299792826D01*
X66841117Y-299980029D01*
X66911444Y-300118053D01*
X66930476Y-300155405D01*
X67046172Y-300314646D01*
X67185354Y-300453828D01*
X67344595Y-300569524D01*
X67427455Y-300611743D01*
X67519970Y-300658882D01*
X67519972Y-300658882D01*
X67519975Y-300658884D01*
X67620317Y-300691487D01*
X67707173Y-300719709D01*
X67901578Y-300750500D01*
X67901583Y-300750500D01*
X68098422Y-300750500D01*
X68292826Y-300719709D01*
X68480025Y-300658884D01*
X68655405Y-300569524D01*
X68814646Y-300453828D01*
X68953828Y-300314646D01*
X69069524Y-300155405D01*
X69158884Y-299980025D01*
X69219709Y-299792826D01*
X69226492Y-299750000D01*
X69250500Y-299598422D01*
X69250500Y-299399097D01*
X69270185Y-299332058D01*
X69322989Y-299286303D01*
X69392147Y-299276359D01*
X69455703Y-299305384D01*
X69462181Y-299311416D01*
X82210139Y-312059374D01*
X82210149Y-312059385D01*
X82214479Y-312063715D01*
X82214480Y-312063716D01*
X82326284Y-312175520D01*
X82413095Y-312225639D01*
X82413097Y-312225641D01*
X82463213Y-312254576D01*
X82463215Y-312254577D01*
X82615942Y-312295500D01*
X82615943Y-312295500D01*
X152848331Y-312295500D01*
X152848347Y-312295501D01*
X152855943Y-312295501D01*
X153014054Y-312295501D01*
X153014057Y-312295501D01*
X153166785Y-312254577D01*
X153216904Y-312225639D01*
X153303716Y-312175520D01*
X153408023Y-312071213D01*
X221749500Y-312071213D01*
X221749500Y-312268058D01*
X221780290Y-312462462D01*
X221841117Y-312649665D01*
X221930476Y-312825041D01*
X222046172Y-312984282D01*
X222185354Y-313123464D01*
X222344595Y-313239160D01*
X222427455Y-313281379D01*
X222519970Y-313328518D01*
X222519972Y-313328518D01*
X222519975Y-313328520D01*
X222620317Y-313361123D01*
X222707173Y-313389345D01*
X222901578Y-313420136D01*
X222901583Y-313420136D01*
X223098422Y-313420136D01*
X223292826Y-313389345D01*
X223480025Y-313328520D01*
X223655405Y-313239160D01*
X223814646Y-313123464D01*
X223953828Y-312984282D01*
X224069524Y-312825041D01*
X224158884Y-312649661D01*
X224219709Y-312462462D01*
X224246153Y-312295501D01*
X224250500Y-312268058D01*
X224250500Y-312071213D01*
X224219709Y-311876809D01*
X224179332Y-311752544D01*
X224158884Y-311689611D01*
X224158882Y-311689608D01*
X224158882Y-311689606D01*
X224081870Y-311538462D01*
X224069524Y-311514231D01*
X223953828Y-311354990D01*
X223814646Y-311215808D01*
X223655405Y-311100112D01*
X223605757Y-311074815D01*
X223480029Y-311010753D01*
X223292826Y-310949926D01*
X223098422Y-310919136D01*
X223098417Y-310919136D01*
X222901583Y-310919136D01*
X222901578Y-310919136D01*
X222707173Y-310949926D01*
X222519970Y-311010753D01*
X222344594Y-311100112D01*
X222254561Y-311165526D01*
X222185354Y-311215808D01*
X222185352Y-311215810D01*
X222185351Y-311215810D01*
X222046174Y-311354987D01*
X222046174Y-311354988D01*
X222046172Y-311354990D01*
X221996485Y-311423377D01*
X221930476Y-311514230D01*
X221841117Y-311689606D01*
X221780290Y-311876809D01*
X221749500Y-312071213D01*
X153408023Y-312071213D01*
X153415520Y-312063716D01*
X153415520Y-312063714D01*
X153425728Y-312053507D01*
X153425730Y-312053504D01*
X153624213Y-311855020D01*
X153685534Y-311821537D01*
X153750209Y-311824771D01*
X153856828Y-311859415D01*
X153942266Y-311872946D01*
X154084658Y-311895500D01*
X154084663Y-311895500D01*
X154315342Y-311895500D01*
X154543172Y-311859415D01*
X154606630Y-311838796D01*
X154762557Y-311788132D01*
X154968090Y-311683408D01*
X155154709Y-311547821D01*
X155317821Y-311384709D01*
X155369683Y-311313327D01*
X155425012Y-311270663D01*
X155494626Y-311264684D01*
X155556421Y-311297290D01*
X155570315Y-311313324D01*
X155622179Y-311384709D01*
X155785291Y-311547821D01*
X155971910Y-311683408D01*
X156018552Y-311707173D01*
X156177438Y-311788130D01*
X156177440Y-311788130D01*
X156177443Y-311788132D01*
X156280252Y-311821537D01*
X156396827Y-311859415D01*
X156624658Y-311895500D01*
X156624663Y-311895500D01*
X156855342Y-311895500D01*
X157083172Y-311859415D01*
X157146630Y-311838796D01*
X157302557Y-311788132D01*
X157508090Y-311683408D01*
X157675275Y-311561940D01*
X157741077Y-311538462D01*
X157809131Y-311554287D01*
X157857826Y-311604392D01*
X157864338Y-311618926D01*
X157871200Y-311637324D01*
X157871206Y-311637335D01*
X157957452Y-311752544D01*
X157957455Y-311752547D01*
X158072664Y-311838793D01*
X158072671Y-311838797D01*
X158207517Y-311889091D01*
X158207516Y-311889091D01*
X158214444Y-311889835D01*
X158267127Y-311895500D01*
X160292872Y-311895499D01*
X160352483Y-311889091D01*
X160487331Y-311838796D01*
X160602546Y-311752546D01*
X160688796Y-311637331D01*
X160739091Y-311502483D01*
X160745500Y-311442873D01*
X160745499Y-309417128D01*
X160739091Y-309357517D01*
X160716522Y-309297007D01*
X160688797Y-309222671D01*
X160688796Y-309222669D01*
X160688792Y-309222664D01*
X160602546Y-309107454D01*
X160602544Y-309107452D01*
X160510719Y-309038711D01*
X161239500Y-309038711D01*
X161239500Y-309281288D01*
X161271161Y-309521785D01*
X161333947Y-309756104D01*
X161426773Y-309980205D01*
X161426776Y-309980212D01*
X161548064Y-310190289D01*
X161548066Y-310190292D01*
X161548067Y-310190293D01*
X161695733Y-310382736D01*
X161695739Y-310382743D01*
X161867256Y-310554260D01*
X161867263Y-310554266D01*
X161980321Y-310641018D01*
X162059711Y-310701936D01*
X162269788Y-310823224D01*
X162493900Y-310916054D01*
X162728211Y-310978838D01*
X162904314Y-311002022D01*
X162968711Y-311010500D01*
X162968712Y-311010500D01*
X163211289Y-311010500D01*
X163275686Y-311002022D01*
X163451789Y-310978838D01*
X163686100Y-310916054D01*
X163910212Y-310823224D01*
X164120289Y-310701936D01*
X164312738Y-310554265D01*
X164484265Y-310382738D01*
X164631936Y-310190289D01*
X164753224Y-309980212D01*
X164846054Y-309756100D01*
X164908838Y-309521789D01*
X164940500Y-309281288D01*
X164940500Y-309038712D01*
X164908838Y-308798211D01*
X164846054Y-308563900D01*
X164753224Y-308339788D01*
X164631936Y-308129711D01*
X164484265Y-307937262D01*
X164484260Y-307937256D01*
X164312743Y-307765739D01*
X164312736Y-307765733D01*
X164120293Y-307618067D01*
X164120292Y-307618066D01*
X164120289Y-307618064D01*
X163910212Y-307496776D01*
X163910205Y-307496773D01*
X163686104Y-307403947D01*
X163451785Y-307341161D01*
X163211289Y-307309500D01*
X163211288Y-307309500D01*
X162968712Y-307309500D01*
X162968711Y-307309500D01*
X162728214Y-307341161D01*
X162493895Y-307403947D01*
X162269794Y-307496773D01*
X162269785Y-307496777D01*
X162059706Y-307618067D01*
X161867263Y-307765733D01*
X161867256Y-307765739D01*
X161695739Y-307937256D01*
X161695733Y-307937263D01*
X161548067Y-308129706D01*
X161426777Y-308339785D01*
X161426773Y-308339794D01*
X161333947Y-308563895D01*
X161271161Y-308798214D01*
X161239500Y-309038711D01*
X160510719Y-309038711D01*
X160487335Y-309021206D01*
X160487328Y-309021202D01*
X160352482Y-308970908D01*
X160352483Y-308970908D01*
X160292883Y-308964501D01*
X160292881Y-308964500D01*
X160292873Y-308964500D01*
X160292864Y-308964500D01*
X158267129Y-308964500D01*
X158267123Y-308964501D01*
X158207516Y-308970908D01*
X158072671Y-309021202D01*
X158072664Y-309021206D01*
X157957455Y-309107452D01*
X157957452Y-309107455D01*
X157871206Y-309222664D01*
X157871202Y-309222672D01*
X157864338Y-309241075D01*
X157822466Y-309297007D01*
X157757001Y-309321423D01*
X157688728Y-309306570D01*
X157675277Y-309298060D01*
X157508090Y-309176592D01*
X157302561Y-309071869D01*
X157083172Y-309000584D01*
X156855342Y-308964500D01*
X156855337Y-308964500D01*
X156624663Y-308964500D01*
X156624658Y-308964500D01*
X156396827Y-309000584D01*
X156177438Y-309071869D01*
X155971909Y-309176592D01*
X155908486Y-309222672D01*
X155785291Y-309312179D01*
X155785289Y-309312181D01*
X155785288Y-309312181D01*
X155622181Y-309475288D01*
X155622174Y-309475297D01*
X155570317Y-309546671D01*
X155514987Y-309589337D01*
X155445374Y-309595315D01*
X155383579Y-309562709D01*
X155369683Y-309546671D01*
X155317825Y-309475297D01*
X155317823Y-309475294D01*
X155317821Y-309475291D01*
X155154709Y-309312179D01*
X154968090Y-309176592D01*
X154762561Y-309071869D01*
X154543172Y-309000584D01*
X154315342Y-308964500D01*
X154315337Y-308964500D01*
X154084663Y-308964500D01*
X154084658Y-308964500D01*
X153856827Y-309000584D01*
X153637438Y-309071869D01*
X153431909Y-309176592D01*
X153368486Y-309222672D01*
X153245291Y-309312179D01*
X153245289Y-309312181D01*
X153245288Y-309312181D01*
X153082181Y-309475288D01*
X153082174Y-309475297D01*
X153030317Y-309546671D01*
X152974987Y-309589337D01*
X152905374Y-309595315D01*
X152843579Y-309562709D01*
X152829683Y-309546671D01*
X152777825Y-309475297D01*
X152777823Y-309475294D01*
X152777821Y-309475291D01*
X152614709Y-309312179D01*
X152428090Y-309176592D01*
X152222561Y-309071869D01*
X152003172Y-309000584D01*
X151775342Y-308964500D01*
X151775337Y-308964500D01*
X151544663Y-308964500D01*
X151544658Y-308964500D01*
X151316827Y-309000584D01*
X151097438Y-309071869D01*
X150891909Y-309176592D01*
X150828486Y-309222672D01*
X150705291Y-309312179D01*
X150705289Y-309312181D01*
X150705288Y-309312181D01*
X150542181Y-309475288D01*
X150542174Y-309475297D01*
X150490317Y-309546671D01*
X150434987Y-309589337D01*
X150365374Y-309595315D01*
X150303579Y-309562709D01*
X150289683Y-309546671D01*
X150237825Y-309475297D01*
X150237823Y-309475294D01*
X150237821Y-309475291D01*
X150074709Y-309312179D01*
X149888090Y-309176592D01*
X149682561Y-309071869D01*
X149463172Y-309000584D01*
X149235342Y-308964500D01*
X149235337Y-308964500D01*
X149004663Y-308964500D01*
X149004658Y-308964500D01*
X148776827Y-309000584D01*
X148557438Y-309071869D01*
X148351909Y-309176592D01*
X148288486Y-309222672D01*
X148165291Y-309312179D01*
X148165289Y-309312181D01*
X148165288Y-309312181D01*
X148002181Y-309475288D01*
X148002174Y-309475297D01*
X147950317Y-309546671D01*
X147894987Y-309589337D01*
X147825374Y-309595315D01*
X147763579Y-309562709D01*
X147749683Y-309546671D01*
X147697825Y-309475297D01*
X147697823Y-309475294D01*
X147697821Y-309475291D01*
X147534709Y-309312179D01*
X147348090Y-309176592D01*
X147142561Y-309071869D01*
X146923172Y-309000584D01*
X146695342Y-308964500D01*
X146695337Y-308964500D01*
X146464663Y-308964500D01*
X146464658Y-308964500D01*
X146236827Y-309000584D01*
X146017438Y-309071869D01*
X145811909Y-309176592D01*
X145748486Y-309222672D01*
X145625291Y-309312179D01*
X145625289Y-309312181D01*
X145625288Y-309312181D01*
X145462180Y-309475289D01*
X145410008Y-309547098D01*
X145354677Y-309589763D01*
X145285064Y-309595742D01*
X145271575Y-309588624D01*
X145237600Y-309585950D01*
X144477647Y-310345904D01*
X144454208Y-310258429D01*
X144395689Y-310157070D01*
X144312930Y-310074311D01*
X144211571Y-310015792D01*
X144124092Y-309992352D01*
X144884048Y-309232398D01*
X144807827Y-309177020D01*
X144602367Y-309072332D01*
X144383057Y-309001073D01*
X144155303Y-308965000D01*
X143924697Y-308965000D01*
X143696943Y-309001073D01*
X143696940Y-309001073D01*
X143477632Y-309072332D01*
X143272169Y-309177022D01*
X143195951Y-309232397D01*
X143195950Y-309232398D01*
X143955905Y-309992352D01*
X143868429Y-310015792D01*
X143767070Y-310074311D01*
X143684311Y-310157070D01*
X143625792Y-310258429D01*
X143602352Y-310345905D01*
X142842398Y-309585950D01*
X142817716Y-309587893D01*
X142815289Y-309589765D01*
X142745676Y-309595740D01*
X142683882Y-309563130D01*
X142669992Y-309547098D01*
X142617821Y-309475291D01*
X142454709Y-309312179D01*
X142268090Y-309176592D01*
X142062561Y-309071869D01*
X141843172Y-309000584D01*
X141615342Y-308964500D01*
X141615337Y-308964500D01*
X141384663Y-308964500D01*
X141384658Y-308964500D01*
X141156827Y-309000584D01*
X140937438Y-309071869D01*
X140731909Y-309176592D01*
X140668486Y-309222672D01*
X140545291Y-309312179D01*
X140545289Y-309312181D01*
X140545288Y-309312181D01*
X140382181Y-309475288D01*
X140382174Y-309475297D01*
X140330317Y-309546671D01*
X140274987Y-309589337D01*
X140205374Y-309595315D01*
X140143579Y-309562709D01*
X140129683Y-309546671D01*
X140077825Y-309475297D01*
X140077823Y-309475294D01*
X140077821Y-309475291D01*
X139914709Y-309312179D01*
X139728090Y-309176592D01*
X139522561Y-309071869D01*
X139303172Y-309000584D01*
X139075342Y-308964500D01*
X139075337Y-308964500D01*
X138844663Y-308964500D01*
X138844658Y-308964500D01*
X138616827Y-309000584D01*
X138397438Y-309071869D01*
X138191909Y-309176592D01*
X138128486Y-309222672D01*
X138005291Y-309312179D01*
X138005289Y-309312181D01*
X138005288Y-309312181D01*
X137842181Y-309475288D01*
X137842174Y-309475297D01*
X137790317Y-309546671D01*
X137734987Y-309589337D01*
X137665374Y-309595315D01*
X137603579Y-309562709D01*
X137589683Y-309546671D01*
X137537825Y-309475297D01*
X137537823Y-309475294D01*
X137537821Y-309475291D01*
X137374709Y-309312179D01*
X137188090Y-309176592D01*
X136982561Y-309071869D01*
X136763172Y-309000584D01*
X136535342Y-308964500D01*
X136535337Y-308964500D01*
X136304663Y-308964500D01*
X136304658Y-308964500D01*
X136076827Y-309000584D01*
X135857438Y-309071869D01*
X135651909Y-309176592D01*
X135588486Y-309222672D01*
X135465291Y-309312179D01*
X135465289Y-309312181D01*
X135465288Y-309312181D01*
X135302181Y-309475288D01*
X135302174Y-309475297D01*
X135250317Y-309546671D01*
X135194987Y-309589337D01*
X135125374Y-309595315D01*
X135063579Y-309562709D01*
X135049683Y-309546671D01*
X134997825Y-309475297D01*
X134997823Y-309475294D01*
X134997821Y-309475291D01*
X134834709Y-309312179D01*
X134648090Y-309176592D01*
X134442561Y-309071869D01*
X134223172Y-309000584D01*
X133995342Y-308964500D01*
X133995337Y-308964500D01*
X133764663Y-308964500D01*
X133764658Y-308964500D01*
X133536827Y-309000584D01*
X133317438Y-309071869D01*
X133111909Y-309176592D01*
X133048486Y-309222672D01*
X132925291Y-309312179D01*
X132925289Y-309312181D01*
X132925288Y-309312181D01*
X132762181Y-309475288D01*
X132762174Y-309475297D01*
X132710317Y-309546671D01*
X132654987Y-309589337D01*
X132585374Y-309595315D01*
X132523579Y-309562709D01*
X132509683Y-309546671D01*
X132457825Y-309475297D01*
X132457823Y-309475294D01*
X132457821Y-309475291D01*
X132294709Y-309312179D01*
X132108090Y-309176592D01*
X131902561Y-309071869D01*
X131683172Y-309000584D01*
X131455342Y-308964500D01*
X131455337Y-308964500D01*
X131224663Y-308964500D01*
X131224658Y-308964500D01*
X130996827Y-309000584D01*
X130777438Y-309071869D01*
X130571909Y-309176592D01*
X130508486Y-309222672D01*
X130385291Y-309312179D01*
X130385289Y-309312181D01*
X130385288Y-309312181D01*
X130222181Y-309475288D01*
X130222174Y-309475297D01*
X130170317Y-309546671D01*
X130114987Y-309589337D01*
X130045374Y-309595315D01*
X129983579Y-309562709D01*
X129969683Y-309546671D01*
X129917825Y-309475297D01*
X129917823Y-309475294D01*
X129917821Y-309475291D01*
X129754709Y-309312179D01*
X129568090Y-309176592D01*
X129362561Y-309071869D01*
X129143172Y-309000584D01*
X128915342Y-308964500D01*
X128915337Y-308964500D01*
X128684663Y-308964500D01*
X128684658Y-308964500D01*
X128456827Y-309000584D01*
X128237438Y-309071869D01*
X128031909Y-309176592D01*
X127968486Y-309222672D01*
X127845291Y-309312179D01*
X127845289Y-309312181D01*
X127845288Y-309312181D01*
X127682180Y-309475289D01*
X127630008Y-309547098D01*
X127574677Y-309589763D01*
X127505064Y-309595742D01*
X127491575Y-309588624D01*
X127457600Y-309585950D01*
X126697647Y-310345904D01*
X126674208Y-310258429D01*
X126615689Y-310157070D01*
X126532930Y-310074311D01*
X126431571Y-310015792D01*
X126344092Y-309992352D01*
X127104048Y-309232398D01*
X127027827Y-309177020D01*
X126822367Y-309072332D01*
X126603057Y-309001073D01*
X126375303Y-308965000D01*
X126144697Y-308965000D01*
X125916943Y-309001073D01*
X125916940Y-309001073D01*
X125697632Y-309072332D01*
X125492169Y-309177022D01*
X125415951Y-309232397D01*
X125415950Y-309232398D01*
X126175905Y-309992352D01*
X126088429Y-310015792D01*
X125987070Y-310074311D01*
X125904311Y-310157070D01*
X125845792Y-310258429D01*
X125822352Y-310345905D01*
X125062398Y-309585950D01*
X125037716Y-309587893D01*
X125035289Y-309589765D01*
X124965676Y-309595740D01*
X124903882Y-309563130D01*
X124889992Y-309547098D01*
X124837821Y-309475291D01*
X124674709Y-309312179D01*
X124488090Y-309176592D01*
X124282561Y-309071869D01*
X124063172Y-309000584D01*
X123835342Y-308964500D01*
X123835337Y-308964500D01*
X123604663Y-308964500D01*
X123604658Y-308964500D01*
X123376827Y-309000584D01*
X123157438Y-309071869D01*
X122951909Y-309176592D01*
X122888486Y-309222672D01*
X122765291Y-309312179D01*
X122765289Y-309312181D01*
X122765288Y-309312181D01*
X122602181Y-309475288D01*
X122602181Y-309475289D01*
X122602179Y-309475291D01*
X122550008Y-309547098D01*
X122466592Y-309661909D01*
X122361869Y-309867438D01*
X122290584Y-310086827D01*
X122254500Y-310314657D01*
X122254500Y-310545342D01*
X122290584Y-310773172D01*
X122313666Y-310844208D01*
X122337010Y-310916054D01*
X122342251Y-310932181D01*
X122344246Y-311002022D01*
X122308166Y-311061855D01*
X122245466Y-311092684D01*
X122224320Y-311094500D01*
X120698685Y-311094500D01*
X120631646Y-311074815D01*
X120585891Y-311022011D01*
X120575947Y-310952853D01*
X120604972Y-310889297D01*
X120651232Y-310855939D01*
X120730205Y-310823227D01*
X120730205Y-310823226D01*
X120730212Y-310823224D01*
X120940289Y-310701936D01*
X121132738Y-310554265D01*
X121304265Y-310382738D01*
X121451936Y-310190289D01*
X121573224Y-309980212D01*
X121666054Y-309756100D01*
X121728838Y-309521789D01*
X121760500Y-309281288D01*
X121760500Y-309038712D01*
X121728838Y-308798211D01*
X121666054Y-308563900D01*
X121573224Y-308339788D01*
X121451936Y-308129711D01*
X121304265Y-307937262D01*
X121304260Y-307937256D01*
X121132743Y-307765739D01*
X121132736Y-307765733D01*
X120940293Y-307618067D01*
X120940292Y-307618066D01*
X120940289Y-307618064D01*
X120730212Y-307496776D01*
X120730205Y-307496773D01*
X120506104Y-307403947D01*
X120271785Y-307341161D01*
X120031289Y-307309500D01*
X120031288Y-307309500D01*
X119788712Y-307309500D01*
X119788711Y-307309500D01*
X119548214Y-307341161D01*
X119313895Y-307403947D01*
X119089794Y-307496773D01*
X119089785Y-307496777D01*
X118879706Y-307618067D01*
X118687263Y-307765733D01*
X118687256Y-307765739D01*
X118515739Y-307937256D01*
X118515733Y-307937263D01*
X118368067Y-308129706D01*
X118246777Y-308339785D01*
X118246773Y-308339794D01*
X118153947Y-308563895D01*
X118091161Y-308798214D01*
X118059500Y-309038711D01*
X118059500Y-309281288D01*
X118091161Y-309521785D01*
X118153947Y-309756104D01*
X118246773Y-309980205D01*
X118246776Y-309980212D01*
X118368064Y-310190289D01*
X118368066Y-310190292D01*
X118368067Y-310190293D01*
X118515733Y-310382736D01*
X118515739Y-310382743D01*
X118687256Y-310554260D01*
X118687263Y-310554266D01*
X118800321Y-310641018D01*
X118879711Y-310701936D01*
X119089788Y-310823224D01*
X119089790Y-310823224D01*
X119089794Y-310823227D01*
X119168768Y-310855939D01*
X119223171Y-310899780D01*
X119245236Y-310966074D01*
X119227957Y-311033774D01*
X119176819Y-311081384D01*
X119121315Y-311094500D01*
X82995097Y-311094500D01*
X82928058Y-311074815D01*
X82907416Y-311058181D01*
X69253768Y-297404533D01*
X69220283Y-297343210D01*
X69218976Y-297297454D01*
X69250500Y-297098422D01*
X69250500Y-296901577D01*
X69250248Y-296899983D01*
X74899500Y-296899983D01*
X74899500Y-298100001D01*
X74899501Y-298100018D01*
X74910000Y-298202796D01*
X74910001Y-298202799D01*
X74955835Y-298341116D01*
X74965186Y-298369334D01*
X75057288Y-298518656D01*
X75181344Y-298642712D01*
X75330666Y-298734814D01*
X75497203Y-298789999D01*
X75599991Y-298800500D01*
X76800008Y-298800499D01*
X76902797Y-298789999D01*
X77069334Y-298734814D01*
X77218656Y-298642712D01*
X77342712Y-298518656D01*
X77434814Y-298369334D01*
X77489999Y-298202797D01*
X77500500Y-298100009D01*
X77500499Y-297397682D01*
X78700000Y-297397682D01*
X78700000Y-297602317D01*
X78732009Y-297804417D01*
X78795244Y-297999031D01*
X78888141Y-298181350D01*
X78888147Y-298181359D01*
X78920523Y-298225921D01*
X78920524Y-298225922D01*
X79600000Y-297546446D01*
X79600000Y-297552661D01*
X79627259Y-297654394D01*
X79679920Y-297745606D01*
X79754394Y-297820080D01*
X79845606Y-297872741D01*
X79947339Y-297900000D01*
X79953553Y-297900000D01*
X79274076Y-298579474D01*
X79318650Y-298611859D01*
X79500968Y-298704755D01*
X79695582Y-298767990D01*
X79897683Y-298800000D01*
X80102317Y-298800000D01*
X80304417Y-298767990D01*
X80499031Y-298704755D01*
X80681349Y-298611859D01*
X80725921Y-298579474D01*
X80046447Y-297900000D01*
X80052661Y-297900000D01*
X80154394Y-297872741D01*
X80245606Y-297820080D01*
X80320080Y-297745606D01*
X80372741Y-297654394D01*
X80400000Y-297552661D01*
X80400000Y-297546447D01*
X81079474Y-298225921D01*
X81098320Y-298199983D01*
X182499500Y-298199983D01*
X182499500Y-301800001D01*
X182499501Y-301800018D01*
X182510000Y-301902796D01*
X182510001Y-301902799D01*
X182565115Y-302069119D01*
X182565186Y-302069334D01*
X182657288Y-302218656D01*
X182781344Y-302342712D01*
X182930666Y-302434814D01*
X183097203Y-302489999D01*
X183199991Y-302500500D01*
X186800008Y-302500499D01*
X186902797Y-302489999D01*
X187069334Y-302434814D01*
X187218656Y-302342712D01*
X187342712Y-302218656D01*
X187434814Y-302069334D01*
X187489999Y-301902797D01*
X187500500Y-301800009D01*
X187500499Y-299980029D01*
X187500499Y-298200013D01*
X198000000Y-298200013D01*
X198000000Y-299750000D01*
X199020898Y-299750000D01*
X199000000Y-299881947D01*
X199000000Y-300118053D01*
X199020898Y-300250000D01*
X198000001Y-300250000D01*
X198000001Y-301799986D01*
X198010494Y-301902697D01*
X198065641Y-302069119D01*
X198065643Y-302069124D01*
X198157684Y-302218345D01*
X198281654Y-302342315D01*
X198430875Y-302434356D01*
X198430880Y-302434358D01*
X198597302Y-302489505D01*
X198597309Y-302489506D01*
X198700019Y-302499999D01*
X200249999Y-302499999D01*
X200250000Y-302499998D01*
X200250000Y-301479101D01*
X200381947Y-301500000D01*
X200618053Y-301500000D01*
X200750000Y-301479101D01*
X200750000Y-302499999D01*
X202299972Y-302499999D01*
X202299986Y-302499998D01*
X202402697Y-302489505D01*
X202569119Y-302434358D01*
X202569124Y-302434356D01*
X202718345Y-302342315D01*
X202842315Y-302218345D01*
X202934356Y-302069124D01*
X202934358Y-302069119D01*
X202989505Y-301902697D01*
X202989506Y-301902690D01*
X202999999Y-301799986D01*
X203000000Y-301799973D01*
X203000000Y-300250000D01*
X201979102Y-300250000D01*
X202000000Y-300118053D01*
X202000000Y-299881947D01*
X201979102Y-299750000D01*
X202999999Y-299750000D01*
X202999999Y-298200028D01*
X202999998Y-298200013D01*
X202989505Y-298097302D01*
X202934358Y-297930880D01*
X202934356Y-297930875D01*
X202842315Y-297781654D01*
X202718345Y-297657684D01*
X202569124Y-297565643D01*
X202569119Y-297565641D01*
X202402697Y-297510494D01*
X202402690Y-297510493D01*
X202299986Y-297500000D01*
X200750000Y-297500000D01*
X200750000Y-298520898D01*
X200618053Y-298500000D01*
X200381947Y-298500000D01*
X200250000Y-298520898D01*
X200250000Y-297500000D01*
X198700028Y-297500000D01*
X198700012Y-297500001D01*
X198597302Y-297510494D01*
X198430880Y-297565641D01*
X198430875Y-297565643D01*
X198281654Y-297657684D01*
X198157684Y-297781654D01*
X198065643Y-297930875D01*
X198065641Y-297930880D01*
X198010494Y-298097302D01*
X198010493Y-298097309D01*
X198000000Y-298200013D01*
X187500499Y-298200013D01*
X187500499Y-298199998D01*
X187500498Y-298199981D01*
X187489999Y-298097203D01*
X187489998Y-298097200D01*
X187452581Y-297984284D01*
X187434814Y-297930666D01*
X187342712Y-297781344D01*
X187218656Y-297657288D01*
X187069334Y-297565186D01*
X186902797Y-297510001D01*
X186902795Y-297510000D01*
X186800010Y-297499500D01*
X183199998Y-297499500D01*
X183199981Y-297499501D01*
X183097203Y-297510000D01*
X183097200Y-297510001D01*
X182930668Y-297565185D01*
X182930663Y-297565187D01*
X182781342Y-297657289D01*
X182657289Y-297781342D01*
X182565187Y-297930663D01*
X182565185Y-297930668D01*
X182565115Y-297930880D01*
X182510001Y-298097203D01*
X182510001Y-298097204D01*
X182510000Y-298097204D01*
X182499500Y-298199983D01*
X81098320Y-298199983D01*
X81111861Y-298181347D01*
X81111861Y-298181346D01*
X81132653Y-298140540D01*
X81132653Y-298140539D01*
X81204755Y-297999031D01*
X81267990Y-297804417D01*
X81300000Y-297602317D01*
X81300000Y-297397682D01*
X81267990Y-297195582D01*
X81238449Y-297104666D01*
X81227579Y-297071213D01*
X230749500Y-297071213D01*
X230749500Y-297268058D01*
X230780290Y-297462462D01*
X230841117Y-297649665D01*
X230927948Y-297820080D01*
X230930476Y-297825041D01*
X231046172Y-297984282D01*
X231185354Y-298123464D01*
X231344595Y-298239160D01*
X231413613Y-298274326D01*
X231481960Y-298309151D01*
X231532756Y-298357126D01*
X231549551Y-298424947D01*
X231527014Y-298491082D01*
X231481960Y-298530121D01*
X231344594Y-298600112D01*
X231285964Y-298642710D01*
X231185354Y-298715808D01*
X231185352Y-298715810D01*
X231185351Y-298715810D01*
X231046174Y-298854987D01*
X231046174Y-298854988D01*
X231046172Y-298854990D01*
X230996485Y-298923377D01*
X230930476Y-299014230D01*
X230841117Y-299189606D01*
X230780290Y-299376809D01*
X230749500Y-299571213D01*
X230749500Y-299768058D01*
X230780290Y-299962462D01*
X230841117Y-300149665D01*
X230930476Y-300325041D01*
X231046172Y-300484282D01*
X231185354Y-300623464D01*
X231344595Y-300739160D01*
X231427455Y-300781379D01*
X231519970Y-300828518D01*
X231519972Y-300828518D01*
X231519975Y-300828520D01*
X231620317Y-300861123D01*
X231707173Y-300889345D01*
X231901578Y-300920136D01*
X231901583Y-300920136D01*
X232098422Y-300920136D01*
X232292826Y-300889345D01*
X232480025Y-300828520D01*
X232655405Y-300739160D01*
X232814646Y-300623464D01*
X232953828Y-300484282D01*
X233069524Y-300325041D01*
X233158884Y-300149661D01*
X233219709Y-299962462D01*
X233250500Y-299768058D01*
X233250500Y-299571213D01*
X233219709Y-299376809D01*
X233166753Y-299213829D01*
X233158884Y-299189611D01*
X233158882Y-299189608D01*
X233158882Y-299189606D01*
X233073898Y-299022816D01*
X233069524Y-299014231D01*
X232953828Y-298854990D01*
X232814646Y-298715808D01*
X232655405Y-298600112D01*
X232518038Y-298530120D01*
X232467243Y-298482147D01*
X232450448Y-298414326D01*
X232472985Y-298348191D01*
X232518039Y-298309151D01*
X232574680Y-298280291D01*
X232655405Y-298239160D01*
X232814646Y-298123464D01*
X232953828Y-297984282D01*
X233069524Y-297825041D01*
X233158884Y-297649661D01*
X233219709Y-297462462D01*
X233229969Y-297397682D01*
X233250500Y-297268058D01*
X233250500Y-297071213D01*
X233219709Y-296876809D01*
X233186329Y-296774077D01*
X233158884Y-296689611D01*
X233158882Y-296689608D01*
X233158882Y-296689606D01*
X233111743Y-296597091D01*
X233069524Y-296514231D01*
X232953828Y-296354990D01*
X232814646Y-296215808D01*
X232735025Y-296157960D01*
X232655403Y-296100110D01*
X232517488Y-296029840D01*
X232466691Y-295981866D01*
X232449896Y-295914045D01*
X232472433Y-295847910D01*
X232517488Y-295808870D01*
X232655141Y-295738733D01*
X232690125Y-295713314D01*
X232690126Y-295713314D01*
X232088585Y-295111773D01*
X232173694Y-295088969D01*
X232276306Y-295029726D01*
X232360090Y-294945942D01*
X232419333Y-294843330D01*
X232442138Y-294758221D01*
X233043678Y-295359762D01*
X233043678Y-295359761D01*
X233069095Y-295324779D01*
X233158418Y-295149471D01*
X233219221Y-294962341D01*
X233250000Y-294768018D01*
X233250000Y-294571253D01*
X233219221Y-294376930D01*
X233158418Y-294189800D01*
X233069096Y-294014494D01*
X233043678Y-293979509D01*
X233043677Y-293979509D01*
X232442137Y-294581049D01*
X232419333Y-294495942D01*
X232360090Y-294393330D01*
X232276306Y-294309546D01*
X232173694Y-294250303D01*
X232088584Y-294227497D01*
X232690125Y-293625956D01*
X232690125Y-293625955D01*
X232655145Y-293600541D01*
X232479835Y-293511217D01*
X232292705Y-293450414D01*
X232098382Y-293419636D01*
X231901618Y-293419636D01*
X231707294Y-293450414D01*
X231520161Y-293511218D01*
X231344863Y-293600535D01*
X231344859Y-293600538D01*
X231309873Y-293625956D01*
X231309872Y-293625956D01*
X231911415Y-294227497D01*
X231826306Y-294250303D01*
X231723694Y-294309546D01*
X231639910Y-294393330D01*
X231580667Y-294495942D01*
X231557861Y-294581050D01*
X230956320Y-293979508D01*
X230956320Y-293979509D01*
X230930902Y-294014495D01*
X230930899Y-294014499D01*
X230841582Y-294189797D01*
X230780778Y-294376930D01*
X230750000Y-294571253D01*
X230750000Y-294768018D01*
X230780778Y-294962341D01*
X230841581Y-295149471D01*
X230930905Y-295324781D01*
X230956319Y-295359761D01*
X230956320Y-295359761D01*
X231557861Y-294758220D01*
X231580667Y-294843330D01*
X231639910Y-294945942D01*
X231723694Y-295029726D01*
X231826306Y-295088969D01*
X231911414Y-295111773D01*
X231309873Y-295713313D01*
X231309873Y-295713314D01*
X231344858Y-295738732D01*
X231482512Y-295808870D01*
X231533308Y-295856845D01*
X231550103Y-295924665D01*
X231527566Y-295990800D01*
X231482512Y-296029840D01*
X231344594Y-296100112D01*
X231253741Y-296166121D01*
X231185354Y-296215808D01*
X231185352Y-296215810D01*
X231185351Y-296215810D01*
X231046174Y-296354987D01*
X231046174Y-296354988D01*
X231046172Y-296354990D01*
X230996485Y-296423377D01*
X230930476Y-296514230D01*
X230841117Y-296689606D01*
X230780290Y-296876809D01*
X230749500Y-297071213D01*
X81227579Y-297071213D01*
X81204755Y-297000968D01*
X81111859Y-296818650D01*
X81079474Y-296774077D01*
X81079474Y-296774076D01*
X80400000Y-297453551D01*
X80400000Y-297447339D01*
X80372741Y-297345606D01*
X80320080Y-297254394D01*
X80245606Y-297179920D01*
X80154394Y-297127259D01*
X80052661Y-297100000D01*
X80046446Y-297100000D01*
X80725922Y-296420524D01*
X80725921Y-296420523D01*
X80681359Y-296388147D01*
X80681350Y-296388141D01*
X80499031Y-296295244D01*
X80304417Y-296232009D01*
X80102317Y-296200000D01*
X79897683Y-296200000D01*
X79695582Y-296232009D01*
X79500968Y-296295244D01*
X79318644Y-296388143D01*
X79274077Y-296420523D01*
X79274077Y-296420524D01*
X79953554Y-297100000D01*
X79947339Y-297100000D01*
X79845606Y-297127259D01*
X79754394Y-297179920D01*
X79679920Y-297254394D01*
X79627259Y-297345606D01*
X79600000Y-297447339D01*
X79600000Y-297453553D01*
X78920524Y-296774077D01*
X78920523Y-296774077D01*
X78888143Y-296818644D01*
X78795244Y-297000968D01*
X78732009Y-297195582D01*
X78700000Y-297397682D01*
X77500499Y-297397682D01*
X77500499Y-296899992D01*
X77489999Y-296797203D01*
X77434814Y-296630666D01*
X77342712Y-296481344D01*
X77218656Y-296357288D01*
X77069334Y-296265186D01*
X76902797Y-296210001D01*
X76902795Y-296210000D01*
X76800010Y-296199500D01*
X75599998Y-296199500D01*
X75599981Y-296199501D01*
X75497203Y-296210000D01*
X75497200Y-296210001D01*
X75330668Y-296265185D01*
X75330663Y-296265187D01*
X75181342Y-296357289D01*
X75057289Y-296481342D01*
X74965187Y-296630663D01*
X74965185Y-296630668D01*
X74939834Y-296707173D01*
X74910001Y-296797203D01*
X74910001Y-296797204D01*
X74910000Y-296797204D01*
X74899500Y-296899983D01*
X69250248Y-296899983D01*
X69219709Y-296707173D01*
X69158882Y-296519970D01*
X69111743Y-296427455D01*
X69069524Y-296344595D01*
X68953828Y-296185354D01*
X68814646Y-296046172D01*
X68682177Y-295949927D01*
X68655403Y-295930474D01*
X68517488Y-295860204D01*
X68466691Y-295812230D01*
X68449896Y-295744409D01*
X68472433Y-295678274D01*
X68517488Y-295639234D01*
X68655141Y-295569097D01*
X68690125Y-295543678D01*
X68690126Y-295543678D01*
X68088585Y-294942137D01*
X68173694Y-294919333D01*
X68276306Y-294860090D01*
X68360090Y-294776306D01*
X68419333Y-294673694D01*
X68442137Y-294588585D01*
X69043678Y-295190126D01*
X69043678Y-295190125D01*
X69069095Y-295155143D01*
X69158418Y-294979835D01*
X69219221Y-294792705D01*
X69250000Y-294598382D01*
X69250000Y-294401617D01*
X69219221Y-294207294D01*
X69158418Y-294020164D01*
X69069096Y-293844858D01*
X69043678Y-293809873D01*
X69043677Y-293809873D01*
X68442137Y-294411413D01*
X68419333Y-294326306D01*
X68360090Y-294223694D01*
X68276306Y-294139910D01*
X68173694Y-294080667D01*
X68088584Y-294057861D01*
X68560912Y-293585534D01*
X68690125Y-293456320D01*
X68690125Y-293456319D01*
X68655145Y-293430905D01*
X68479835Y-293341581D01*
X68292705Y-293280778D01*
X68098382Y-293250000D01*
X67901618Y-293250000D01*
X67707294Y-293280778D01*
X67520161Y-293341582D01*
X67344863Y-293430899D01*
X67344859Y-293430902D01*
X67309873Y-293456320D01*
X67309872Y-293456320D01*
X67911415Y-294057861D01*
X67826306Y-294080667D01*
X67723694Y-294139910D01*
X67639910Y-294223694D01*
X67580667Y-294326306D01*
X67557861Y-294411414D01*
X66956320Y-293809872D01*
X66956320Y-293809873D01*
X66930902Y-293844859D01*
X66930899Y-293844863D01*
X66841582Y-294020161D01*
X66780778Y-294207294D01*
X66750000Y-294401617D01*
X66750000Y-294598382D01*
X66780778Y-294792705D01*
X66841581Y-294979835D01*
X66930905Y-295155145D01*
X66956319Y-295190125D01*
X66956320Y-295190125D01*
X67557861Y-294588584D01*
X67580667Y-294673694D01*
X67639910Y-294776306D01*
X67723694Y-294860090D01*
X67826306Y-294919333D01*
X67911414Y-294942137D01*
X67309873Y-295543677D01*
X67309873Y-295543678D01*
X67344858Y-295569096D01*
X67482512Y-295639234D01*
X67533308Y-295687209D01*
X67550103Y-295755029D01*
X67527566Y-295821164D01*
X67482512Y-295860204D01*
X67344594Y-295930476D01*
X67273863Y-295981866D01*
X67185354Y-296046172D01*
X67185352Y-296046174D01*
X67185351Y-296046174D01*
X67046174Y-296185351D01*
X67046174Y-296185352D01*
X67046172Y-296185354D01*
X67012275Y-296232009D01*
X66930476Y-296344594D01*
X66841117Y-296519970D01*
X66780290Y-296707173D01*
X66749500Y-296901577D01*
X27500500Y-296901577D01*
X27500500Y-291215513D01*
X74799500Y-291215513D01*
X74799500Y-291404486D01*
X74829059Y-291591118D01*
X74887454Y-291770836D01*
X74908608Y-291812352D01*
X74973240Y-291939199D01*
X75084310Y-292092073D01*
X75217927Y-292225690D01*
X75370801Y-292336760D01*
X75450347Y-292377290D01*
X75539163Y-292422545D01*
X75539165Y-292422545D01*
X75539168Y-292422547D01*
X75635497Y-292453846D01*
X75718881Y-292480940D01*
X75905514Y-292510500D01*
X75905519Y-292510500D01*
X76094486Y-292510500D01*
X76281118Y-292480940D01*
X76460832Y-292422547D01*
X76629199Y-292336760D01*
X76782073Y-292225690D01*
X76915690Y-292092073D01*
X77026760Y-291939199D01*
X77112547Y-291770832D01*
X77170940Y-291591118D01*
X77175869Y-291560000D01*
X77200500Y-291404486D01*
X77200500Y-291215513D01*
X77170940Y-291028881D01*
X77112545Y-290849163D01*
X77067290Y-290760347D01*
X77026760Y-290680801D01*
X76915690Y-290527927D01*
X76782073Y-290394310D01*
X76666007Y-290309983D01*
X79769500Y-290309983D01*
X79769500Y-292310001D01*
X79769501Y-292310018D01*
X79780000Y-292412796D01*
X79780001Y-292412799D01*
X79827750Y-292556894D01*
X79835186Y-292579334D01*
X79927288Y-292728656D01*
X80051344Y-292852712D01*
X80200666Y-292944814D01*
X80367203Y-292999999D01*
X80469991Y-293010500D01*
X81670008Y-293010499D01*
X81772797Y-292999999D01*
X81939334Y-292944814D01*
X82088656Y-292852712D01*
X82212712Y-292728656D01*
X82304814Y-292579334D01*
X82331955Y-292497427D01*
X82371726Y-292439984D01*
X82436242Y-292413161D01*
X82505018Y-292425476D01*
X82549977Y-292463547D01*
X82584091Y-292510500D01*
X82618034Y-292557219D01*
X82762786Y-292701971D01*
X82917749Y-292814556D01*
X82928390Y-292822287D01*
X83044607Y-292881503D01*
X83110776Y-292915218D01*
X83110778Y-292915218D01*
X83110781Y-292915220D01*
X83201856Y-292944812D01*
X83305465Y-292978477D01*
X83406557Y-292994488D01*
X83507648Y-293010500D01*
X83507649Y-293010500D01*
X83712351Y-293010500D01*
X83712352Y-293010500D01*
X83914534Y-292978477D01*
X84109219Y-292915220D01*
X84291610Y-292822287D01*
X84420482Y-292728657D01*
X84457213Y-292701971D01*
X84457215Y-292701968D01*
X84457219Y-292701966D01*
X84601966Y-292557219D01*
X84601968Y-292557215D01*
X84601971Y-292557213D01*
X84722284Y-292391614D01*
X84722283Y-292391614D01*
X84722287Y-292391610D01*
X84769795Y-292298369D01*
X84817770Y-292247574D01*
X84885591Y-292230779D01*
X84951725Y-292253316D01*
X84990765Y-292298370D01*
X85038140Y-292391349D01*
X85158417Y-292556894D01*
X85158417Y-292556895D01*
X85303104Y-292701582D01*
X85468650Y-292821859D01*
X85650968Y-292914754D01*
X85845578Y-292977988D01*
X85900000Y-292986607D01*
X85900000Y-291625686D01*
X85904394Y-291630080D01*
X85995606Y-291682741D01*
X86097339Y-291710000D01*
X86202661Y-291710000D01*
X86304394Y-291682741D01*
X86395606Y-291630080D01*
X86400000Y-291625686D01*
X86400000Y-292986606D01*
X86454421Y-292977988D01*
X86649031Y-292914754D01*
X86831349Y-292821859D01*
X86996894Y-292701582D01*
X86996895Y-292701582D01*
X87141582Y-292556895D01*
X87141582Y-292556894D01*
X87261859Y-292391349D01*
X87309515Y-292297820D01*
X87357489Y-292247024D01*
X87425310Y-292230229D01*
X87491445Y-292252766D01*
X87530485Y-292297820D01*
X87578140Y-292391349D01*
X87698417Y-292556894D01*
X87698417Y-292556895D01*
X87843104Y-292701582D01*
X88008650Y-292821859D01*
X88190968Y-292914754D01*
X88385578Y-292977988D01*
X88440000Y-292986607D01*
X88440000Y-291625686D01*
X88444394Y-291630080D01*
X88535606Y-291682741D01*
X88637339Y-291710000D01*
X88742661Y-291710000D01*
X88844394Y-291682741D01*
X88935606Y-291630080D01*
X88940000Y-291625686D01*
X88940000Y-292986607D01*
X88994421Y-292977988D01*
X89189031Y-292914754D01*
X89371349Y-292821859D01*
X89536894Y-292701582D01*
X89536895Y-292701582D01*
X89681582Y-292556895D01*
X89681582Y-292556894D01*
X89801859Y-292391349D01*
X89849515Y-292297820D01*
X89897489Y-292247024D01*
X89965310Y-292230229D01*
X90031445Y-292252766D01*
X90070485Y-292297820D01*
X90118140Y-292391349D01*
X90238417Y-292556894D01*
X90238417Y-292556895D01*
X90383104Y-292701582D01*
X90548650Y-292821859D01*
X90730968Y-292914754D01*
X90925578Y-292977988D01*
X90980000Y-292986607D01*
X90980000Y-291625686D01*
X90984394Y-291630080D01*
X91075606Y-291682741D01*
X91177339Y-291710000D01*
X91282661Y-291710000D01*
X91384394Y-291682741D01*
X91475606Y-291630080D01*
X91480000Y-291625686D01*
X91480000Y-292986607D01*
X91534421Y-292977988D01*
X91729031Y-292914754D01*
X91911349Y-292821859D01*
X92076894Y-292701582D01*
X92076895Y-292701582D01*
X92221582Y-292556895D01*
X92221582Y-292556894D01*
X92341859Y-292391349D01*
X92389515Y-292297820D01*
X92437489Y-292247024D01*
X92505310Y-292230229D01*
X92571445Y-292252766D01*
X92610485Y-292297820D01*
X92658140Y-292391349D01*
X92778417Y-292556894D01*
X92778417Y-292556895D01*
X92923104Y-292701582D01*
X93088650Y-292821859D01*
X93270968Y-292914754D01*
X93465578Y-292977988D01*
X93520000Y-292986607D01*
X93520000Y-291625686D01*
X93524394Y-291630080D01*
X93615606Y-291682741D01*
X93717339Y-291710000D01*
X93822661Y-291710000D01*
X93924394Y-291682741D01*
X94015606Y-291630080D01*
X94020000Y-291625686D01*
X94020000Y-292986607D01*
X94074421Y-292977988D01*
X94269031Y-292914754D01*
X94451349Y-292821859D01*
X94616894Y-292701582D01*
X94616895Y-292701582D01*
X94761582Y-292556895D01*
X94761582Y-292556894D01*
X94881859Y-292391349D01*
X94929515Y-292297820D01*
X94977489Y-292247024D01*
X95045310Y-292230229D01*
X95111445Y-292252766D01*
X95150485Y-292297820D01*
X95198140Y-292391349D01*
X95318417Y-292556894D01*
X95318417Y-292556895D01*
X95463104Y-292701582D01*
X95628650Y-292821859D01*
X95810968Y-292914754D01*
X96005578Y-292977988D01*
X96060000Y-292986607D01*
X96060000Y-291625686D01*
X96064394Y-291630080D01*
X96155606Y-291682741D01*
X96257339Y-291710000D01*
X96362661Y-291710000D01*
X96464394Y-291682741D01*
X96555606Y-291630080D01*
X96560000Y-291625686D01*
X96560000Y-292986606D01*
X96614421Y-292977988D01*
X96809031Y-292914754D01*
X96991349Y-292821859D01*
X97156894Y-292701582D01*
X97156895Y-292701582D01*
X97301582Y-292556895D01*
X97301582Y-292556894D01*
X97421859Y-292391349D01*
X97469515Y-292297820D01*
X97517489Y-292247024D01*
X97585310Y-292230229D01*
X97651445Y-292252766D01*
X97690485Y-292297820D01*
X97738140Y-292391349D01*
X97858417Y-292556894D01*
X97858417Y-292556895D01*
X98003104Y-292701582D01*
X98168650Y-292821859D01*
X98350968Y-292914754D01*
X98545578Y-292977988D01*
X98600000Y-292986607D01*
X98600000Y-291625686D01*
X98604394Y-291630080D01*
X98695606Y-291682741D01*
X98797339Y-291710000D01*
X98902661Y-291710000D01*
X99004394Y-291682741D01*
X99095606Y-291630080D01*
X99100000Y-291625686D01*
X99100000Y-292986606D01*
X99154421Y-292977988D01*
X99349031Y-292914754D01*
X99531349Y-292821859D01*
X99696894Y-292701582D01*
X99696895Y-292701582D01*
X99841582Y-292556895D01*
X99841582Y-292556894D01*
X99961859Y-292391349D01*
X100009515Y-292297820D01*
X100057489Y-292247024D01*
X100125310Y-292230229D01*
X100191445Y-292252766D01*
X100230485Y-292297820D01*
X100278140Y-292391349D01*
X100398417Y-292556894D01*
X100398417Y-292556895D01*
X100543104Y-292701582D01*
X100708650Y-292821859D01*
X100890968Y-292914754D01*
X101085578Y-292977988D01*
X101140000Y-292986607D01*
X101140000Y-291625686D01*
X101144394Y-291630080D01*
X101235606Y-291682741D01*
X101337339Y-291710000D01*
X101442661Y-291710000D01*
X101544394Y-291682741D01*
X101635606Y-291630080D01*
X101640000Y-291625686D01*
X101640000Y-292986606D01*
X101694421Y-292977988D01*
X101889031Y-292914754D01*
X102071349Y-292821859D01*
X102236894Y-292701582D01*
X102236895Y-292701582D01*
X102381582Y-292556895D01*
X102381582Y-292556894D01*
X102501859Y-292391349D01*
X102549515Y-292297820D01*
X102597489Y-292247024D01*
X102665310Y-292230229D01*
X102731445Y-292252766D01*
X102770485Y-292297820D01*
X102818140Y-292391349D01*
X102938417Y-292556894D01*
X102938417Y-292556895D01*
X103083104Y-292701582D01*
X103248650Y-292821859D01*
X103430968Y-292914754D01*
X103625578Y-292977988D01*
X103680000Y-292986607D01*
X103680000Y-291625686D01*
X103684394Y-291630080D01*
X103775606Y-291682741D01*
X103877339Y-291710000D01*
X103982661Y-291710000D01*
X104084394Y-291682741D01*
X104175606Y-291630080D01*
X104180000Y-291625686D01*
X104180000Y-292986606D01*
X104234421Y-292977988D01*
X104429031Y-292914754D01*
X104611349Y-292821859D01*
X104776894Y-292701582D01*
X104776895Y-292701582D01*
X104921582Y-292556895D01*
X104921582Y-292556894D01*
X105041859Y-292391349D01*
X105134755Y-292209031D01*
X105197990Y-292014417D01*
X105230000Y-291812317D01*
X105230000Y-291560000D01*
X104245686Y-291560000D01*
X104250080Y-291555606D01*
X104302741Y-291464394D01*
X104330000Y-291362661D01*
X104330000Y-291257339D01*
X104302741Y-291155606D01*
X104250080Y-291064394D01*
X104245686Y-291060000D01*
X105230000Y-291060000D01*
X105230000Y-290807682D01*
X105197990Y-290605582D01*
X105134755Y-290410968D01*
X105041859Y-290228650D01*
X104952095Y-290105101D01*
X104921582Y-290063105D01*
X104921582Y-290063104D01*
X104776895Y-289918417D01*
X104611349Y-289798140D01*
X104429029Y-289705244D01*
X104234413Y-289642009D01*
X104180000Y-289633390D01*
X104180000Y-290994314D01*
X104175606Y-290989920D01*
X104084394Y-290937259D01*
X103982661Y-290910000D01*
X103877339Y-290910000D01*
X103775606Y-290937259D01*
X103684394Y-290989920D01*
X103680000Y-290994314D01*
X103680000Y-289633390D01*
X103625586Y-289642009D01*
X103430970Y-289705244D01*
X103248650Y-289798140D01*
X103083105Y-289918417D01*
X103083104Y-289918417D01*
X102938417Y-290063104D01*
X102938417Y-290063105D01*
X102818140Y-290228650D01*
X102770485Y-290322179D01*
X102722510Y-290372975D01*
X102654689Y-290389770D01*
X102588554Y-290367232D01*
X102549515Y-290322179D01*
X102501859Y-290228650D01*
X102381582Y-290063105D01*
X102381582Y-290063104D01*
X102236895Y-289918417D01*
X102071349Y-289798140D01*
X101889029Y-289705244D01*
X101694413Y-289642009D01*
X101640000Y-289633390D01*
X101640000Y-290994314D01*
X101635606Y-290989920D01*
X101544394Y-290937259D01*
X101442661Y-290910000D01*
X101337339Y-290910000D01*
X101235606Y-290937259D01*
X101144394Y-290989920D01*
X101140000Y-290994314D01*
X101140000Y-289633390D01*
X101085586Y-289642009D01*
X100890970Y-289705244D01*
X100708650Y-289798140D01*
X100543105Y-289918417D01*
X100543104Y-289918417D01*
X100398417Y-290063104D01*
X100398417Y-290063105D01*
X100278140Y-290228650D01*
X100230485Y-290322179D01*
X100182510Y-290372975D01*
X100114689Y-290389770D01*
X100048554Y-290367232D01*
X100009515Y-290322179D01*
X99961859Y-290228650D01*
X99841582Y-290063105D01*
X99841582Y-290063104D01*
X99696895Y-289918417D01*
X99531349Y-289798140D01*
X99349029Y-289705244D01*
X99154413Y-289642009D01*
X99100000Y-289633390D01*
X99100000Y-290994314D01*
X99095606Y-290989920D01*
X99004394Y-290937259D01*
X98902661Y-290910000D01*
X98797339Y-290910000D01*
X98695606Y-290937259D01*
X98604394Y-290989920D01*
X98600000Y-290994314D01*
X98600000Y-289633390D01*
X98545586Y-289642009D01*
X98350970Y-289705244D01*
X98168650Y-289798140D01*
X98003105Y-289918417D01*
X98003104Y-289918417D01*
X97858417Y-290063104D01*
X97858417Y-290063105D01*
X97738140Y-290228650D01*
X97690485Y-290322179D01*
X97642510Y-290372975D01*
X97574689Y-290389770D01*
X97508554Y-290367232D01*
X97469515Y-290322179D01*
X97421859Y-290228650D01*
X97301582Y-290063105D01*
X97301582Y-290063104D01*
X97156895Y-289918417D01*
X96991349Y-289798140D01*
X96809029Y-289705244D01*
X96614413Y-289642009D01*
X96560000Y-289633390D01*
X96560000Y-290994314D01*
X96555606Y-290989920D01*
X96464394Y-290937259D01*
X96362661Y-290910000D01*
X96257339Y-290910000D01*
X96155606Y-290937259D01*
X96064394Y-290989920D01*
X96060000Y-290994314D01*
X96060000Y-289633390D01*
X96005586Y-289642009D01*
X95810970Y-289705244D01*
X95628650Y-289798140D01*
X95463105Y-289918417D01*
X95463104Y-289918417D01*
X95318417Y-290063104D01*
X95318417Y-290063105D01*
X95198140Y-290228650D01*
X95150485Y-290322179D01*
X95102510Y-290372975D01*
X95034689Y-290389770D01*
X94968554Y-290367232D01*
X94929515Y-290322179D01*
X94881859Y-290228650D01*
X94761582Y-290063105D01*
X94761582Y-290063104D01*
X94616895Y-289918417D01*
X94451349Y-289798140D01*
X94269029Y-289705244D01*
X94074413Y-289642009D01*
X94020000Y-289633390D01*
X94020000Y-290994314D01*
X94015606Y-290989920D01*
X93924394Y-290937259D01*
X93822661Y-290910000D01*
X93717339Y-290910000D01*
X93615606Y-290937259D01*
X93524394Y-290989920D01*
X93520000Y-290994314D01*
X93520000Y-289633390D01*
X93465586Y-289642009D01*
X93270970Y-289705244D01*
X93088650Y-289798140D01*
X92923105Y-289918417D01*
X92923104Y-289918417D01*
X92778417Y-290063104D01*
X92778417Y-290063105D01*
X92658140Y-290228650D01*
X92610485Y-290322179D01*
X92562510Y-290372975D01*
X92494689Y-290389770D01*
X92428554Y-290367232D01*
X92389515Y-290322179D01*
X92341859Y-290228650D01*
X92221582Y-290063105D01*
X92221582Y-290063104D01*
X92076895Y-289918417D01*
X91911349Y-289798140D01*
X91729029Y-289705244D01*
X91534413Y-289642009D01*
X91480000Y-289633390D01*
X91480000Y-290994314D01*
X91475606Y-290989920D01*
X91384394Y-290937259D01*
X91282661Y-290910000D01*
X91177339Y-290910000D01*
X91075606Y-290937259D01*
X90984394Y-290989920D01*
X90980000Y-290994314D01*
X90980000Y-289633390D01*
X90925586Y-289642009D01*
X90730970Y-289705244D01*
X90548650Y-289798140D01*
X90383105Y-289918417D01*
X90383104Y-289918417D01*
X90238417Y-290063104D01*
X90238417Y-290063105D01*
X90118140Y-290228650D01*
X90070485Y-290322179D01*
X90022510Y-290372975D01*
X89954689Y-290389770D01*
X89888554Y-290367232D01*
X89849515Y-290322179D01*
X89801859Y-290228650D01*
X89681582Y-290063105D01*
X89681582Y-290063104D01*
X89536895Y-289918417D01*
X89371349Y-289798140D01*
X89189029Y-289705244D01*
X88994413Y-289642009D01*
X88940000Y-289633390D01*
X88940000Y-290994314D01*
X88935606Y-290989920D01*
X88844394Y-290937259D01*
X88742661Y-290910000D01*
X88637339Y-290910000D01*
X88535606Y-290937259D01*
X88444394Y-290989920D01*
X88440000Y-290994314D01*
X88440000Y-289633390D01*
X88385586Y-289642009D01*
X88190970Y-289705244D01*
X88008650Y-289798140D01*
X87843105Y-289918417D01*
X87843104Y-289918417D01*
X87698417Y-290063104D01*
X87698417Y-290063105D01*
X87578140Y-290228650D01*
X87530485Y-290322179D01*
X87482510Y-290372975D01*
X87414689Y-290389770D01*
X87348554Y-290367232D01*
X87309515Y-290322179D01*
X87261859Y-290228650D01*
X87141582Y-290063105D01*
X87141582Y-290063104D01*
X86996895Y-289918417D01*
X86831349Y-289798140D01*
X86649029Y-289705244D01*
X86454413Y-289642009D01*
X86400000Y-289633390D01*
X86400000Y-290994314D01*
X86395606Y-290989920D01*
X86304394Y-290937259D01*
X86202661Y-290910000D01*
X86097339Y-290910000D01*
X85995606Y-290937259D01*
X85904394Y-290989920D01*
X85900000Y-290994314D01*
X85900000Y-289633390D01*
X85845586Y-289642009D01*
X85650970Y-289705244D01*
X85468650Y-289798140D01*
X85303105Y-289918417D01*
X85303104Y-289918417D01*
X85158417Y-290063104D01*
X85158417Y-290063105D01*
X85038140Y-290228650D01*
X84990765Y-290321629D01*
X84942790Y-290372425D01*
X84874969Y-290389220D01*
X84808834Y-290366682D01*
X84769795Y-290321629D01*
X84758774Y-290300000D01*
X84722287Y-290228390D01*
X84670021Y-290156451D01*
X84601971Y-290062786D01*
X84457213Y-289918028D01*
X84291613Y-289797715D01*
X84291612Y-289797714D01*
X84291610Y-289797713D01*
X84231898Y-289767288D01*
X84109223Y-289704781D01*
X83914534Y-289641522D01*
X83739995Y-289613878D01*
X83712352Y-289609500D01*
X83507648Y-289609500D01*
X83483329Y-289613351D01*
X83305465Y-289641522D01*
X83110776Y-289704781D01*
X82928386Y-289797715D01*
X82762786Y-289918028D01*
X82618032Y-290062782D01*
X82618028Y-290062787D01*
X82549978Y-290156451D01*
X82494648Y-290199117D01*
X82425035Y-290205096D01*
X82363240Y-290172490D01*
X82331954Y-290122570D01*
X82327623Y-290109500D01*
X82304814Y-290040666D01*
X82212712Y-289891344D01*
X82088656Y-289767288D01*
X81949342Y-289681359D01*
X81939336Y-289675187D01*
X81939331Y-289675185D01*
X81937862Y-289674698D01*
X81772797Y-289620001D01*
X81772795Y-289620000D01*
X81670010Y-289609500D01*
X80469998Y-289609500D01*
X80469981Y-289609501D01*
X80367203Y-289620000D01*
X80367200Y-289620001D01*
X80200668Y-289675185D01*
X80200663Y-289675187D01*
X80051342Y-289767289D01*
X79927289Y-289891342D01*
X79835187Y-290040663D01*
X79835185Y-290040668D01*
X79827872Y-290062738D01*
X79780001Y-290207203D01*
X79780001Y-290207204D01*
X79780000Y-290207204D01*
X79769500Y-290309983D01*
X76666007Y-290309983D01*
X76629199Y-290283240D01*
X76599269Y-290267990D01*
X76460836Y-290197454D01*
X76281118Y-290139059D01*
X76094486Y-290109500D01*
X76094481Y-290109500D01*
X75905519Y-290109500D01*
X75905514Y-290109500D01*
X75718881Y-290139059D01*
X75539163Y-290197454D01*
X75370800Y-290283240D01*
X75333980Y-290309992D01*
X75217927Y-290394310D01*
X75217925Y-290394312D01*
X75217924Y-290394312D01*
X75084312Y-290527924D01*
X75084312Y-290527925D01*
X75084310Y-290527927D01*
X75036610Y-290593579D01*
X74973240Y-290680800D01*
X74887454Y-290849163D01*
X74829059Y-291028881D01*
X74799500Y-291215513D01*
X27500500Y-291215513D01*
X27500500Y-288897682D01*
X110700000Y-288897682D01*
X110700000Y-289102317D01*
X110732009Y-289304417D01*
X110795244Y-289499031D01*
X110888141Y-289681350D01*
X110888147Y-289681359D01*
X110920523Y-289725921D01*
X110920524Y-289725922D01*
X111600000Y-289046446D01*
X111600000Y-289052661D01*
X111627259Y-289154394D01*
X111679920Y-289245606D01*
X111754394Y-289320080D01*
X111845606Y-289372741D01*
X111947339Y-289400000D01*
X111953553Y-289400000D01*
X111274076Y-290079474D01*
X111318650Y-290111859D01*
X111500968Y-290204755D01*
X111695582Y-290267990D01*
X111897683Y-290300000D01*
X112102317Y-290300000D01*
X112304417Y-290267990D01*
X112499031Y-290204755D01*
X112681349Y-290111859D01*
X112725921Y-290079474D01*
X112046447Y-289400000D01*
X112052661Y-289400000D01*
X112154394Y-289372741D01*
X112245606Y-289320080D01*
X112320080Y-289245606D01*
X112372741Y-289154394D01*
X112400000Y-289052661D01*
X112400000Y-289046447D01*
X113079474Y-289725921D01*
X113111859Y-289681349D01*
X113204755Y-289499031D01*
X113267990Y-289304417D01*
X113300000Y-289102317D01*
X113300000Y-288897682D01*
X113274083Y-288734051D01*
X113271653Y-288718711D01*
X118059500Y-288718711D01*
X118059500Y-288961288D01*
X118091161Y-289201785D01*
X118153947Y-289436104D01*
X118230120Y-289620001D01*
X118246776Y-289660212D01*
X118368064Y-289870289D01*
X118368066Y-289870292D01*
X118368067Y-289870293D01*
X118515733Y-290062736D01*
X118515739Y-290062743D01*
X118687256Y-290234260D01*
X118687263Y-290234266D01*
X118772930Y-290300000D01*
X118879711Y-290381936D01*
X119089788Y-290503224D01*
X119313900Y-290596054D01*
X119548211Y-290658838D01*
X119728586Y-290682584D01*
X119788711Y-290690500D01*
X119788712Y-290690500D01*
X120031289Y-290690500D01*
X120079388Y-290684167D01*
X120271789Y-290658838D01*
X120506100Y-290596054D01*
X120730212Y-290503224D01*
X120940289Y-290381936D01*
X121132738Y-290234265D01*
X121304265Y-290062738D01*
X121451936Y-289870289D01*
X121573224Y-289660212D01*
X121666054Y-289436100D01*
X121728838Y-289201789D01*
X121760500Y-288961288D01*
X121760500Y-288718712D01*
X121757284Y-288694287D01*
X121748460Y-288627259D01*
X121728838Y-288478211D01*
X121666054Y-288243900D01*
X121573224Y-288019788D01*
X121451936Y-287809711D01*
X121304265Y-287617262D01*
X121304260Y-287617256D01*
X121141661Y-287454657D01*
X122254500Y-287454657D01*
X122254500Y-287685342D01*
X122290584Y-287913172D01*
X122361869Y-288132561D01*
X122433975Y-288274076D01*
X122466592Y-288338090D01*
X122602179Y-288524709D01*
X122765291Y-288687821D01*
X122951910Y-288823408D01*
X123049016Y-288872886D01*
X123157438Y-288928130D01*
X123157440Y-288928130D01*
X123157443Y-288928132D01*
X123216556Y-288947339D01*
X123376827Y-288999415D01*
X123604658Y-289035500D01*
X123604663Y-289035500D01*
X123835342Y-289035500D01*
X124063172Y-288999415D01*
X124126630Y-288978796D01*
X124282557Y-288928132D01*
X124488090Y-288823408D01*
X124674709Y-288687821D01*
X124837821Y-288524709D01*
X124889994Y-288452898D01*
X124945320Y-288410236D01*
X125014933Y-288404257D01*
X125028421Y-288411374D01*
X125062398Y-288414048D01*
X125822352Y-287654094D01*
X125845792Y-287741571D01*
X125904311Y-287842930D01*
X125987070Y-287925689D01*
X126088429Y-287984208D01*
X126175905Y-288007647D01*
X125415950Y-288767600D01*
X125492172Y-288822979D01*
X125697632Y-288927667D01*
X125916942Y-288998926D01*
X126144697Y-289035000D01*
X126375303Y-289035000D01*
X126603056Y-288998926D01*
X126603059Y-288998926D01*
X126822367Y-288927667D01*
X127027827Y-288822979D01*
X127104047Y-288767600D01*
X126344094Y-288007647D01*
X126431571Y-287984208D01*
X126532930Y-287925689D01*
X126615689Y-287842930D01*
X126674208Y-287741571D01*
X126697647Y-287654094D01*
X127457600Y-288414047D01*
X127482270Y-288412106D01*
X127484693Y-288410238D01*
X127554306Y-288404254D01*
X127616103Y-288436856D01*
X127630004Y-288452896D01*
X127682179Y-288524709D01*
X127845291Y-288687821D01*
X128031910Y-288823408D01*
X128129016Y-288872886D01*
X128237438Y-288928130D01*
X128237440Y-288928130D01*
X128237443Y-288928132D01*
X128296556Y-288947339D01*
X128456827Y-288999415D01*
X128684658Y-289035500D01*
X128684663Y-289035500D01*
X128915342Y-289035500D01*
X129143172Y-288999415D01*
X129206630Y-288978796D01*
X129362557Y-288928132D01*
X129568090Y-288823408D01*
X129754709Y-288687821D01*
X129917821Y-288524709D01*
X129969683Y-288453327D01*
X130025012Y-288410663D01*
X130094626Y-288404684D01*
X130156421Y-288437290D01*
X130170315Y-288453324D01*
X130222179Y-288524709D01*
X130385291Y-288687821D01*
X130571910Y-288823408D01*
X130669016Y-288872886D01*
X130777438Y-288928130D01*
X130777440Y-288928130D01*
X130777443Y-288928132D01*
X130836556Y-288947339D01*
X130996827Y-288999415D01*
X131224658Y-289035500D01*
X131224663Y-289035500D01*
X131455342Y-289035500D01*
X131683172Y-288999415D01*
X131746630Y-288978796D01*
X131902557Y-288928132D01*
X132108090Y-288823408D01*
X132294709Y-288687821D01*
X132457821Y-288524709D01*
X132509683Y-288453327D01*
X132565012Y-288410663D01*
X132634626Y-288404684D01*
X132696421Y-288437290D01*
X132710315Y-288453324D01*
X132762179Y-288524709D01*
X132925291Y-288687821D01*
X133111910Y-288823408D01*
X133209016Y-288872886D01*
X133317438Y-288928130D01*
X133317440Y-288928130D01*
X133317443Y-288928132D01*
X133376556Y-288947339D01*
X133536827Y-288999415D01*
X133764658Y-289035500D01*
X133764663Y-289035500D01*
X133995342Y-289035500D01*
X134223172Y-288999415D01*
X134286630Y-288978796D01*
X134442557Y-288928132D01*
X134648090Y-288823408D01*
X134834709Y-288687821D01*
X134997821Y-288524709D01*
X135049994Y-288452898D01*
X135105320Y-288410236D01*
X135174933Y-288404257D01*
X135188421Y-288411374D01*
X135222398Y-288414048D01*
X135982352Y-287654093D01*
X136005792Y-287741571D01*
X136064311Y-287842930D01*
X136147070Y-287925689D01*
X136248429Y-287984208D01*
X136335905Y-288007647D01*
X135575950Y-288767600D01*
X135652172Y-288822979D01*
X135857632Y-288927667D01*
X136076942Y-288998926D01*
X136304697Y-289035000D01*
X136535303Y-289035000D01*
X136763056Y-288998926D01*
X136763059Y-288998926D01*
X136982367Y-288927667D01*
X137187827Y-288822979D01*
X137264047Y-288767600D01*
X136504094Y-288007647D01*
X136591571Y-287984208D01*
X136692930Y-287925689D01*
X136775689Y-287842930D01*
X136834208Y-287741571D01*
X136857647Y-287654095D01*
X137617600Y-288414048D01*
X137642270Y-288412106D01*
X137644693Y-288410238D01*
X137714306Y-288404254D01*
X137776103Y-288436856D01*
X137790004Y-288452896D01*
X137842179Y-288524709D01*
X138005291Y-288687821D01*
X138191910Y-288823408D01*
X138289016Y-288872886D01*
X138397438Y-288928130D01*
X138397440Y-288928130D01*
X138397443Y-288928132D01*
X138456556Y-288947339D01*
X138616827Y-288999415D01*
X138844658Y-289035500D01*
X138844663Y-289035500D01*
X139075342Y-289035500D01*
X139303172Y-288999415D01*
X139366630Y-288978796D01*
X139522557Y-288928132D01*
X139728090Y-288823408D01*
X139914709Y-288687821D01*
X140077821Y-288524709D01*
X140129683Y-288453327D01*
X140185012Y-288410663D01*
X140254626Y-288404684D01*
X140316421Y-288437290D01*
X140330315Y-288453324D01*
X140382179Y-288524709D01*
X140545291Y-288687821D01*
X140731910Y-288823408D01*
X140829016Y-288872886D01*
X140937438Y-288928130D01*
X140937440Y-288928130D01*
X140937443Y-288928132D01*
X140996556Y-288947339D01*
X141156827Y-288999415D01*
X141384658Y-289035500D01*
X141384663Y-289035500D01*
X141615342Y-289035500D01*
X141843172Y-288999415D01*
X141906630Y-288978796D01*
X142062557Y-288928132D01*
X142268090Y-288823408D01*
X142454709Y-288687821D01*
X142617821Y-288524709D01*
X142669683Y-288453327D01*
X142725012Y-288410663D01*
X142794626Y-288404684D01*
X142856421Y-288437290D01*
X142870315Y-288453324D01*
X142922179Y-288524709D01*
X143085291Y-288687821D01*
X143271910Y-288823408D01*
X143369016Y-288872886D01*
X143477438Y-288928130D01*
X143477440Y-288928130D01*
X143477443Y-288928132D01*
X143536556Y-288947339D01*
X143696827Y-288999415D01*
X143924658Y-289035500D01*
X143924663Y-289035500D01*
X144155342Y-289035500D01*
X144383172Y-288999415D01*
X144446630Y-288978796D01*
X144602557Y-288928132D01*
X144808090Y-288823408D01*
X144994709Y-288687821D01*
X145157821Y-288524709D01*
X145209683Y-288453327D01*
X145265012Y-288410663D01*
X145334626Y-288404684D01*
X145396421Y-288437290D01*
X145410315Y-288453324D01*
X145462179Y-288524709D01*
X145625291Y-288687821D01*
X145811910Y-288823408D01*
X145909016Y-288872886D01*
X146017438Y-288928130D01*
X146017440Y-288928130D01*
X146017443Y-288928132D01*
X146076556Y-288947339D01*
X146236827Y-288999415D01*
X146464658Y-289035500D01*
X146464663Y-289035500D01*
X146695342Y-289035500D01*
X146923172Y-288999415D01*
X146986630Y-288978796D01*
X147142557Y-288928132D01*
X147348090Y-288823408D01*
X147534709Y-288687821D01*
X147697821Y-288524709D01*
X147749683Y-288453327D01*
X147805012Y-288410663D01*
X147874626Y-288404684D01*
X147936421Y-288437290D01*
X147950315Y-288453324D01*
X148002179Y-288524709D01*
X148165291Y-288687821D01*
X148351910Y-288823408D01*
X148449016Y-288872886D01*
X148557438Y-288928130D01*
X148557440Y-288928130D01*
X148557443Y-288928132D01*
X148616556Y-288947339D01*
X148776827Y-288999415D01*
X149004658Y-289035500D01*
X149004663Y-289035500D01*
X149235342Y-289035500D01*
X149463172Y-288999415D01*
X149526630Y-288978796D01*
X149682557Y-288928132D01*
X149888090Y-288823408D01*
X150074709Y-288687821D01*
X150237821Y-288524709D01*
X150289683Y-288453327D01*
X150345012Y-288410663D01*
X150414626Y-288404684D01*
X150476421Y-288437290D01*
X150490315Y-288453324D01*
X150542179Y-288524709D01*
X150705291Y-288687821D01*
X150891910Y-288823408D01*
X150989016Y-288872886D01*
X151097438Y-288928130D01*
X151097440Y-288928130D01*
X151097443Y-288928132D01*
X151156556Y-288947339D01*
X151316827Y-288999415D01*
X151544658Y-289035500D01*
X151544663Y-289035500D01*
X151775342Y-289035500D01*
X152003172Y-288999415D01*
X152066630Y-288978796D01*
X152222557Y-288928132D01*
X152428090Y-288823408D01*
X152614709Y-288687821D01*
X152777821Y-288524709D01*
X152829683Y-288453327D01*
X152885012Y-288410663D01*
X152954626Y-288404684D01*
X153016421Y-288437290D01*
X153030315Y-288453324D01*
X153082179Y-288524709D01*
X153245291Y-288687821D01*
X153431910Y-288823408D01*
X153529016Y-288872886D01*
X153637438Y-288928130D01*
X153637440Y-288928130D01*
X153637443Y-288928132D01*
X153696556Y-288947339D01*
X153856827Y-288999415D01*
X154084658Y-289035500D01*
X154084663Y-289035500D01*
X154315342Y-289035500D01*
X154543172Y-288999415D01*
X154606630Y-288978796D01*
X154762557Y-288928132D01*
X154968090Y-288823408D01*
X155154709Y-288687821D01*
X155317821Y-288524709D01*
X155369683Y-288453327D01*
X155425012Y-288410663D01*
X155494626Y-288404684D01*
X155556421Y-288437290D01*
X155570315Y-288453324D01*
X155622179Y-288524709D01*
X155785291Y-288687821D01*
X155971910Y-288823408D01*
X156069016Y-288872886D01*
X156177438Y-288928130D01*
X156177440Y-288928130D01*
X156177443Y-288928132D01*
X156236556Y-288947339D01*
X156396827Y-288999415D01*
X156624658Y-289035500D01*
X156624663Y-289035500D01*
X156855342Y-289035500D01*
X157083172Y-288999415D01*
X157146630Y-288978796D01*
X157302557Y-288928132D01*
X157508090Y-288823408D01*
X157675275Y-288701940D01*
X157741077Y-288678462D01*
X157809131Y-288694287D01*
X157857826Y-288744392D01*
X157864338Y-288758926D01*
X157871200Y-288777324D01*
X157871206Y-288777335D01*
X157957452Y-288892544D01*
X157957455Y-288892547D01*
X158072664Y-288978793D01*
X158072671Y-288978797D01*
X158207517Y-289029091D01*
X158207516Y-289029091D01*
X158214444Y-289029835D01*
X158267127Y-289035500D01*
X160292872Y-289035499D01*
X160352483Y-289029091D01*
X160487331Y-288978796D01*
X160602546Y-288892546D01*
X160688796Y-288777331D01*
X160697351Y-288754394D01*
X160710660Y-288718711D01*
X161239500Y-288718711D01*
X161239500Y-288961288D01*
X161271161Y-289201785D01*
X161333947Y-289436104D01*
X161410120Y-289620001D01*
X161426776Y-289660212D01*
X161548064Y-289870289D01*
X161548066Y-289870292D01*
X161548067Y-289870293D01*
X161695733Y-290062736D01*
X161695739Y-290062743D01*
X161867256Y-290234260D01*
X161867263Y-290234266D01*
X161952930Y-290300000D01*
X162059711Y-290381936D01*
X162269788Y-290503224D01*
X162493900Y-290596054D01*
X162728211Y-290658838D01*
X162908586Y-290682584D01*
X162968711Y-290690500D01*
X162968712Y-290690500D01*
X163211289Y-290690500D01*
X163259388Y-290684167D01*
X163451789Y-290658838D01*
X163686100Y-290596054D01*
X163910212Y-290503224D01*
X164120289Y-290381936D01*
X164312738Y-290234265D01*
X164484265Y-290062738D01*
X164631936Y-289870289D01*
X164753224Y-289660212D01*
X164846054Y-289436100D01*
X164908838Y-289201789D01*
X164940500Y-288961288D01*
X164940500Y-288718712D01*
X164937284Y-288694287D01*
X164928460Y-288627259D01*
X164908838Y-288478211D01*
X164846054Y-288243900D01*
X164753224Y-288019788D01*
X164631936Y-287809711D01*
X164484265Y-287617262D01*
X164484260Y-287617256D01*
X164312743Y-287445739D01*
X164312736Y-287445733D01*
X164120293Y-287298067D01*
X164120292Y-287298066D01*
X164120289Y-287298064D01*
X163910212Y-287176776D01*
X163910205Y-287176773D01*
X163686104Y-287083947D01*
X163451785Y-287021161D01*
X163211289Y-286989500D01*
X163211288Y-286989500D01*
X162968712Y-286989500D01*
X162968711Y-286989500D01*
X162728214Y-287021161D01*
X162493895Y-287083947D01*
X162269794Y-287176773D01*
X162269785Y-287176777D01*
X162059706Y-287298067D01*
X161867263Y-287445733D01*
X161867256Y-287445739D01*
X161695739Y-287617256D01*
X161695733Y-287617263D01*
X161548067Y-287809706D01*
X161426777Y-288019785D01*
X161426773Y-288019794D01*
X161333947Y-288243895D01*
X161271161Y-288478214D01*
X161239500Y-288718711D01*
X160710660Y-288718711D01*
X160728336Y-288671320D01*
X160728336Y-288671319D01*
X160739090Y-288642485D01*
X160739091Y-288642483D01*
X160740728Y-288627259D01*
X160745500Y-288582873D01*
X160745499Y-286557128D01*
X160739412Y-286500499D01*
X160739091Y-286497516D01*
X160688797Y-286362671D01*
X160688793Y-286362664D01*
X160602547Y-286247455D01*
X160602544Y-286247452D01*
X160487335Y-286161206D01*
X160487328Y-286161202D01*
X160352482Y-286110908D01*
X160352483Y-286110908D01*
X160292883Y-286104501D01*
X160292881Y-286104500D01*
X160292873Y-286104500D01*
X160292864Y-286104500D01*
X158267129Y-286104500D01*
X158267123Y-286104501D01*
X158207516Y-286110908D01*
X158072671Y-286161202D01*
X158072664Y-286161206D01*
X157957455Y-286247452D01*
X157957452Y-286247455D01*
X157871206Y-286362664D01*
X157871202Y-286362672D01*
X157864338Y-286381075D01*
X157822466Y-286437007D01*
X157757001Y-286461423D01*
X157688728Y-286446570D01*
X157675277Y-286438060D01*
X157508090Y-286316592D01*
X157302561Y-286211869D01*
X157083172Y-286140584D01*
X156855342Y-286104500D01*
X156855337Y-286104500D01*
X156624663Y-286104500D01*
X156624658Y-286104500D01*
X156396827Y-286140584D01*
X156177438Y-286211869D01*
X155971909Y-286316592D01*
X155908486Y-286362672D01*
X155785291Y-286452179D01*
X155785289Y-286452181D01*
X155785288Y-286452181D01*
X155622181Y-286615288D01*
X155622174Y-286615297D01*
X155570317Y-286686671D01*
X155514987Y-286729337D01*
X155445374Y-286735315D01*
X155383579Y-286702709D01*
X155369683Y-286686671D01*
X155317825Y-286615297D01*
X155317823Y-286615294D01*
X155317821Y-286615291D01*
X155154709Y-286452179D01*
X154968090Y-286316592D01*
X154762561Y-286211869D01*
X154543172Y-286140584D01*
X154315342Y-286104500D01*
X154315337Y-286104500D01*
X154084663Y-286104500D01*
X154084658Y-286104500D01*
X153856827Y-286140584D01*
X153637438Y-286211869D01*
X153431909Y-286316592D01*
X153368486Y-286362672D01*
X153245291Y-286452179D01*
X153245289Y-286452181D01*
X153245288Y-286452181D01*
X153082181Y-286615288D01*
X153082174Y-286615297D01*
X153030317Y-286686671D01*
X152974987Y-286729337D01*
X152905374Y-286735315D01*
X152843579Y-286702709D01*
X152829683Y-286686671D01*
X152777825Y-286615297D01*
X152777823Y-286615294D01*
X152777821Y-286615291D01*
X152614709Y-286452179D01*
X152428090Y-286316592D01*
X152222561Y-286211869D01*
X152003172Y-286140584D01*
X151775342Y-286104500D01*
X151775337Y-286104500D01*
X151544663Y-286104500D01*
X151544658Y-286104500D01*
X151316827Y-286140584D01*
X151097438Y-286211869D01*
X150891909Y-286316592D01*
X150828486Y-286362672D01*
X150705291Y-286452179D01*
X150705289Y-286452181D01*
X150705288Y-286452181D01*
X150542181Y-286615288D01*
X150542174Y-286615297D01*
X150490317Y-286686671D01*
X150434987Y-286729337D01*
X150365374Y-286735315D01*
X150303579Y-286702709D01*
X150289683Y-286686671D01*
X150237825Y-286615297D01*
X150237823Y-286615294D01*
X150237821Y-286615291D01*
X150074709Y-286452179D01*
X149888090Y-286316592D01*
X149682561Y-286211869D01*
X149463172Y-286140584D01*
X149235342Y-286104500D01*
X149235337Y-286104500D01*
X149004663Y-286104500D01*
X149004658Y-286104500D01*
X148776827Y-286140584D01*
X148557438Y-286211869D01*
X148351909Y-286316592D01*
X148288486Y-286362672D01*
X148165291Y-286452179D01*
X148165289Y-286452181D01*
X148165288Y-286452181D01*
X148002181Y-286615288D01*
X148002174Y-286615297D01*
X147950317Y-286686671D01*
X147894987Y-286729337D01*
X147825374Y-286735315D01*
X147763579Y-286702709D01*
X147749683Y-286686671D01*
X147697825Y-286615297D01*
X147697823Y-286615294D01*
X147697821Y-286615291D01*
X147534709Y-286452179D01*
X147348090Y-286316592D01*
X147142561Y-286211869D01*
X146923172Y-286140584D01*
X146695342Y-286104500D01*
X146695337Y-286104500D01*
X146464663Y-286104500D01*
X146464658Y-286104500D01*
X146236827Y-286140584D01*
X146017438Y-286211869D01*
X145811909Y-286316592D01*
X145748486Y-286362672D01*
X145625291Y-286452179D01*
X145625289Y-286452181D01*
X145625288Y-286452181D01*
X145462181Y-286615288D01*
X145462174Y-286615297D01*
X145410317Y-286686671D01*
X145354987Y-286729337D01*
X145285374Y-286735315D01*
X145223579Y-286702709D01*
X145209683Y-286686671D01*
X145157825Y-286615297D01*
X145157823Y-286615294D01*
X145157821Y-286615291D01*
X144994709Y-286452179D01*
X144808090Y-286316592D01*
X144602561Y-286211869D01*
X144383172Y-286140584D01*
X144155342Y-286104500D01*
X144155337Y-286104500D01*
X143924663Y-286104500D01*
X143924658Y-286104500D01*
X143696827Y-286140584D01*
X143477438Y-286211869D01*
X143271909Y-286316592D01*
X143208486Y-286362672D01*
X143085291Y-286452179D01*
X143085289Y-286452181D01*
X143085288Y-286452181D01*
X142922181Y-286615288D01*
X142922174Y-286615297D01*
X142870317Y-286686671D01*
X142814987Y-286729337D01*
X142745374Y-286735315D01*
X142683579Y-286702709D01*
X142669683Y-286686671D01*
X142617825Y-286615297D01*
X142617823Y-286615294D01*
X142617821Y-286615291D01*
X142454709Y-286452179D01*
X142268090Y-286316592D01*
X142062561Y-286211869D01*
X141843172Y-286140584D01*
X141615342Y-286104500D01*
X141615337Y-286104500D01*
X141384663Y-286104500D01*
X141384658Y-286104500D01*
X141156827Y-286140584D01*
X140937438Y-286211869D01*
X140731909Y-286316592D01*
X140668486Y-286362672D01*
X140545291Y-286452179D01*
X140545289Y-286452181D01*
X140545288Y-286452181D01*
X140382181Y-286615288D01*
X140382174Y-286615297D01*
X140330317Y-286686671D01*
X140274987Y-286729337D01*
X140205374Y-286735315D01*
X140143579Y-286702709D01*
X140129683Y-286686671D01*
X140077825Y-286615297D01*
X140077823Y-286615294D01*
X140077821Y-286615291D01*
X139914709Y-286452179D01*
X139728090Y-286316592D01*
X139522561Y-286211869D01*
X139303172Y-286140584D01*
X139075342Y-286104500D01*
X139075337Y-286104500D01*
X138844663Y-286104500D01*
X138844658Y-286104500D01*
X138616827Y-286140584D01*
X138397438Y-286211869D01*
X138191909Y-286316592D01*
X138128486Y-286362672D01*
X138005291Y-286452179D01*
X138005289Y-286452181D01*
X138005288Y-286452181D01*
X137842180Y-286615289D01*
X137790008Y-286687098D01*
X137734677Y-286729763D01*
X137665064Y-286735742D01*
X137651575Y-286728624D01*
X137617600Y-286725950D01*
X136857647Y-287485904D01*
X136834208Y-287398429D01*
X136775689Y-287297070D01*
X136692930Y-287214311D01*
X136591571Y-287155792D01*
X136504092Y-287132352D01*
X137264048Y-286372398D01*
X137187827Y-286317020D01*
X136982367Y-286212332D01*
X136763057Y-286141073D01*
X136535303Y-286105000D01*
X136304697Y-286105000D01*
X136076943Y-286141073D01*
X136076940Y-286141073D01*
X135857632Y-286212332D01*
X135652169Y-286317022D01*
X135575951Y-286372397D01*
X135575950Y-286372398D01*
X136335905Y-287132352D01*
X136248429Y-287155792D01*
X136147070Y-287214311D01*
X136064311Y-287297070D01*
X136005792Y-287398429D01*
X135982352Y-287485905D01*
X135222398Y-286725950D01*
X135197716Y-286727893D01*
X135195289Y-286729765D01*
X135125676Y-286735740D01*
X135063882Y-286703130D01*
X135049992Y-286687098D01*
X134997821Y-286615291D01*
X134834709Y-286452179D01*
X134648090Y-286316592D01*
X134442561Y-286211869D01*
X134223172Y-286140584D01*
X133995342Y-286104500D01*
X133995337Y-286104500D01*
X133764663Y-286104500D01*
X133764658Y-286104500D01*
X133536827Y-286140584D01*
X133317438Y-286211869D01*
X133111909Y-286316592D01*
X133048486Y-286362672D01*
X132925291Y-286452179D01*
X132925289Y-286452181D01*
X132925288Y-286452181D01*
X132762181Y-286615288D01*
X132762174Y-286615297D01*
X132710317Y-286686671D01*
X132654987Y-286729337D01*
X132585374Y-286735315D01*
X132523579Y-286702709D01*
X132509683Y-286686671D01*
X132457825Y-286615297D01*
X132457823Y-286615294D01*
X132457821Y-286615291D01*
X132294709Y-286452179D01*
X132108090Y-286316592D01*
X131902561Y-286211869D01*
X131683172Y-286140584D01*
X131455342Y-286104500D01*
X131455337Y-286104500D01*
X131224663Y-286104500D01*
X131224658Y-286104500D01*
X130996827Y-286140584D01*
X130777438Y-286211869D01*
X130571909Y-286316592D01*
X130508486Y-286362672D01*
X130385291Y-286452179D01*
X130385289Y-286452181D01*
X130385288Y-286452181D01*
X130222181Y-286615288D01*
X130222174Y-286615297D01*
X130170317Y-286686671D01*
X130114987Y-286729337D01*
X130045374Y-286735315D01*
X129983579Y-286702709D01*
X129969683Y-286686671D01*
X129917825Y-286615297D01*
X129917823Y-286615294D01*
X129917821Y-286615291D01*
X129754709Y-286452179D01*
X129568090Y-286316592D01*
X129362561Y-286211869D01*
X129143172Y-286140584D01*
X128915342Y-286104500D01*
X128915337Y-286104500D01*
X128684663Y-286104500D01*
X128684658Y-286104500D01*
X128456827Y-286140584D01*
X128237438Y-286211869D01*
X128031909Y-286316592D01*
X127968486Y-286362672D01*
X127845291Y-286452179D01*
X127845289Y-286452181D01*
X127845288Y-286452181D01*
X127682180Y-286615289D01*
X127630008Y-286687098D01*
X127574677Y-286729763D01*
X127505064Y-286735742D01*
X127491575Y-286728624D01*
X127457600Y-286725950D01*
X126697647Y-287485904D01*
X126674208Y-287398429D01*
X126615689Y-287297070D01*
X126532930Y-287214311D01*
X126431571Y-287155792D01*
X126344092Y-287132352D01*
X127104048Y-286372398D01*
X127027827Y-286317020D01*
X126822367Y-286212332D01*
X126603057Y-286141073D01*
X126375303Y-286105000D01*
X126144697Y-286105000D01*
X125916943Y-286141073D01*
X125916940Y-286141073D01*
X125697632Y-286212332D01*
X125492169Y-286317022D01*
X125415951Y-286372397D01*
X125415950Y-286372398D01*
X126175905Y-287132352D01*
X126088429Y-287155792D01*
X125987070Y-287214311D01*
X125904311Y-287297070D01*
X125845792Y-287398429D01*
X125822352Y-287485905D01*
X125062398Y-286725950D01*
X125037716Y-286727893D01*
X125035289Y-286729765D01*
X124965676Y-286735740D01*
X124903882Y-286703130D01*
X124889992Y-286687098D01*
X124837821Y-286615291D01*
X124674709Y-286452179D01*
X124488090Y-286316592D01*
X124282561Y-286211869D01*
X124063172Y-286140584D01*
X123835342Y-286104500D01*
X123835337Y-286104500D01*
X123604663Y-286104500D01*
X123604658Y-286104500D01*
X123376827Y-286140584D01*
X123157438Y-286211869D01*
X122951909Y-286316592D01*
X122888486Y-286362672D01*
X122765291Y-286452179D01*
X122765289Y-286452181D01*
X122765288Y-286452181D01*
X122602181Y-286615288D01*
X122602181Y-286615289D01*
X122602179Y-286615291D01*
X122550008Y-286687098D01*
X122466592Y-286801909D01*
X122361869Y-287007438D01*
X122290584Y-287226827D01*
X122254500Y-287454657D01*
X121141661Y-287454657D01*
X121132743Y-287445739D01*
X121132736Y-287445733D01*
X120940293Y-287298067D01*
X120940292Y-287298066D01*
X120940289Y-287298064D01*
X120730212Y-287176776D01*
X120730205Y-287176773D01*
X120506104Y-287083947D01*
X120271785Y-287021161D01*
X120031289Y-286989500D01*
X120031288Y-286989500D01*
X119788712Y-286989500D01*
X119788711Y-286989500D01*
X119548214Y-287021161D01*
X119313895Y-287083947D01*
X119089794Y-287176773D01*
X119089785Y-287176777D01*
X118879706Y-287298067D01*
X118687263Y-287445733D01*
X118687256Y-287445739D01*
X118515739Y-287617256D01*
X118515733Y-287617263D01*
X118368067Y-287809706D01*
X118246777Y-288019785D01*
X118246773Y-288019794D01*
X118153947Y-288243895D01*
X118091161Y-288478214D01*
X118059500Y-288718711D01*
X113271653Y-288718711D01*
X113267990Y-288695582D01*
X113204755Y-288500968D01*
X113111859Y-288318650D01*
X113079474Y-288274077D01*
X113079474Y-288274076D01*
X112400000Y-288953551D01*
X112400000Y-288947339D01*
X112372741Y-288845606D01*
X112320080Y-288754394D01*
X112245606Y-288679920D01*
X112154394Y-288627259D01*
X112052661Y-288600000D01*
X112046446Y-288600000D01*
X112725922Y-287920524D01*
X112725921Y-287920523D01*
X112681359Y-287888147D01*
X112681350Y-287888141D01*
X112499031Y-287795244D01*
X112304417Y-287732009D01*
X112102317Y-287700000D01*
X111897683Y-287700000D01*
X111695582Y-287732009D01*
X111500968Y-287795244D01*
X111318644Y-287888143D01*
X111274077Y-287920523D01*
X111274077Y-287920524D01*
X111953554Y-288600000D01*
X111947339Y-288600000D01*
X111845606Y-288627259D01*
X111754394Y-288679920D01*
X111679920Y-288754394D01*
X111627259Y-288845606D01*
X111600000Y-288947339D01*
X111600000Y-288953553D01*
X110920524Y-288274077D01*
X110920523Y-288274077D01*
X110888143Y-288318644D01*
X110795244Y-288500968D01*
X110732009Y-288695582D01*
X110700000Y-288897682D01*
X27500500Y-288897682D01*
X27500500Y-283595513D01*
X74799500Y-283595513D01*
X74799500Y-283784486D01*
X74829059Y-283971118D01*
X74887454Y-284150836D01*
X74908608Y-284192352D01*
X74973240Y-284319199D01*
X75084310Y-284472073D01*
X75217927Y-284605690D01*
X75370801Y-284716760D01*
X75450347Y-284757290D01*
X75539163Y-284802545D01*
X75539165Y-284802545D01*
X75539168Y-284802547D01*
X75635497Y-284833846D01*
X75718881Y-284860940D01*
X75905514Y-284890500D01*
X75905519Y-284890500D01*
X76094486Y-284890500D01*
X76281118Y-284860940D01*
X76460832Y-284802547D01*
X76629199Y-284716760D01*
X76782073Y-284605690D01*
X76915690Y-284472073D01*
X77026760Y-284319199D01*
X77112547Y-284150832D01*
X77170940Y-283971118D01*
X77171880Y-283965185D01*
X77200500Y-283784486D01*
X77200500Y-283595513D01*
X77170940Y-283408881D01*
X77119478Y-283250500D01*
X77112547Y-283229168D01*
X77112545Y-283229165D01*
X77112545Y-283229163D01*
X77091392Y-283187648D01*
X79769500Y-283187648D01*
X79769500Y-284192351D01*
X79801522Y-284394534D01*
X79864781Y-284589223D01*
X79928691Y-284714653D01*
X79929765Y-284716760D01*
X79957715Y-284771613D01*
X80078028Y-284937213D01*
X80222786Y-285081971D01*
X80377749Y-285194556D01*
X80388390Y-285202287D01*
X80504607Y-285261503D01*
X80570776Y-285295218D01*
X80570778Y-285295218D01*
X80570781Y-285295220D01*
X80675137Y-285329127D01*
X80765465Y-285358477D01*
X80866557Y-285374488D01*
X80967648Y-285390500D01*
X80967649Y-285390500D01*
X81172351Y-285390500D01*
X81172352Y-285390500D01*
X81374534Y-285358477D01*
X81569219Y-285295220D01*
X81751610Y-285202287D01*
X81844590Y-285134732D01*
X81917213Y-285081971D01*
X81917215Y-285081968D01*
X81917219Y-285081966D01*
X82061966Y-284937219D01*
X82061968Y-284937215D01*
X82061971Y-284937213D01*
X82182284Y-284771614D01*
X82182286Y-284771611D01*
X82182287Y-284771610D01*
X82229795Y-284678369D01*
X82277770Y-284627574D01*
X82345591Y-284610779D01*
X82411725Y-284633316D01*
X82450765Y-284678370D01*
X82498140Y-284771349D01*
X82618417Y-284936894D01*
X82618417Y-284936895D01*
X82763104Y-285081582D01*
X82928650Y-285201859D01*
X83110968Y-285294754D01*
X83305578Y-285357988D01*
X83360000Y-285366607D01*
X83360000Y-284005686D01*
X83364394Y-284010080D01*
X83455606Y-284062741D01*
X83557339Y-284090000D01*
X83662661Y-284090000D01*
X83764394Y-284062741D01*
X83855606Y-284010080D01*
X83860000Y-284005686D01*
X83860000Y-285366606D01*
X83914421Y-285357988D01*
X84109031Y-285294754D01*
X84291349Y-285201859D01*
X84456894Y-285081582D01*
X84456895Y-285081582D01*
X84601582Y-284936895D01*
X84601582Y-284936894D01*
X84721861Y-284771347D01*
X84769234Y-284678371D01*
X84817208Y-284627575D01*
X84885028Y-284610779D01*
X84951164Y-284633316D01*
X84990203Y-284678369D01*
X85037713Y-284771611D01*
X85158028Y-284937213D01*
X85302786Y-285081971D01*
X85457749Y-285194556D01*
X85468390Y-285202287D01*
X85584607Y-285261503D01*
X85650776Y-285295218D01*
X85650778Y-285295218D01*
X85650781Y-285295220D01*
X85755137Y-285329127D01*
X85845465Y-285358477D01*
X85946557Y-285374488D01*
X86047648Y-285390500D01*
X86047649Y-285390500D01*
X86252351Y-285390500D01*
X86252352Y-285390500D01*
X86454534Y-285358477D01*
X86649219Y-285295220D01*
X86831610Y-285202287D01*
X86924590Y-285134732D01*
X86997213Y-285081971D01*
X86997215Y-285081968D01*
X86997219Y-285081966D01*
X87141966Y-284937219D01*
X87141968Y-284937215D01*
X87141971Y-284937213D01*
X87262284Y-284771614D01*
X87262286Y-284771611D01*
X87262287Y-284771610D01*
X87309516Y-284678917D01*
X87357489Y-284628123D01*
X87425310Y-284611328D01*
X87491445Y-284633865D01*
X87530483Y-284678917D01*
X87574348Y-284765006D01*
X87577715Y-284771614D01*
X87698028Y-284937213D01*
X87842786Y-285081971D01*
X87997749Y-285194556D01*
X88008390Y-285202287D01*
X88124607Y-285261503D01*
X88190776Y-285295218D01*
X88190778Y-285295218D01*
X88190781Y-285295220D01*
X88295137Y-285329127D01*
X88385465Y-285358477D01*
X88486557Y-285374488D01*
X88587648Y-285390500D01*
X88587649Y-285390500D01*
X88792351Y-285390500D01*
X88792352Y-285390500D01*
X88994534Y-285358477D01*
X89189219Y-285295220D01*
X89371610Y-285202287D01*
X89464590Y-285134732D01*
X89537213Y-285081971D01*
X89537215Y-285081968D01*
X89537219Y-285081966D01*
X89681966Y-284937219D01*
X89681968Y-284937215D01*
X89681971Y-284937213D01*
X89802284Y-284771614D01*
X89802286Y-284771611D01*
X89802287Y-284771610D01*
X89849516Y-284678917D01*
X89897489Y-284628123D01*
X89965310Y-284611328D01*
X90031445Y-284633865D01*
X90070483Y-284678917D01*
X90114348Y-284765006D01*
X90117715Y-284771614D01*
X90238028Y-284937213D01*
X90382786Y-285081971D01*
X90537749Y-285194556D01*
X90548390Y-285202287D01*
X90664607Y-285261503D01*
X90730776Y-285295218D01*
X90730778Y-285295218D01*
X90730781Y-285295220D01*
X90835137Y-285329127D01*
X90925465Y-285358477D01*
X91026557Y-285374488D01*
X91127648Y-285390500D01*
X91127649Y-285390500D01*
X91332351Y-285390500D01*
X91332352Y-285390500D01*
X91534534Y-285358477D01*
X91729219Y-285295220D01*
X91911610Y-285202287D01*
X92004590Y-285134732D01*
X92077213Y-285081971D01*
X92077215Y-285081968D01*
X92077219Y-285081966D01*
X92221966Y-284937219D01*
X92221968Y-284937215D01*
X92221971Y-284937213D01*
X92342284Y-284771614D01*
X92342286Y-284771611D01*
X92342287Y-284771610D01*
X92389516Y-284678917D01*
X92437489Y-284628123D01*
X92505310Y-284611328D01*
X92571445Y-284633865D01*
X92610483Y-284678917D01*
X92654348Y-284765006D01*
X92657715Y-284771614D01*
X92778028Y-284937213D01*
X92922786Y-285081971D01*
X93077749Y-285194556D01*
X93088390Y-285202287D01*
X93204607Y-285261503D01*
X93270776Y-285295218D01*
X93270778Y-285295218D01*
X93270781Y-285295220D01*
X93375137Y-285329127D01*
X93465465Y-285358477D01*
X93566557Y-285374488D01*
X93667648Y-285390500D01*
X93667649Y-285390500D01*
X93872351Y-285390500D01*
X93872352Y-285390500D01*
X94074534Y-285358477D01*
X94269219Y-285295220D01*
X94451610Y-285202287D01*
X94544590Y-285134732D01*
X94617213Y-285081971D01*
X94617215Y-285081968D01*
X94617219Y-285081966D01*
X94761966Y-284937219D01*
X94761968Y-284937215D01*
X94761971Y-284937213D01*
X94882284Y-284771614D01*
X94882286Y-284771611D01*
X94882287Y-284771610D01*
X94929516Y-284678917D01*
X94977489Y-284628123D01*
X95045310Y-284611328D01*
X95111445Y-284633865D01*
X95150483Y-284678917D01*
X95194348Y-284765006D01*
X95197715Y-284771614D01*
X95318028Y-284937213D01*
X95462786Y-285081971D01*
X95617749Y-285194556D01*
X95628390Y-285202287D01*
X95744607Y-285261503D01*
X95810776Y-285295218D01*
X95810778Y-285295218D01*
X95810781Y-285295220D01*
X95915137Y-285329127D01*
X96005465Y-285358477D01*
X96106557Y-285374488D01*
X96207648Y-285390500D01*
X96207649Y-285390500D01*
X96412351Y-285390500D01*
X96412352Y-285390500D01*
X96614534Y-285358477D01*
X96809219Y-285295220D01*
X96991610Y-285202287D01*
X97084590Y-285134732D01*
X97157213Y-285081971D01*
X97157215Y-285081968D01*
X97157219Y-285081966D01*
X97301966Y-284937219D01*
X97301968Y-284937215D01*
X97301971Y-284937213D01*
X97422284Y-284771614D01*
X97422286Y-284771611D01*
X97422287Y-284771610D01*
X97469516Y-284678917D01*
X97517489Y-284628123D01*
X97585310Y-284611328D01*
X97651445Y-284633865D01*
X97690483Y-284678917D01*
X97734348Y-284765006D01*
X97737715Y-284771614D01*
X97858028Y-284937213D01*
X98002786Y-285081971D01*
X98157749Y-285194556D01*
X98168390Y-285202287D01*
X98284607Y-285261503D01*
X98350776Y-285295218D01*
X98350778Y-285295218D01*
X98350781Y-285295220D01*
X98455137Y-285329127D01*
X98545465Y-285358477D01*
X98646557Y-285374488D01*
X98747648Y-285390500D01*
X98747649Y-285390500D01*
X98952351Y-285390500D01*
X98952352Y-285390500D01*
X99154534Y-285358477D01*
X99349219Y-285295220D01*
X99531610Y-285202287D01*
X99624590Y-285134732D01*
X99697213Y-285081971D01*
X99697215Y-285081968D01*
X99697219Y-285081966D01*
X99841966Y-284937219D01*
X99841968Y-284937215D01*
X99841971Y-284937213D01*
X99962284Y-284771614D01*
X99962286Y-284771611D01*
X99962287Y-284771610D01*
X100009516Y-284678917D01*
X100057489Y-284628123D01*
X100125310Y-284611328D01*
X100191445Y-284633865D01*
X100230483Y-284678917D01*
X100274348Y-284765006D01*
X100277715Y-284771614D01*
X100398028Y-284937213D01*
X100542786Y-285081971D01*
X100697749Y-285194556D01*
X100708390Y-285202287D01*
X100824607Y-285261503D01*
X100890776Y-285295218D01*
X100890778Y-285295218D01*
X100890781Y-285295220D01*
X100995137Y-285329127D01*
X101085465Y-285358477D01*
X101186557Y-285374488D01*
X101287648Y-285390500D01*
X101287649Y-285390500D01*
X101492351Y-285390500D01*
X101492352Y-285390500D01*
X101694534Y-285358477D01*
X101889219Y-285295220D01*
X102071610Y-285202287D01*
X102164590Y-285134732D01*
X102237213Y-285081971D01*
X102237215Y-285081968D01*
X102237219Y-285081966D01*
X102381966Y-284937219D01*
X102381968Y-284937215D01*
X102381971Y-284937213D01*
X102502284Y-284771614D01*
X102502286Y-284771611D01*
X102502287Y-284771610D01*
X102549516Y-284678917D01*
X102597489Y-284628123D01*
X102665310Y-284611328D01*
X102731445Y-284633865D01*
X102770483Y-284678917D01*
X102814348Y-284765006D01*
X102817715Y-284771614D01*
X102938028Y-284937213D01*
X103082786Y-285081971D01*
X103237749Y-285194556D01*
X103248390Y-285202287D01*
X103364607Y-285261503D01*
X103430776Y-285295218D01*
X103430778Y-285295218D01*
X103430781Y-285295220D01*
X103535137Y-285329127D01*
X103625465Y-285358477D01*
X103726557Y-285374488D01*
X103827648Y-285390500D01*
X103827649Y-285390500D01*
X104032351Y-285390500D01*
X104032352Y-285390500D01*
X104234534Y-285358477D01*
X104429219Y-285295220D01*
X104611610Y-285202287D01*
X104704590Y-285134732D01*
X104777213Y-285081971D01*
X104777215Y-285081968D01*
X104777219Y-285081966D01*
X104921966Y-284937219D01*
X104921968Y-284937215D01*
X104921971Y-284937213D01*
X105019810Y-284802547D01*
X105042287Y-284771610D01*
X105129735Y-284599983D01*
X110699500Y-284599983D01*
X110699500Y-285800001D01*
X110699501Y-285800018D01*
X110710000Y-285902796D01*
X110710001Y-285902799D01*
X110765185Y-286069331D01*
X110765187Y-286069336D01*
X110800069Y-286125888D01*
X110857288Y-286218656D01*
X110981344Y-286342712D01*
X111130666Y-286434814D01*
X111297203Y-286489999D01*
X111399991Y-286500500D01*
X112600008Y-286500499D01*
X112702797Y-286489999D01*
X112869334Y-286434814D01*
X113018656Y-286342712D01*
X113142712Y-286218656D01*
X113234814Y-286069334D01*
X113289999Y-285902797D01*
X113300500Y-285800009D01*
X113300499Y-284599992D01*
X113289999Y-284497203D01*
X113234814Y-284330666D01*
X113142712Y-284181344D01*
X113018656Y-284057288D01*
X112925888Y-284000069D01*
X112869336Y-283965187D01*
X112869331Y-283965185D01*
X112867862Y-283964698D01*
X112702797Y-283910001D01*
X112702795Y-283910000D01*
X112600010Y-283899500D01*
X111399998Y-283899500D01*
X111399981Y-283899501D01*
X111297203Y-283910000D01*
X111297200Y-283910001D01*
X111130668Y-283965185D01*
X111130663Y-283965187D01*
X110981342Y-284057289D01*
X110857289Y-284181342D01*
X110765187Y-284330663D01*
X110765186Y-284330666D01*
X110710001Y-284497203D01*
X110710001Y-284497204D01*
X110710000Y-284497204D01*
X110699500Y-284599983D01*
X105129735Y-284599983D01*
X105135220Y-284589219D01*
X105198477Y-284394534D01*
X105230500Y-284192352D01*
X105230500Y-283187648D01*
X105198477Y-282985466D01*
X105198092Y-282984282D01*
X105169127Y-282895137D01*
X105135220Y-282790781D01*
X105135218Y-282790778D01*
X105135218Y-282790776D01*
X105089515Y-282701080D01*
X105042287Y-282608390D01*
X105019810Y-282577453D01*
X104921971Y-282442786D01*
X104777213Y-282298028D01*
X104611610Y-282177712D01*
X104611607Y-282177710D01*
X104609884Y-282176832D01*
X104609881Y-282176832D01*
X104429223Y-282084781D01*
X104387465Y-282071213D01*
X221749500Y-282071213D01*
X221749500Y-282268058D01*
X221780290Y-282462462D01*
X221841117Y-282649665D01*
X221930476Y-282825041D01*
X222046172Y-282984282D01*
X222185354Y-283123464D01*
X222344595Y-283239160D01*
X222427455Y-283281379D01*
X222519970Y-283328518D01*
X222519972Y-283328518D01*
X222519975Y-283328520D01*
X222620317Y-283361123D01*
X222707173Y-283389345D01*
X222901578Y-283420136D01*
X222901583Y-283420136D01*
X223098422Y-283420136D01*
X223292826Y-283389345D01*
X223480025Y-283328520D01*
X223655405Y-283239160D01*
X223814646Y-283123464D01*
X223953828Y-282984282D01*
X224069524Y-282825041D01*
X224158884Y-282649661D01*
X224219709Y-282462462D01*
X224222826Y-282442781D01*
X224250500Y-282268058D01*
X224250500Y-282071213D01*
X224219709Y-281876809D01*
X224191487Y-281789953D01*
X224158884Y-281689611D01*
X224158882Y-281689608D01*
X224158882Y-281689606D01*
X224111743Y-281597091D01*
X224069524Y-281514231D01*
X223953828Y-281354990D01*
X223814646Y-281215808D01*
X223655405Y-281100112D01*
X223480029Y-281010753D01*
X223292826Y-280949926D01*
X223098422Y-280919136D01*
X223098417Y-280919136D01*
X222901583Y-280919136D01*
X222901578Y-280919136D01*
X222707173Y-280949926D01*
X222519970Y-281010753D01*
X222344594Y-281100112D01*
X222253741Y-281166121D01*
X222185354Y-281215808D01*
X222185352Y-281215810D01*
X222185351Y-281215810D01*
X222046174Y-281354987D01*
X222046174Y-281354988D01*
X222046172Y-281354990D01*
X221996485Y-281423377D01*
X221930476Y-281514230D01*
X221841117Y-281689606D01*
X221780290Y-281876809D01*
X221749500Y-282071213D01*
X104387465Y-282071213D01*
X104234534Y-282021522D01*
X104059995Y-281993878D01*
X104032352Y-281989500D01*
X103827648Y-281989500D01*
X103803329Y-281993351D01*
X103625465Y-282021522D01*
X103430776Y-282084781D01*
X103248386Y-282177715D01*
X103082786Y-282298028D01*
X102938028Y-282442786D01*
X102817715Y-282608386D01*
X102770485Y-282701080D01*
X102722510Y-282751876D01*
X102654689Y-282768671D01*
X102588554Y-282746134D01*
X102549515Y-282701080D01*
X102548883Y-282699840D01*
X102502287Y-282608390D01*
X102479810Y-282577453D01*
X102381971Y-282442786D01*
X102237213Y-282298028D01*
X102071613Y-282177715D01*
X102071612Y-282177714D01*
X102071610Y-282177713D01*
X102014653Y-282148691D01*
X101889223Y-282084781D01*
X101694534Y-282021522D01*
X101519995Y-281993878D01*
X101492352Y-281989500D01*
X101287648Y-281989500D01*
X101263329Y-281993351D01*
X101085465Y-282021522D01*
X100890776Y-282084781D01*
X100708386Y-282177715D01*
X100542786Y-282298028D01*
X100398028Y-282442786D01*
X100277715Y-282608386D01*
X100230485Y-282701080D01*
X100182510Y-282751876D01*
X100114689Y-282768671D01*
X100048554Y-282746134D01*
X100009515Y-282701080D01*
X100008883Y-282699840D01*
X99962287Y-282608390D01*
X99939810Y-282577453D01*
X99841971Y-282442786D01*
X99697213Y-282298028D01*
X99531613Y-282177715D01*
X99531612Y-282177714D01*
X99531610Y-282177713D01*
X99474653Y-282148691D01*
X99349223Y-282084781D01*
X99154534Y-282021522D01*
X98979995Y-281993878D01*
X98952352Y-281989500D01*
X98747648Y-281989500D01*
X98723329Y-281993351D01*
X98545465Y-282021522D01*
X98350776Y-282084781D01*
X98168386Y-282177715D01*
X98002786Y-282298028D01*
X97858028Y-282442786D01*
X97737715Y-282608386D01*
X97690485Y-282701080D01*
X97642510Y-282751876D01*
X97574689Y-282768671D01*
X97508554Y-282746134D01*
X97469515Y-282701080D01*
X97468883Y-282699840D01*
X97422287Y-282608390D01*
X97399810Y-282577453D01*
X97301971Y-282442786D01*
X97157213Y-282298028D01*
X96991613Y-282177715D01*
X96991612Y-282177714D01*
X96991610Y-282177713D01*
X96934653Y-282148691D01*
X96809223Y-282084781D01*
X96614534Y-282021522D01*
X96439995Y-281993878D01*
X96412352Y-281989500D01*
X96207648Y-281989500D01*
X96183329Y-281993351D01*
X96005465Y-282021522D01*
X95810776Y-282084781D01*
X95628386Y-282177715D01*
X95462786Y-282298028D01*
X95318028Y-282442786D01*
X95197715Y-282608386D01*
X95150485Y-282701080D01*
X95102510Y-282751876D01*
X95034689Y-282768671D01*
X94968554Y-282746134D01*
X94929515Y-282701080D01*
X94928883Y-282699840D01*
X94882287Y-282608390D01*
X94859810Y-282577453D01*
X94761971Y-282442786D01*
X94617213Y-282298028D01*
X94451613Y-282177715D01*
X94451612Y-282177714D01*
X94451610Y-282177713D01*
X94394653Y-282148691D01*
X94269223Y-282084781D01*
X94074534Y-282021522D01*
X93899995Y-281993878D01*
X93872352Y-281989500D01*
X93667648Y-281989500D01*
X93643329Y-281993351D01*
X93465465Y-282021522D01*
X93270776Y-282084781D01*
X93088386Y-282177715D01*
X92922786Y-282298028D01*
X92778028Y-282442786D01*
X92657715Y-282608386D01*
X92610485Y-282701080D01*
X92562510Y-282751876D01*
X92494689Y-282768671D01*
X92428554Y-282746134D01*
X92389515Y-282701080D01*
X92388883Y-282699840D01*
X92342287Y-282608390D01*
X92319810Y-282577453D01*
X92221971Y-282442786D01*
X92077213Y-282298028D01*
X91911613Y-282177715D01*
X91911612Y-282177714D01*
X91911610Y-282177713D01*
X91854653Y-282148691D01*
X91729223Y-282084781D01*
X91534534Y-282021522D01*
X91359995Y-281993878D01*
X91332352Y-281989500D01*
X91127648Y-281989500D01*
X91103329Y-281993351D01*
X90925465Y-282021522D01*
X90730776Y-282084781D01*
X90548386Y-282177715D01*
X90382786Y-282298028D01*
X90238028Y-282442786D01*
X90117715Y-282608386D01*
X90070485Y-282701080D01*
X90022510Y-282751876D01*
X89954689Y-282768671D01*
X89888554Y-282746134D01*
X89849515Y-282701080D01*
X89848883Y-282699840D01*
X89802287Y-282608390D01*
X89779810Y-282577453D01*
X89681971Y-282442786D01*
X89537213Y-282298028D01*
X89371613Y-282177715D01*
X89371612Y-282177714D01*
X89371610Y-282177713D01*
X89314653Y-282148691D01*
X89189223Y-282084781D01*
X88994534Y-282021522D01*
X88819995Y-281993878D01*
X88792352Y-281989500D01*
X88587648Y-281989500D01*
X88563329Y-281993351D01*
X88385465Y-282021522D01*
X88190776Y-282084781D01*
X88008386Y-282177715D01*
X87842786Y-282298028D01*
X87698028Y-282442786D01*
X87577715Y-282608386D01*
X87530485Y-282701080D01*
X87482510Y-282751876D01*
X87414689Y-282768671D01*
X87348554Y-282746134D01*
X87309515Y-282701080D01*
X87308883Y-282699840D01*
X87262287Y-282608390D01*
X87239810Y-282577453D01*
X87141971Y-282442786D01*
X86997213Y-282298028D01*
X86831613Y-282177715D01*
X86831612Y-282177714D01*
X86831610Y-282177713D01*
X86774653Y-282148691D01*
X86649223Y-282084781D01*
X86454534Y-282021522D01*
X86279995Y-281993878D01*
X86252352Y-281989500D01*
X86047648Y-281989500D01*
X86023329Y-281993351D01*
X85845465Y-282021522D01*
X85650776Y-282084781D01*
X85468386Y-282177715D01*
X85302786Y-282298028D01*
X85158028Y-282442786D01*
X85037713Y-282608388D01*
X84990203Y-282701630D01*
X84942228Y-282752426D01*
X84874407Y-282769220D01*
X84808272Y-282746682D01*
X84769234Y-282701628D01*
X84721861Y-282608652D01*
X84601582Y-282443105D01*
X84601582Y-282443104D01*
X84456895Y-282298417D01*
X84291349Y-282178140D01*
X84109029Y-282085244D01*
X83914413Y-282022009D01*
X83860000Y-282013390D01*
X83860000Y-283374314D01*
X83855606Y-283369920D01*
X83764394Y-283317259D01*
X83662661Y-283290000D01*
X83557339Y-283290000D01*
X83455606Y-283317259D01*
X83364394Y-283369920D01*
X83360000Y-283374314D01*
X83360000Y-282013390D01*
X83305586Y-282022009D01*
X83110970Y-282085244D01*
X82928650Y-282178140D01*
X82763105Y-282298417D01*
X82763104Y-282298417D01*
X82618417Y-282443104D01*
X82618417Y-282443105D01*
X82498140Y-282608650D01*
X82450765Y-282701629D01*
X82402790Y-282752425D01*
X82334969Y-282769220D01*
X82268834Y-282746682D01*
X82229795Y-282701629D01*
X82218990Y-282680424D01*
X82182287Y-282608390D01*
X82159810Y-282577453D01*
X82061971Y-282442786D01*
X81917213Y-282298028D01*
X81751613Y-282177715D01*
X81751612Y-282177714D01*
X81751610Y-282177713D01*
X81694653Y-282148691D01*
X81569223Y-282084781D01*
X81374534Y-282021522D01*
X81199995Y-281993878D01*
X81172352Y-281989500D01*
X80967648Y-281989500D01*
X80943329Y-281993351D01*
X80765465Y-282021522D01*
X80570776Y-282084781D01*
X80388386Y-282177715D01*
X80222786Y-282298028D01*
X80078028Y-282442786D01*
X79957715Y-282608386D01*
X79864781Y-282790776D01*
X79801522Y-282985465D01*
X79769500Y-283187648D01*
X77091392Y-283187648D01*
X77058687Y-283123461D01*
X77026760Y-283060801D01*
X76915690Y-282907927D01*
X76782073Y-282774310D01*
X76629199Y-282663240D01*
X76613822Y-282655405D01*
X76460836Y-282577454D01*
X76281118Y-282519059D01*
X76094486Y-282489500D01*
X76094481Y-282489500D01*
X75905519Y-282489500D01*
X75905514Y-282489500D01*
X75718881Y-282519059D01*
X75539163Y-282577454D01*
X75370800Y-282663240D01*
X75317963Y-282701629D01*
X75217927Y-282774310D01*
X75217925Y-282774312D01*
X75217924Y-282774312D01*
X75084312Y-282907924D01*
X75084312Y-282907925D01*
X75084310Y-282907927D01*
X75050963Y-282953825D01*
X74973240Y-283060800D01*
X74887454Y-283229163D01*
X74829059Y-283408881D01*
X74799500Y-283595513D01*
X27500500Y-283595513D01*
X27500500Y-281901577D01*
X57749500Y-281901577D01*
X57749500Y-282098422D01*
X57780290Y-282292826D01*
X57841117Y-282480029D01*
X57906520Y-282608388D01*
X57930476Y-282655405D01*
X58046172Y-282814646D01*
X58185354Y-282953828D01*
X58344595Y-283069524D01*
X58427455Y-283111743D01*
X58519970Y-283158882D01*
X58519972Y-283158882D01*
X58519975Y-283158884D01*
X58608501Y-283187648D01*
X58707173Y-283219709D01*
X58901578Y-283250500D01*
X58901583Y-283250500D01*
X59098422Y-283250500D01*
X59292826Y-283219709D01*
X59480025Y-283158884D01*
X59655405Y-283069524D01*
X59814646Y-282953828D01*
X59953828Y-282814646D01*
X60069524Y-282655405D01*
X60158884Y-282480025D01*
X60219709Y-282292826D01*
X60223633Y-282268053D01*
X60250500Y-282098422D01*
X60250500Y-281901577D01*
X60219709Y-281707173D01*
X60158882Y-281519970D01*
X60069523Y-281344594D01*
X59953828Y-281185354D01*
X59814646Y-281046172D01*
X59655405Y-280930476D01*
X59633149Y-280919136D01*
X59480029Y-280841117D01*
X59292826Y-280780290D01*
X59098422Y-280749500D01*
X59098417Y-280749500D01*
X58901583Y-280749500D01*
X58901578Y-280749500D01*
X58707173Y-280780290D01*
X58519970Y-280841117D01*
X58344594Y-280930476D01*
X58253741Y-280996485D01*
X58185354Y-281046172D01*
X58185352Y-281046174D01*
X58185351Y-281046174D01*
X58046174Y-281185351D01*
X58046174Y-281185352D01*
X58046172Y-281185354D01*
X57996485Y-281253741D01*
X57930476Y-281344594D01*
X57841117Y-281519970D01*
X57780290Y-281707173D01*
X57749500Y-281901577D01*
X27500500Y-281901577D01*
X27500500Y-273202634D01*
X36699500Y-273202634D01*
X36699500Y-274402652D01*
X36699501Y-274402669D01*
X36710000Y-274505447D01*
X36710001Y-274505450D01*
X36765185Y-274671982D01*
X36765186Y-274671985D01*
X36857288Y-274821307D01*
X36981344Y-274945363D01*
X37130666Y-275037465D01*
X37297203Y-275092650D01*
X37399991Y-275103151D01*
X38600008Y-275103150D01*
X38702797Y-275092650D01*
X38869334Y-275037465D01*
X39018656Y-274945363D01*
X39142712Y-274821307D01*
X39234814Y-274671985D01*
X39289999Y-274505448D01*
X39300500Y-274402660D01*
X39300499Y-273202643D01*
X39289999Y-273099854D01*
X39234814Y-272933317D01*
X39142712Y-272783995D01*
X39018656Y-272659939D01*
X38869334Y-272567837D01*
X38702797Y-272512652D01*
X38702795Y-272512651D01*
X38600010Y-272502151D01*
X37399998Y-272502151D01*
X37399981Y-272502152D01*
X37297203Y-272512651D01*
X37297200Y-272512652D01*
X37130668Y-272567836D01*
X37130663Y-272567838D01*
X36981342Y-272659940D01*
X36857289Y-272783993D01*
X36765187Y-272933314D01*
X36765186Y-272933317D01*
X36710001Y-273099854D01*
X36710001Y-273099855D01*
X36710000Y-273099855D01*
X36699500Y-273202634D01*
X27500500Y-273202634D01*
X27500500Y-269900333D01*
X36700000Y-269900333D01*
X36700000Y-270104968D01*
X36732009Y-270307068D01*
X36795244Y-270501682D01*
X36888141Y-270684001D01*
X36888147Y-270684010D01*
X36920523Y-270728572D01*
X36920524Y-270728573D01*
X37600000Y-270049097D01*
X37600000Y-270055312D01*
X37627259Y-270157045D01*
X37679920Y-270248257D01*
X37754394Y-270322731D01*
X37845606Y-270375392D01*
X37947339Y-270402651D01*
X37953553Y-270402651D01*
X37274076Y-271082125D01*
X37318650Y-271114510D01*
X37500968Y-271207406D01*
X37695582Y-271270641D01*
X37897683Y-271302651D01*
X38102317Y-271302651D01*
X38304417Y-271270641D01*
X38499031Y-271207406D01*
X38681349Y-271114510D01*
X38725921Y-271082125D01*
X38046447Y-270402651D01*
X38052661Y-270402651D01*
X38154394Y-270375392D01*
X38245606Y-270322731D01*
X38320080Y-270248257D01*
X38372741Y-270157045D01*
X38400000Y-270055312D01*
X38400000Y-270049098D01*
X39079474Y-270728572D01*
X39111859Y-270684000D01*
X39204755Y-270501682D01*
X39267990Y-270307068D01*
X39300000Y-270104968D01*
X39300000Y-269900333D01*
X39267990Y-269698233D01*
X39204755Y-269503619D01*
X39111859Y-269321301D01*
X39079474Y-269276728D01*
X39079474Y-269276727D01*
X38400000Y-269956202D01*
X38400000Y-269949990D01*
X38372741Y-269848257D01*
X38320080Y-269757045D01*
X38245606Y-269682571D01*
X38154394Y-269629910D01*
X38052661Y-269602651D01*
X38046446Y-269602651D01*
X38725922Y-268923175D01*
X38725921Y-268923174D01*
X38681359Y-268890798D01*
X38681350Y-268890792D01*
X38499031Y-268797895D01*
X38304417Y-268734660D01*
X38102317Y-268702651D01*
X37897683Y-268702651D01*
X37695582Y-268734660D01*
X37500968Y-268797895D01*
X37318644Y-268890794D01*
X37274077Y-268923174D01*
X37274077Y-268923175D01*
X37953554Y-269602651D01*
X37947339Y-269602651D01*
X37845606Y-269629910D01*
X37754394Y-269682571D01*
X37679920Y-269757045D01*
X37627259Y-269848257D01*
X37600000Y-269949990D01*
X37600000Y-269956204D01*
X36920524Y-269276728D01*
X36920523Y-269276728D01*
X36888143Y-269321295D01*
X36795244Y-269503619D01*
X36732009Y-269698233D01*
X36700000Y-269900333D01*
X27500500Y-269900333D01*
X27500500Y-259202634D01*
X36699500Y-259202634D01*
X36699500Y-260402652D01*
X36699501Y-260402669D01*
X36710000Y-260505447D01*
X36710001Y-260505450D01*
X36765185Y-260671982D01*
X36765186Y-260671985D01*
X36857288Y-260821307D01*
X36981344Y-260945363D01*
X37130666Y-261037465D01*
X37297203Y-261092650D01*
X37399991Y-261103151D01*
X38600008Y-261103150D01*
X38702797Y-261092650D01*
X38869334Y-261037465D01*
X39018656Y-260945363D01*
X39142712Y-260821307D01*
X39234814Y-260671985D01*
X39289999Y-260505448D01*
X39300500Y-260402660D01*
X39300499Y-259202643D01*
X39289999Y-259099854D01*
X39234814Y-258933317D01*
X39142712Y-258783995D01*
X39018656Y-258659939D01*
X38869334Y-258567837D01*
X38702797Y-258512652D01*
X38702795Y-258512651D01*
X38600010Y-258502151D01*
X37399998Y-258502151D01*
X37399981Y-258502152D01*
X37297203Y-258512651D01*
X37297200Y-258512652D01*
X37130668Y-258567836D01*
X37130663Y-258567838D01*
X36981342Y-258659940D01*
X36857289Y-258783993D01*
X36765187Y-258933314D01*
X36765186Y-258933317D01*
X36710001Y-259099854D01*
X36710001Y-259099855D01*
X36710000Y-259099855D01*
X36699500Y-259202634D01*
X27500500Y-259202634D01*
X27500500Y-255900333D01*
X36700000Y-255900333D01*
X36700000Y-256104968D01*
X36732009Y-256307068D01*
X36795244Y-256501682D01*
X36888141Y-256684001D01*
X36888147Y-256684010D01*
X36920523Y-256728572D01*
X36920524Y-256728573D01*
X37600000Y-256049097D01*
X37600000Y-256055312D01*
X37627259Y-256157045D01*
X37679920Y-256248257D01*
X37754394Y-256322731D01*
X37845606Y-256375392D01*
X37947339Y-256402651D01*
X37953553Y-256402651D01*
X37274076Y-257082125D01*
X37318650Y-257114510D01*
X37500968Y-257207406D01*
X37695582Y-257270641D01*
X37897683Y-257302651D01*
X38102317Y-257302651D01*
X38304417Y-257270641D01*
X38499031Y-257207406D01*
X38681349Y-257114510D01*
X38725921Y-257082125D01*
X38046447Y-256402651D01*
X38052661Y-256402651D01*
X38154394Y-256375392D01*
X38245606Y-256322731D01*
X38320080Y-256248257D01*
X38372741Y-256157045D01*
X38400000Y-256055312D01*
X38400000Y-256049098D01*
X39079474Y-256728572D01*
X39111859Y-256684000D01*
X39204755Y-256501682D01*
X39267990Y-256307068D01*
X39300000Y-256104968D01*
X39300000Y-255900333D01*
X39267990Y-255698233D01*
X39204755Y-255503619D01*
X39111859Y-255321301D01*
X39079474Y-255276728D01*
X39079474Y-255276727D01*
X38400000Y-255956202D01*
X38400000Y-255949990D01*
X38372741Y-255848257D01*
X38320080Y-255757045D01*
X38245606Y-255682571D01*
X38154394Y-255629910D01*
X38052661Y-255602651D01*
X38046446Y-255602651D01*
X38725922Y-254923175D01*
X38725921Y-254923174D01*
X38681359Y-254890798D01*
X38681350Y-254890792D01*
X38499031Y-254797895D01*
X38304417Y-254734660D01*
X38102317Y-254702651D01*
X37897683Y-254702651D01*
X37695582Y-254734660D01*
X37500968Y-254797895D01*
X37318644Y-254890794D01*
X37274077Y-254923174D01*
X37274077Y-254923175D01*
X37953554Y-255602651D01*
X37947339Y-255602651D01*
X37845606Y-255629910D01*
X37754394Y-255682571D01*
X37679920Y-255757045D01*
X37627259Y-255848257D01*
X37600000Y-255949990D01*
X37600000Y-255956204D01*
X36920524Y-255276728D01*
X36920523Y-255276728D01*
X36888143Y-255321295D01*
X36795244Y-255503619D01*
X36732009Y-255698233D01*
X36700000Y-255900333D01*
X27500500Y-255900333D01*
X27500500Y-245202634D01*
X36699500Y-245202634D01*
X36699500Y-246402652D01*
X36699501Y-246402669D01*
X36710000Y-246505447D01*
X36710001Y-246505450D01*
X36765185Y-246671982D01*
X36765186Y-246671985D01*
X36857288Y-246821307D01*
X36981344Y-246945363D01*
X37130666Y-247037465D01*
X37297203Y-247092650D01*
X37399991Y-247103151D01*
X38600008Y-247103150D01*
X38702797Y-247092650D01*
X38869334Y-247037465D01*
X39018656Y-246945363D01*
X39142712Y-246821307D01*
X39234814Y-246671985D01*
X39289999Y-246505448D01*
X39300500Y-246402660D01*
X39300499Y-245202643D01*
X39289999Y-245099854D01*
X39234814Y-244933317D01*
X39142712Y-244783995D01*
X39018656Y-244659939D01*
X38869334Y-244567837D01*
X38702797Y-244512652D01*
X38702795Y-244512651D01*
X38600010Y-244502151D01*
X37399998Y-244502151D01*
X37399981Y-244502152D01*
X37297203Y-244512651D01*
X37297200Y-244512652D01*
X37130668Y-244567836D01*
X37130663Y-244567838D01*
X36981342Y-244659940D01*
X36857289Y-244783993D01*
X36765187Y-244933314D01*
X36765186Y-244933317D01*
X36710001Y-245099854D01*
X36710001Y-245099855D01*
X36710000Y-245099855D01*
X36699500Y-245202634D01*
X27500500Y-245202634D01*
X27500500Y-241900333D01*
X36700000Y-241900333D01*
X36700000Y-242104968D01*
X36732009Y-242307068D01*
X36795244Y-242501682D01*
X36888141Y-242684001D01*
X36888147Y-242684010D01*
X36920523Y-242728572D01*
X36920524Y-242728573D01*
X37600000Y-242049097D01*
X37600000Y-242055312D01*
X37627259Y-242157045D01*
X37679920Y-242248257D01*
X37754394Y-242322731D01*
X37845606Y-242375392D01*
X37947339Y-242402651D01*
X37953553Y-242402651D01*
X37274076Y-243082125D01*
X37318650Y-243114510D01*
X37500968Y-243207406D01*
X37695582Y-243270641D01*
X37897683Y-243302651D01*
X38102317Y-243302651D01*
X38304417Y-243270641D01*
X38499031Y-243207406D01*
X38681349Y-243114510D01*
X38725921Y-243082125D01*
X38046447Y-242402651D01*
X38052661Y-242402651D01*
X38154394Y-242375392D01*
X38245606Y-242322731D01*
X38320080Y-242248257D01*
X38372741Y-242157045D01*
X38400000Y-242055312D01*
X38400000Y-242049098D01*
X39079474Y-242728572D01*
X39111859Y-242684000D01*
X39204755Y-242501682D01*
X39267990Y-242307068D01*
X39300000Y-242104968D01*
X39300000Y-241900333D01*
X39267990Y-241698233D01*
X39204755Y-241503619D01*
X39111859Y-241321301D01*
X39079474Y-241276728D01*
X39079474Y-241276727D01*
X38400000Y-241956202D01*
X38400000Y-241949990D01*
X38372741Y-241848257D01*
X38320080Y-241757045D01*
X38245606Y-241682571D01*
X38154394Y-241629910D01*
X38052661Y-241602651D01*
X38046446Y-241602651D01*
X38725922Y-240923175D01*
X38725921Y-240923174D01*
X38681359Y-240890798D01*
X38681350Y-240890792D01*
X38499031Y-240797895D01*
X38304417Y-240734660D01*
X38102317Y-240702651D01*
X37897683Y-240702651D01*
X37695582Y-240734660D01*
X37500968Y-240797895D01*
X37318644Y-240890794D01*
X37274077Y-240923174D01*
X37274077Y-240923175D01*
X37953554Y-241602651D01*
X37947339Y-241602651D01*
X37845606Y-241629910D01*
X37754394Y-241682571D01*
X37679920Y-241757045D01*
X37627259Y-241848257D01*
X37600000Y-241949990D01*
X37600000Y-241956204D01*
X36920524Y-241276728D01*
X36920523Y-241276728D01*
X36888143Y-241321295D01*
X36795244Y-241503619D01*
X36732009Y-241698233D01*
X36700000Y-241900333D01*
X27500500Y-241900333D01*
X27500500Y-231202634D01*
X36699500Y-231202634D01*
X36699500Y-232402652D01*
X36699501Y-232402669D01*
X36710000Y-232505447D01*
X36710001Y-232505450D01*
X36765185Y-232671982D01*
X36765186Y-232671985D01*
X36857288Y-232821307D01*
X36981344Y-232945363D01*
X37130666Y-233037465D01*
X37297203Y-233092650D01*
X37399991Y-233103151D01*
X38600008Y-233103150D01*
X38702797Y-233092650D01*
X38869334Y-233037465D01*
X39018656Y-232945363D01*
X39142712Y-232821307D01*
X39234814Y-232671985D01*
X39289999Y-232505448D01*
X39300500Y-232402660D01*
X39300499Y-231202643D01*
X39289999Y-231099854D01*
X39234814Y-230933317D01*
X39142712Y-230783995D01*
X39018656Y-230659939D01*
X38869334Y-230567837D01*
X38702797Y-230512652D01*
X38702795Y-230512651D01*
X38600010Y-230502151D01*
X37399998Y-230502151D01*
X37399981Y-230502152D01*
X37297203Y-230512651D01*
X37297200Y-230512652D01*
X37130668Y-230567836D01*
X37130663Y-230567838D01*
X36981342Y-230659940D01*
X36857289Y-230783993D01*
X36765187Y-230933314D01*
X36765186Y-230933317D01*
X36710001Y-231099854D01*
X36710001Y-231099855D01*
X36710000Y-231099855D01*
X36699500Y-231202634D01*
X27500500Y-231202634D01*
X27500500Y-227900333D01*
X36700000Y-227900333D01*
X36700000Y-228104968D01*
X36732009Y-228307068D01*
X36795244Y-228501682D01*
X36888141Y-228684001D01*
X36888147Y-228684010D01*
X36920523Y-228728572D01*
X36920524Y-228728573D01*
X37600000Y-228049097D01*
X37600000Y-228055312D01*
X37627259Y-228157045D01*
X37679920Y-228248257D01*
X37754394Y-228322731D01*
X37845606Y-228375392D01*
X37947339Y-228402651D01*
X37953553Y-228402651D01*
X37274076Y-229082125D01*
X37318650Y-229114510D01*
X37500968Y-229207406D01*
X37695582Y-229270641D01*
X37897683Y-229302651D01*
X38102317Y-229302651D01*
X38304417Y-229270641D01*
X38499031Y-229207406D01*
X38681349Y-229114510D01*
X38725921Y-229082125D01*
X38046447Y-228402651D01*
X38052661Y-228402651D01*
X38154394Y-228375392D01*
X38245606Y-228322731D01*
X38320080Y-228248257D01*
X38372741Y-228157045D01*
X38400000Y-228055312D01*
X38400000Y-228049098D01*
X39079474Y-228728572D01*
X39111859Y-228684000D01*
X39204755Y-228501682D01*
X39267990Y-228307068D01*
X39300000Y-228104968D01*
X39300000Y-227900333D01*
X39267990Y-227698233D01*
X39204755Y-227503619D01*
X39111859Y-227321301D01*
X39079474Y-227276728D01*
X39079474Y-227276727D01*
X38400000Y-227956202D01*
X38400000Y-227949990D01*
X38372741Y-227848257D01*
X38320080Y-227757045D01*
X38245606Y-227682571D01*
X38154394Y-227629910D01*
X38052661Y-227602651D01*
X38046446Y-227602651D01*
X38725922Y-226923175D01*
X38725921Y-226923174D01*
X38681359Y-226890798D01*
X38681350Y-226890792D01*
X38499031Y-226797895D01*
X38304417Y-226734660D01*
X38102317Y-226702651D01*
X37897683Y-226702651D01*
X37695582Y-226734660D01*
X37500968Y-226797895D01*
X37318644Y-226890794D01*
X37274077Y-226923174D01*
X37274077Y-226923175D01*
X37953554Y-227602651D01*
X37947339Y-227602651D01*
X37845606Y-227629910D01*
X37754394Y-227682571D01*
X37679920Y-227757045D01*
X37627259Y-227848257D01*
X37600000Y-227949990D01*
X37600000Y-227956204D01*
X36920524Y-227276728D01*
X36920523Y-227276728D01*
X36888143Y-227321295D01*
X36795244Y-227503619D01*
X36732009Y-227698233D01*
X36700000Y-227900333D01*
X27500500Y-227900333D01*
X27500500Y-219199983D01*
X36699500Y-219199983D01*
X36699500Y-220400001D01*
X36699501Y-220400018D01*
X36710000Y-220502796D01*
X36710001Y-220502799D01*
X36765185Y-220669331D01*
X36765186Y-220669334D01*
X36857288Y-220818656D01*
X36981344Y-220942712D01*
X37130666Y-221034814D01*
X37297203Y-221089999D01*
X37399991Y-221100500D01*
X38600008Y-221100499D01*
X38702797Y-221089999D01*
X38869334Y-221034814D01*
X39018656Y-220942712D01*
X39142712Y-220818656D01*
X39234814Y-220669334D01*
X39289999Y-220502797D01*
X39300500Y-220400009D01*
X39300499Y-219199992D01*
X39289999Y-219097203D01*
X39234814Y-218930666D01*
X39142712Y-218781344D01*
X39018656Y-218657288D01*
X38869334Y-218565186D01*
X38702797Y-218510001D01*
X38702795Y-218510000D01*
X38600010Y-218499500D01*
X37399998Y-218499500D01*
X37399981Y-218499501D01*
X37297203Y-218510000D01*
X37297200Y-218510001D01*
X37130668Y-218565185D01*
X37130663Y-218565187D01*
X36981342Y-218657289D01*
X36857289Y-218781342D01*
X36765187Y-218930663D01*
X36765186Y-218930666D01*
X36710001Y-219097203D01*
X36710001Y-219097204D01*
X36710000Y-219097204D01*
X36699500Y-219199983D01*
X27500500Y-219199983D01*
X27500500Y-215897682D01*
X36700000Y-215897682D01*
X36700000Y-216102317D01*
X36732009Y-216304417D01*
X36795244Y-216499031D01*
X36888141Y-216681350D01*
X36888147Y-216681359D01*
X36920523Y-216725921D01*
X36920524Y-216725922D01*
X37600000Y-216046446D01*
X37600000Y-216052661D01*
X37627259Y-216154394D01*
X37679920Y-216245606D01*
X37754394Y-216320080D01*
X37845606Y-216372741D01*
X37947339Y-216400000D01*
X37953553Y-216400000D01*
X37274076Y-217079474D01*
X37318650Y-217111859D01*
X37500968Y-217204755D01*
X37695582Y-217267990D01*
X37897683Y-217300000D01*
X38102317Y-217300000D01*
X38304417Y-217267990D01*
X38499031Y-217204755D01*
X38681349Y-217111859D01*
X38725921Y-217079474D01*
X38046447Y-216400000D01*
X38052661Y-216400000D01*
X38154394Y-216372741D01*
X38245606Y-216320080D01*
X38320080Y-216245606D01*
X38372741Y-216154394D01*
X38400000Y-216052661D01*
X38400000Y-216046447D01*
X39079474Y-216725921D01*
X39111859Y-216681349D01*
X39204755Y-216499031D01*
X39267990Y-216304417D01*
X39300000Y-216102317D01*
X39300000Y-215897682D01*
X39267990Y-215695582D01*
X39204755Y-215500968D01*
X39111859Y-215318650D01*
X39079474Y-215274077D01*
X39079474Y-215274076D01*
X38400000Y-215953551D01*
X38400000Y-215947339D01*
X38372741Y-215845606D01*
X38320080Y-215754394D01*
X38245606Y-215679920D01*
X38154394Y-215627259D01*
X38052661Y-215600000D01*
X38046446Y-215600000D01*
X38725922Y-214920524D01*
X38725921Y-214920523D01*
X38681359Y-214888147D01*
X38681350Y-214888141D01*
X38499031Y-214795244D01*
X38304417Y-214732009D01*
X38102317Y-214700000D01*
X37897683Y-214700000D01*
X37695582Y-214732009D01*
X37500968Y-214795244D01*
X37318644Y-214888143D01*
X37274077Y-214920523D01*
X37274077Y-214920524D01*
X37953554Y-215600000D01*
X37947339Y-215600000D01*
X37845606Y-215627259D01*
X37754394Y-215679920D01*
X37679920Y-215754394D01*
X37627259Y-215845606D01*
X37600000Y-215947339D01*
X37600000Y-215953553D01*
X36920524Y-215274077D01*
X36920523Y-215274077D01*
X36888143Y-215318644D01*
X36795244Y-215500968D01*
X36732009Y-215695582D01*
X36700000Y-215897682D01*
X27500500Y-215897682D01*
X27500500Y-203202634D01*
X36699500Y-203202634D01*
X36699500Y-204402652D01*
X36699501Y-204402669D01*
X36710000Y-204505447D01*
X36710001Y-204505450D01*
X36765185Y-204671982D01*
X36765186Y-204671985D01*
X36857288Y-204821307D01*
X36981344Y-204945363D01*
X37130666Y-205037465D01*
X37297203Y-205092650D01*
X37399991Y-205103151D01*
X38600008Y-205103150D01*
X38702797Y-205092650D01*
X38869334Y-205037465D01*
X39018656Y-204945363D01*
X39142712Y-204821307D01*
X39234814Y-204671985D01*
X39289999Y-204505448D01*
X39300500Y-204402660D01*
X39300499Y-203202643D01*
X39289999Y-203099854D01*
X39234814Y-202933317D01*
X39142712Y-202783995D01*
X39018656Y-202659939D01*
X38869334Y-202567837D01*
X38702797Y-202512652D01*
X38702795Y-202512651D01*
X38600010Y-202502151D01*
X37399998Y-202502151D01*
X37399981Y-202502152D01*
X37297203Y-202512651D01*
X37297200Y-202512652D01*
X37130668Y-202567836D01*
X37130663Y-202567838D01*
X36981342Y-202659940D01*
X36857289Y-202783993D01*
X36765187Y-202933314D01*
X36765186Y-202933317D01*
X36710001Y-203099854D01*
X36710001Y-203099855D01*
X36710000Y-203099855D01*
X36699500Y-203202634D01*
X27500500Y-203202634D01*
X27500500Y-199900333D01*
X36700000Y-199900333D01*
X36700000Y-200104968D01*
X36732009Y-200307068D01*
X36795244Y-200501682D01*
X36888141Y-200684001D01*
X36888147Y-200684010D01*
X36920523Y-200728572D01*
X36920524Y-200728573D01*
X37600000Y-200049097D01*
X37600000Y-200055312D01*
X37627259Y-200157045D01*
X37679920Y-200248257D01*
X37754394Y-200322731D01*
X37845606Y-200375392D01*
X37947339Y-200402651D01*
X37953553Y-200402651D01*
X37274076Y-201082125D01*
X37318650Y-201114510D01*
X37500968Y-201207406D01*
X37695582Y-201270641D01*
X37897683Y-201302651D01*
X38102317Y-201302651D01*
X38304417Y-201270641D01*
X38499031Y-201207406D01*
X38681349Y-201114510D01*
X38725921Y-201082125D01*
X38046447Y-200402651D01*
X38052661Y-200402651D01*
X38154394Y-200375392D01*
X38245606Y-200322731D01*
X38320080Y-200248257D01*
X38372741Y-200157045D01*
X38400000Y-200055312D01*
X38400000Y-200049098D01*
X39079474Y-200728572D01*
X39111859Y-200684000D01*
X39204755Y-200501682D01*
X39267990Y-200307068D01*
X39300000Y-200104968D01*
X39300000Y-199900333D01*
X39267990Y-199698233D01*
X39204755Y-199503619D01*
X39111859Y-199321301D01*
X39079474Y-199276728D01*
X39079474Y-199276727D01*
X38400000Y-199956202D01*
X38400000Y-199949990D01*
X38372741Y-199848257D01*
X38320080Y-199757045D01*
X38245606Y-199682571D01*
X38154394Y-199629910D01*
X38052661Y-199602651D01*
X38046446Y-199602651D01*
X38725922Y-198923175D01*
X38725921Y-198923174D01*
X38681359Y-198890798D01*
X38681350Y-198890792D01*
X38499031Y-198797895D01*
X38304417Y-198734660D01*
X38102317Y-198702651D01*
X37897683Y-198702651D01*
X37695582Y-198734660D01*
X37500968Y-198797895D01*
X37318644Y-198890794D01*
X37274077Y-198923174D01*
X37274077Y-198923175D01*
X37953554Y-199602651D01*
X37947339Y-199602651D01*
X37845606Y-199629910D01*
X37754394Y-199682571D01*
X37679920Y-199757045D01*
X37627259Y-199848257D01*
X37600000Y-199949990D01*
X37600000Y-199956204D01*
X36920524Y-199276728D01*
X36920523Y-199276728D01*
X36888143Y-199321295D01*
X36795244Y-199503619D01*
X36732009Y-199698233D01*
X36700000Y-199900333D01*
X27500500Y-199900333D01*
X27500500Y-189202634D01*
X36699500Y-189202634D01*
X36699500Y-190402652D01*
X36699501Y-190402669D01*
X36710000Y-190505447D01*
X36710001Y-190505450D01*
X36765185Y-190671982D01*
X36765186Y-190671985D01*
X36857288Y-190821307D01*
X36981344Y-190945363D01*
X37130666Y-191037465D01*
X37297203Y-191092650D01*
X37399991Y-191103151D01*
X38600008Y-191103150D01*
X38702797Y-191092650D01*
X38869334Y-191037465D01*
X39018656Y-190945363D01*
X39142712Y-190821307D01*
X39234814Y-190671985D01*
X39289999Y-190505448D01*
X39300500Y-190402660D01*
X39300499Y-189202643D01*
X39289999Y-189099854D01*
X39234814Y-188933317D01*
X39142712Y-188783995D01*
X39018656Y-188659939D01*
X38869334Y-188567837D01*
X38702797Y-188512652D01*
X38702795Y-188512651D01*
X38600010Y-188502151D01*
X37399998Y-188502151D01*
X37399981Y-188502152D01*
X37297203Y-188512651D01*
X37297200Y-188512652D01*
X37130668Y-188567836D01*
X37130663Y-188567838D01*
X36981342Y-188659940D01*
X36857289Y-188783993D01*
X36765187Y-188933314D01*
X36765186Y-188933317D01*
X36710001Y-189099854D01*
X36710001Y-189099855D01*
X36710000Y-189099855D01*
X36699500Y-189202634D01*
X27500500Y-189202634D01*
X27500500Y-185900333D01*
X36700000Y-185900333D01*
X36700000Y-186104968D01*
X36732009Y-186307068D01*
X36795244Y-186501682D01*
X36888141Y-186684001D01*
X36888147Y-186684010D01*
X36920523Y-186728572D01*
X36920524Y-186728573D01*
X37600000Y-186049097D01*
X37600000Y-186055312D01*
X37627259Y-186157045D01*
X37679920Y-186248257D01*
X37754394Y-186322731D01*
X37845606Y-186375392D01*
X37947339Y-186402651D01*
X37953553Y-186402651D01*
X37274076Y-187082125D01*
X37318650Y-187114510D01*
X37500968Y-187207406D01*
X37695582Y-187270641D01*
X37897683Y-187302651D01*
X38102317Y-187302651D01*
X38304417Y-187270641D01*
X38499031Y-187207406D01*
X38681349Y-187114510D01*
X38725921Y-187082125D01*
X38046447Y-186402651D01*
X38052661Y-186402651D01*
X38154394Y-186375392D01*
X38245606Y-186322731D01*
X38320080Y-186248257D01*
X38372741Y-186157045D01*
X38400000Y-186055312D01*
X38400000Y-186049098D01*
X39079474Y-186728572D01*
X39111859Y-186684000D01*
X39204755Y-186501682D01*
X39267990Y-186307068D01*
X39300000Y-186104968D01*
X39300000Y-185900333D01*
X39267990Y-185698233D01*
X39204755Y-185503619D01*
X39111859Y-185321301D01*
X39079474Y-185276728D01*
X39079474Y-185276727D01*
X38400000Y-185956202D01*
X38400000Y-185949990D01*
X38372741Y-185848257D01*
X38320080Y-185757045D01*
X38245606Y-185682571D01*
X38154394Y-185629910D01*
X38052661Y-185602651D01*
X38046446Y-185602651D01*
X38725922Y-184923175D01*
X38725921Y-184923174D01*
X38681359Y-184890798D01*
X38681350Y-184890792D01*
X38499031Y-184797895D01*
X38304417Y-184734660D01*
X38102317Y-184702651D01*
X37897683Y-184702651D01*
X37695582Y-184734660D01*
X37500968Y-184797895D01*
X37318644Y-184890794D01*
X37274077Y-184923174D01*
X37274077Y-184923175D01*
X37953554Y-185602651D01*
X37947339Y-185602651D01*
X37845606Y-185629910D01*
X37754394Y-185682571D01*
X37679920Y-185757045D01*
X37627259Y-185848257D01*
X37600000Y-185949990D01*
X37600000Y-185956204D01*
X36920524Y-185276728D01*
X36920523Y-185276728D01*
X36888143Y-185321295D01*
X36795244Y-185503619D01*
X36732009Y-185698233D01*
X36700000Y-185900333D01*
X27500500Y-185900333D01*
X27500500Y-177702634D01*
X36699500Y-177702634D01*
X36699500Y-178902652D01*
X36699501Y-178902669D01*
X36710000Y-179005447D01*
X36710001Y-179005450D01*
X36765185Y-179171982D01*
X36765186Y-179171985D01*
X36857288Y-179321307D01*
X36981344Y-179445363D01*
X37130666Y-179537465D01*
X37297203Y-179592650D01*
X37399991Y-179603151D01*
X38600008Y-179603150D01*
X38702797Y-179592650D01*
X38869334Y-179537465D01*
X39018656Y-179445363D01*
X39142712Y-179321307D01*
X39234814Y-179171985D01*
X39289999Y-179005448D01*
X39300500Y-178902660D01*
X39300499Y-177702643D01*
X39289999Y-177599854D01*
X39234814Y-177433317D01*
X39142712Y-177283995D01*
X39018656Y-177159939D01*
X38869334Y-177067837D01*
X38702797Y-177012652D01*
X38702795Y-177012651D01*
X38600010Y-177002151D01*
X37399998Y-177002151D01*
X37399981Y-177002152D01*
X37297203Y-177012651D01*
X37297200Y-177012652D01*
X37130668Y-177067836D01*
X37130663Y-177067838D01*
X36981342Y-177159940D01*
X36857289Y-177283993D01*
X36765187Y-177433314D01*
X36765186Y-177433317D01*
X36710001Y-177599854D01*
X36710001Y-177599855D01*
X36710000Y-177599855D01*
X36699500Y-177702634D01*
X27500500Y-177702634D01*
X27500500Y-174400333D01*
X36700000Y-174400333D01*
X36700000Y-174604968D01*
X36732009Y-174807068D01*
X36795244Y-175001682D01*
X36888141Y-175184001D01*
X36888147Y-175184010D01*
X36920523Y-175228572D01*
X36920524Y-175228573D01*
X37600000Y-174549097D01*
X37600000Y-174555312D01*
X37627259Y-174657045D01*
X37679920Y-174748257D01*
X37754394Y-174822731D01*
X37845606Y-174875392D01*
X37947339Y-174902651D01*
X37953553Y-174902651D01*
X37274076Y-175582125D01*
X37318650Y-175614510D01*
X37500968Y-175707406D01*
X37695582Y-175770641D01*
X37897683Y-175802651D01*
X38102317Y-175802651D01*
X38304417Y-175770641D01*
X38499031Y-175707406D01*
X38681349Y-175614510D01*
X38725921Y-175582125D01*
X38046447Y-174902651D01*
X38052661Y-174902651D01*
X38154394Y-174875392D01*
X38245606Y-174822731D01*
X38320080Y-174748257D01*
X38372741Y-174657045D01*
X38400000Y-174555312D01*
X38400000Y-174549098D01*
X39079474Y-175228572D01*
X39111859Y-175184000D01*
X39204755Y-175001682D01*
X39267990Y-174807068D01*
X39300000Y-174604968D01*
X39300000Y-174400333D01*
X39267990Y-174198233D01*
X39204755Y-174003619D01*
X39111859Y-173821301D01*
X39079474Y-173776728D01*
X39079474Y-173776727D01*
X38400000Y-174456202D01*
X38400000Y-174449990D01*
X38372741Y-174348257D01*
X38320080Y-174257045D01*
X38245606Y-174182571D01*
X38154394Y-174129910D01*
X38052661Y-174102651D01*
X38046446Y-174102651D01*
X38725922Y-173423175D01*
X38725921Y-173423174D01*
X38681359Y-173390798D01*
X38681350Y-173390792D01*
X38499031Y-173297895D01*
X38304417Y-173234660D01*
X38102317Y-173202651D01*
X37897683Y-173202651D01*
X37695582Y-173234660D01*
X37500968Y-173297895D01*
X37318644Y-173390794D01*
X37274077Y-173423174D01*
X37274077Y-173423175D01*
X37953554Y-174102651D01*
X37947339Y-174102651D01*
X37845606Y-174129910D01*
X37754394Y-174182571D01*
X37679920Y-174257045D01*
X37627259Y-174348257D01*
X37600000Y-174449990D01*
X37600000Y-174456204D01*
X36920524Y-173776728D01*
X36920523Y-173776728D01*
X36888143Y-173821295D01*
X36795244Y-174003619D01*
X36732009Y-174198233D01*
X36700000Y-174400333D01*
X27500500Y-174400333D01*
X27500500Y-158702634D01*
X36699500Y-158702634D01*
X36699500Y-159902652D01*
X36699501Y-159902669D01*
X36710000Y-160005447D01*
X36710001Y-160005450D01*
X36765185Y-160171982D01*
X36765186Y-160171985D01*
X36857288Y-160321307D01*
X36981344Y-160445363D01*
X37130666Y-160537465D01*
X37297203Y-160592650D01*
X37399991Y-160603151D01*
X38600008Y-160603150D01*
X38702797Y-160592650D01*
X38869334Y-160537465D01*
X39018656Y-160445363D01*
X39142712Y-160321307D01*
X39234814Y-160171985D01*
X39289999Y-160005448D01*
X39300500Y-159902660D01*
X39300499Y-158702643D01*
X39289999Y-158599854D01*
X39234814Y-158433317D01*
X39142712Y-158283995D01*
X39018656Y-158159939D01*
X38869334Y-158067837D01*
X38702797Y-158012652D01*
X38702795Y-158012651D01*
X38600010Y-158002151D01*
X37399998Y-158002151D01*
X37399981Y-158002152D01*
X37297203Y-158012651D01*
X37297200Y-158012652D01*
X37130668Y-158067836D01*
X37130663Y-158067838D01*
X36981342Y-158159940D01*
X36857289Y-158283993D01*
X36765187Y-158433314D01*
X36765186Y-158433317D01*
X36710001Y-158599854D01*
X36710001Y-158599855D01*
X36710000Y-158599855D01*
X36699500Y-158702634D01*
X27500500Y-158702634D01*
X27500500Y-155400333D01*
X36700000Y-155400333D01*
X36700000Y-155604968D01*
X36732009Y-155807068D01*
X36795244Y-156001682D01*
X36888141Y-156184001D01*
X36888147Y-156184010D01*
X36920523Y-156228572D01*
X36920524Y-156228573D01*
X37600000Y-155549097D01*
X37600000Y-155555312D01*
X37627259Y-155657045D01*
X37679920Y-155748257D01*
X37754394Y-155822731D01*
X37845606Y-155875392D01*
X37947339Y-155902651D01*
X37953553Y-155902651D01*
X37274076Y-156582125D01*
X37318650Y-156614510D01*
X37500968Y-156707406D01*
X37695582Y-156770641D01*
X37897683Y-156802651D01*
X38102317Y-156802651D01*
X38304417Y-156770641D01*
X38499031Y-156707406D01*
X38681349Y-156614510D01*
X38725921Y-156582125D01*
X38046447Y-155902651D01*
X38052661Y-155902651D01*
X38154394Y-155875392D01*
X38245606Y-155822731D01*
X38320080Y-155748257D01*
X38372741Y-155657045D01*
X38400000Y-155555312D01*
X38400000Y-155549098D01*
X39079474Y-156228572D01*
X39111859Y-156184000D01*
X39204755Y-156001682D01*
X39267990Y-155807068D01*
X39300000Y-155604968D01*
X39300000Y-155400333D01*
X39267990Y-155198233D01*
X39204755Y-155003619D01*
X39111859Y-154821301D01*
X39079474Y-154776728D01*
X39079474Y-154776727D01*
X38400000Y-155456202D01*
X38400000Y-155449990D01*
X38372741Y-155348257D01*
X38320080Y-155257045D01*
X38245606Y-155182571D01*
X38154394Y-155129910D01*
X38052661Y-155102651D01*
X38046446Y-155102651D01*
X38725922Y-154423175D01*
X38725921Y-154423174D01*
X38681359Y-154390798D01*
X38681350Y-154390792D01*
X38499031Y-154297895D01*
X38304417Y-154234660D01*
X38102317Y-154202651D01*
X37897683Y-154202651D01*
X37695582Y-154234660D01*
X37500968Y-154297895D01*
X37318644Y-154390794D01*
X37274077Y-154423174D01*
X37274077Y-154423175D01*
X37953554Y-155102651D01*
X37947339Y-155102651D01*
X37845606Y-155129910D01*
X37754394Y-155182571D01*
X37679920Y-155257045D01*
X37627259Y-155348257D01*
X37600000Y-155449990D01*
X37600000Y-155456204D01*
X36920524Y-154776728D01*
X36920523Y-154776728D01*
X36888143Y-154821295D01*
X36795244Y-155003619D01*
X36732009Y-155198233D01*
X36700000Y-155400333D01*
X27500500Y-155400333D01*
X27500500Y-147202634D01*
X36699500Y-147202634D01*
X36699500Y-148402652D01*
X36699501Y-148402669D01*
X36710000Y-148505447D01*
X36710001Y-148505450D01*
X36765185Y-148671982D01*
X36765186Y-148671985D01*
X36857288Y-148821307D01*
X36981344Y-148945363D01*
X37130666Y-149037465D01*
X37297203Y-149092650D01*
X37399991Y-149103151D01*
X38600008Y-149103150D01*
X38702797Y-149092650D01*
X38869334Y-149037465D01*
X39018656Y-148945363D01*
X39142712Y-148821307D01*
X39234814Y-148671985D01*
X39289999Y-148505448D01*
X39300500Y-148402660D01*
X39300499Y-147202643D01*
X39289999Y-147099854D01*
X39234814Y-146933317D01*
X39142712Y-146783995D01*
X39018656Y-146659939D01*
X38869334Y-146567837D01*
X38702797Y-146512652D01*
X38702795Y-146512651D01*
X38600010Y-146502151D01*
X37399998Y-146502151D01*
X37399981Y-146502152D01*
X37297203Y-146512651D01*
X37297200Y-146512652D01*
X37130668Y-146567836D01*
X37130663Y-146567838D01*
X36981342Y-146659940D01*
X36857289Y-146783993D01*
X36765187Y-146933314D01*
X36765186Y-146933317D01*
X36710001Y-147099854D01*
X36710001Y-147099855D01*
X36710000Y-147099855D01*
X36699500Y-147202634D01*
X27500500Y-147202634D01*
X27500500Y-143900333D01*
X36700000Y-143900333D01*
X36700000Y-144104968D01*
X36732009Y-144307068D01*
X36795244Y-144501682D01*
X36888141Y-144684001D01*
X36888147Y-144684010D01*
X36920523Y-144728572D01*
X36920524Y-144728573D01*
X37600000Y-144049097D01*
X37600000Y-144055312D01*
X37627259Y-144157045D01*
X37679920Y-144248257D01*
X37754394Y-144322731D01*
X37845606Y-144375392D01*
X37947339Y-144402651D01*
X37953553Y-144402651D01*
X37274076Y-145082125D01*
X37318650Y-145114510D01*
X37500968Y-145207406D01*
X37695582Y-145270641D01*
X37897683Y-145302651D01*
X38102317Y-145302651D01*
X38304417Y-145270641D01*
X38499031Y-145207406D01*
X38681349Y-145114510D01*
X38725921Y-145082125D01*
X38046447Y-144402651D01*
X38052661Y-144402651D01*
X38154394Y-144375392D01*
X38245606Y-144322731D01*
X38320080Y-144248257D01*
X38372741Y-144157045D01*
X38400000Y-144055312D01*
X38400000Y-144049098D01*
X39079474Y-144728572D01*
X39111859Y-144684000D01*
X39204755Y-144501682D01*
X39267990Y-144307068D01*
X39300000Y-144104968D01*
X39300000Y-143900333D01*
X39267990Y-143698233D01*
X39204755Y-143503619D01*
X39111859Y-143321301D01*
X39079474Y-143276728D01*
X39079474Y-143276727D01*
X38400000Y-143956202D01*
X38400000Y-143949990D01*
X38372741Y-143848257D01*
X38320080Y-143757045D01*
X38245606Y-143682571D01*
X38154394Y-143629910D01*
X38052661Y-143602651D01*
X38046446Y-143602651D01*
X38725922Y-142923175D01*
X38725921Y-142923174D01*
X38681359Y-142890798D01*
X38681350Y-142890792D01*
X38499031Y-142797895D01*
X38304417Y-142734660D01*
X38102317Y-142702651D01*
X37897683Y-142702651D01*
X37695582Y-142734660D01*
X37500968Y-142797895D01*
X37318644Y-142890794D01*
X37274077Y-142923174D01*
X37274077Y-142923175D01*
X37953554Y-143602651D01*
X37947339Y-143602651D01*
X37845606Y-143629910D01*
X37754394Y-143682571D01*
X37679920Y-143757045D01*
X37627259Y-143848257D01*
X37600000Y-143949990D01*
X37600000Y-143956204D01*
X36920524Y-143276728D01*
X36920523Y-143276728D01*
X36888143Y-143321295D01*
X36795244Y-143503619D01*
X36732009Y-143698233D01*
X36700000Y-143900333D01*
X27500500Y-143900333D01*
X27500500Y-133202634D01*
X36699500Y-133202634D01*
X36699500Y-134402652D01*
X36699501Y-134402669D01*
X36710000Y-134505447D01*
X36710001Y-134505450D01*
X36765185Y-134671982D01*
X36765186Y-134671985D01*
X36857288Y-134821307D01*
X36981344Y-134945363D01*
X37130666Y-135037465D01*
X37297203Y-135092650D01*
X37399991Y-135103151D01*
X38600008Y-135103150D01*
X38702797Y-135092650D01*
X38869334Y-135037465D01*
X39018656Y-134945363D01*
X39142712Y-134821307D01*
X39234814Y-134671985D01*
X39289999Y-134505448D01*
X39300500Y-134402660D01*
X39300499Y-133202643D01*
X39289999Y-133099854D01*
X39234814Y-132933317D01*
X39142712Y-132783995D01*
X39018656Y-132659939D01*
X38869334Y-132567837D01*
X38702797Y-132512652D01*
X38702795Y-132512651D01*
X38600010Y-132502151D01*
X37399998Y-132502151D01*
X37399981Y-132502152D01*
X37297203Y-132512651D01*
X37297200Y-132512652D01*
X37130668Y-132567836D01*
X37130663Y-132567838D01*
X36981342Y-132659940D01*
X36857289Y-132783993D01*
X36765187Y-132933314D01*
X36765186Y-132933317D01*
X36710001Y-133099854D01*
X36710001Y-133099855D01*
X36710000Y-133099855D01*
X36699500Y-133202634D01*
X27500500Y-133202634D01*
X27500500Y-129900333D01*
X36700000Y-129900333D01*
X36700000Y-130104968D01*
X36732009Y-130307068D01*
X36795244Y-130501682D01*
X36888141Y-130684001D01*
X36888147Y-130684010D01*
X36920523Y-130728572D01*
X36920524Y-130728573D01*
X37600000Y-130049097D01*
X37600000Y-130055312D01*
X37627259Y-130157045D01*
X37679920Y-130248257D01*
X37754394Y-130322731D01*
X37845606Y-130375392D01*
X37947339Y-130402651D01*
X37953553Y-130402651D01*
X37274076Y-131082125D01*
X37318650Y-131114510D01*
X37500968Y-131207406D01*
X37695582Y-131270641D01*
X37897683Y-131302651D01*
X38102317Y-131302651D01*
X38304417Y-131270641D01*
X38499031Y-131207406D01*
X38681349Y-131114510D01*
X38725921Y-131082125D01*
X38046447Y-130402651D01*
X38052661Y-130402651D01*
X38154394Y-130375392D01*
X38245606Y-130322731D01*
X38320080Y-130248257D01*
X38372741Y-130157045D01*
X38400000Y-130055312D01*
X38400000Y-130049098D01*
X39079474Y-130728572D01*
X39111859Y-130684000D01*
X39204755Y-130501682D01*
X39267990Y-130307068D01*
X39300000Y-130104968D01*
X39300000Y-129900333D01*
X39267990Y-129698233D01*
X39204755Y-129503619D01*
X39111859Y-129321301D01*
X39079474Y-129276728D01*
X39079474Y-129276727D01*
X38400000Y-129956202D01*
X38400000Y-129949990D01*
X38372741Y-129848257D01*
X38320080Y-129757045D01*
X38245606Y-129682571D01*
X38154394Y-129629910D01*
X38052661Y-129602651D01*
X38046446Y-129602651D01*
X38725922Y-128923175D01*
X38725921Y-128923174D01*
X38681359Y-128890798D01*
X38681350Y-128890792D01*
X38499031Y-128797895D01*
X38304417Y-128734660D01*
X38102317Y-128702651D01*
X37897683Y-128702651D01*
X37695582Y-128734660D01*
X37500968Y-128797895D01*
X37318644Y-128890794D01*
X37274077Y-128923174D01*
X37274077Y-128923175D01*
X37953554Y-129602651D01*
X37947339Y-129602651D01*
X37845606Y-129629910D01*
X37754394Y-129682571D01*
X37679920Y-129757045D01*
X37627259Y-129848257D01*
X37600000Y-129949990D01*
X37600000Y-129956204D01*
X36920524Y-129276728D01*
X36920523Y-129276728D01*
X36888143Y-129321295D01*
X36795244Y-129503619D01*
X36732009Y-129698233D01*
X36700000Y-129900333D01*
X27500500Y-129900333D01*
X27500500Y-119202634D01*
X36699500Y-119202634D01*
X36699500Y-120402652D01*
X36699501Y-120402669D01*
X36710000Y-120505447D01*
X36710001Y-120505450D01*
X36765185Y-120671982D01*
X36765186Y-120671985D01*
X36857288Y-120821307D01*
X36981344Y-120945363D01*
X37130666Y-121037465D01*
X37297203Y-121092650D01*
X37399991Y-121103151D01*
X38600008Y-121103150D01*
X38702797Y-121092650D01*
X38869334Y-121037465D01*
X39018656Y-120945363D01*
X39142712Y-120821307D01*
X39234814Y-120671985D01*
X39289999Y-120505448D01*
X39300500Y-120402660D01*
X39300499Y-119202643D01*
X39289999Y-119099854D01*
X39234814Y-118933317D01*
X39142712Y-118783995D01*
X39018656Y-118659939D01*
X38869334Y-118567837D01*
X38702797Y-118512652D01*
X38702795Y-118512651D01*
X38600010Y-118502151D01*
X37399998Y-118502151D01*
X37399981Y-118502152D01*
X37297203Y-118512651D01*
X37297200Y-118512652D01*
X37130668Y-118567836D01*
X37130663Y-118567838D01*
X36981342Y-118659940D01*
X36857289Y-118783993D01*
X36765187Y-118933314D01*
X36765186Y-118933317D01*
X36710001Y-119099854D01*
X36710001Y-119099855D01*
X36710000Y-119099855D01*
X36699500Y-119202634D01*
X27500500Y-119202634D01*
X27500500Y-115900333D01*
X36700000Y-115900333D01*
X36700000Y-116104968D01*
X36732009Y-116307068D01*
X36795244Y-116501682D01*
X36888141Y-116684001D01*
X36888147Y-116684010D01*
X36920523Y-116728572D01*
X36920524Y-116728573D01*
X37600000Y-116049097D01*
X37600000Y-116055312D01*
X37627259Y-116157045D01*
X37679920Y-116248257D01*
X37754394Y-116322731D01*
X37845606Y-116375392D01*
X37947339Y-116402651D01*
X37953553Y-116402651D01*
X37274076Y-117082125D01*
X37318650Y-117114510D01*
X37500968Y-117207406D01*
X37695582Y-117270641D01*
X37897683Y-117302651D01*
X38102317Y-117302651D01*
X38304417Y-117270641D01*
X38499031Y-117207406D01*
X38681349Y-117114510D01*
X38725921Y-117082125D01*
X38046447Y-116402651D01*
X38052661Y-116402651D01*
X38154394Y-116375392D01*
X38245606Y-116322731D01*
X38320080Y-116248257D01*
X38372741Y-116157045D01*
X38400000Y-116055312D01*
X38400000Y-116049098D01*
X39079474Y-116728572D01*
X39111859Y-116684000D01*
X39204755Y-116501682D01*
X39267990Y-116307068D01*
X39300000Y-116104968D01*
X39300000Y-115900333D01*
X39267990Y-115698233D01*
X39204755Y-115503619D01*
X39111859Y-115321301D01*
X39079474Y-115276728D01*
X39079474Y-115276727D01*
X38400000Y-115956202D01*
X38400000Y-115949990D01*
X38372741Y-115848257D01*
X38320080Y-115757045D01*
X38245606Y-115682571D01*
X38154394Y-115629910D01*
X38052661Y-115602651D01*
X38046446Y-115602651D01*
X38725922Y-114923175D01*
X38725921Y-114923174D01*
X38681359Y-114890798D01*
X38681350Y-114890792D01*
X38499031Y-114797895D01*
X38304417Y-114734660D01*
X38102317Y-114702651D01*
X37897683Y-114702651D01*
X37695582Y-114734660D01*
X37500968Y-114797895D01*
X37318644Y-114890794D01*
X37274077Y-114923174D01*
X37274077Y-114923175D01*
X37953554Y-115602651D01*
X37947339Y-115602651D01*
X37845606Y-115629910D01*
X37754394Y-115682571D01*
X37679920Y-115757045D01*
X37627259Y-115848257D01*
X37600000Y-115949990D01*
X37600000Y-115956204D01*
X36920524Y-115276728D01*
X36920523Y-115276728D01*
X36888143Y-115321295D01*
X36795244Y-115503619D01*
X36732009Y-115698233D01*
X36700000Y-115900333D01*
X27500500Y-115900333D01*
X27500500Y-105202634D01*
X36699500Y-105202634D01*
X36699500Y-106402652D01*
X36699501Y-106402669D01*
X36710000Y-106505447D01*
X36710001Y-106505450D01*
X36765185Y-106671982D01*
X36765186Y-106671985D01*
X36857288Y-106821307D01*
X36981344Y-106945363D01*
X37130666Y-107037465D01*
X37297203Y-107092650D01*
X37399991Y-107103151D01*
X38600008Y-107103150D01*
X38702797Y-107092650D01*
X38869334Y-107037465D01*
X39018656Y-106945363D01*
X39142712Y-106821307D01*
X39234814Y-106671985D01*
X39289999Y-106505448D01*
X39300500Y-106402660D01*
X39300499Y-105202643D01*
X39289999Y-105099854D01*
X39234814Y-104933317D01*
X39142712Y-104783995D01*
X39018656Y-104659939D01*
X38869334Y-104567837D01*
X38702797Y-104512652D01*
X38702795Y-104512651D01*
X38600010Y-104502151D01*
X37399998Y-104502151D01*
X37399981Y-104502152D01*
X37297203Y-104512651D01*
X37297200Y-104512652D01*
X37130668Y-104567836D01*
X37130663Y-104567838D01*
X36981342Y-104659940D01*
X36857289Y-104783993D01*
X36765187Y-104933314D01*
X36765186Y-104933317D01*
X36710001Y-105099854D01*
X36710001Y-105099855D01*
X36710000Y-105099855D01*
X36699500Y-105202634D01*
X27500500Y-105202634D01*
X27500500Y-101900333D01*
X36700000Y-101900333D01*
X36700000Y-102104968D01*
X36732009Y-102307068D01*
X36795244Y-102501682D01*
X36888141Y-102684001D01*
X36888147Y-102684010D01*
X36920523Y-102728572D01*
X36920524Y-102728573D01*
X37600000Y-102049097D01*
X37600000Y-102055312D01*
X37627259Y-102157045D01*
X37679920Y-102248257D01*
X37754394Y-102322731D01*
X37845606Y-102375392D01*
X37947339Y-102402651D01*
X37953553Y-102402651D01*
X37274076Y-103082125D01*
X37318650Y-103114510D01*
X37500968Y-103207406D01*
X37695582Y-103270641D01*
X37897683Y-103302651D01*
X38102317Y-103302651D01*
X38304417Y-103270641D01*
X38499031Y-103207406D01*
X38681349Y-103114510D01*
X38725921Y-103082125D01*
X38046447Y-102402651D01*
X38052661Y-102402651D01*
X38154394Y-102375392D01*
X38245606Y-102322731D01*
X38320080Y-102248257D01*
X38372741Y-102157045D01*
X38400000Y-102055312D01*
X38400000Y-102049098D01*
X39079474Y-102728572D01*
X39111859Y-102684000D01*
X39204755Y-102501682D01*
X39267990Y-102307068D01*
X39300000Y-102104968D01*
X39300000Y-101900333D01*
X39267990Y-101698233D01*
X39204755Y-101503619D01*
X39111859Y-101321301D01*
X39079474Y-101276728D01*
X39079474Y-101276727D01*
X38400000Y-101956202D01*
X38400000Y-101949990D01*
X38372741Y-101848257D01*
X38320080Y-101757045D01*
X38245606Y-101682571D01*
X38154394Y-101629910D01*
X38052661Y-101602651D01*
X38046446Y-101602651D01*
X38725922Y-100923175D01*
X38725921Y-100923174D01*
X38681359Y-100890798D01*
X38681350Y-100890792D01*
X38499031Y-100797895D01*
X38304417Y-100734660D01*
X38102317Y-100702651D01*
X37897683Y-100702651D01*
X37695582Y-100734660D01*
X37500968Y-100797895D01*
X37318644Y-100890794D01*
X37274077Y-100923174D01*
X37274077Y-100923175D01*
X37953554Y-101602651D01*
X37947339Y-101602651D01*
X37845606Y-101629910D01*
X37754394Y-101682571D01*
X37679920Y-101757045D01*
X37627259Y-101848257D01*
X37600000Y-101949990D01*
X37600000Y-101956204D01*
X36920524Y-101276728D01*
X36920523Y-101276728D01*
X36888143Y-101321295D01*
X36795244Y-101503619D01*
X36732009Y-101698233D01*
X36700000Y-101900333D01*
X27500500Y-101900333D01*
X27500500Y-91202634D01*
X36699500Y-91202634D01*
X36699500Y-92402652D01*
X36699501Y-92402669D01*
X36710000Y-92505447D01*
X36710001Y-92505450D01*
X36765185Y-92671982D01*
X36765186Y-92671985D01*
X36857288Y-92821307D01*
X36981344Y-92945363D01*
X37130666Y-93037465D01*
X37297203Y-93092650D01*
X37399991Y-93103151D01*
X38600008Y-93103150D01*
X38702797Y-93092650D01*
X38869334Y-93037465D01*
X39018656Y-92945363D01*
X39142712Y-92821307D01*
X39234814Y-92671985D01*
X39289999Y-92505448D01*
X39300500Y-92402660D01*
X39300499Y-91202643D01*
X39289999Y-91099854D01*
X39234814Y-90933317D01*
X39142712Y-90783995D01*
X39018656Y-90659939D01*
X38869334Y-90567837D01*
X38702797Y-90512652D01*
X38702795Y-90512651D01*
X38600010Y-90502151D01*
X37399998Y-90502151D01*
X37399981Y-90502152D01*
X37297203Y-90512651D01*
X37297200Y-90512652D01*
X37130668Y-90567836D01*
X37130663Y-90567838D01*
X36981342Y-90659940D01*
X36857289Y-90783993D01*
X36765187Y-90933314D01*
X36765186Y-90933317D01*
X36710001Y-91099854D01*
X36710001Y-91099855D01*
X36710000Y-91099855D01*
X36699500Y-91202634D01*
X27500500Y-91202634D01*
X27500500Y-87900333D01*
X36700000Y-87900333D01*
X36700000Y-88104968D01*
X36732009Y-88307068D01*
X36795244Y-88501682D01*
X36888141Y-88684001D01*
X36888147Y-88684010D01*
X36920523Y-88728572D01*
X36920524Y-88728573D01*
X37600000Y-88049097D01*
X37600000Y-88055312D01*
X37627259Y-88157045D01*
X37679920Y-88248257D01*
X37754394Y-88322731D01*
X37845606Y-88375392D01*
X37947339Y-88402651D01*
X37953553Y-88402651D01*
X37274076Y-89082125D01*
X37318650Y-89114510D01*
X37500968Y-89207406D01*
X37695582Y-89270641D01*
X37897683Y-89302651D01*
X38102317Y-89302651D01*
X38304417Y-89270641D01*
X38499031Y-89207406D01*
X38681349Y-89114510D01*
X38725921Y-89082125D01*
X38046447Y-88402651D01*
X38052661Y-88402651D01*
X38154394Y-88375392D01*
X38245606Y-88322731D01*
X38320080Y-88248257D01*
X38372741Y-88157045D01*
X38400000Y-88055312D01*
X38400000Y-88049098D01*
X39079474Y-88728572D01*
X39111859Y-88684000D01*
X39204755Y-88501682D01*
X39267990Y-88307068D01*
X39300000Y-88104968D01*
X39300000Y-87900333D01*
X39267990Y-87698233D01*
X39204755Y-87503619D01*
X39111859Y-87321301D01*
X39079474Y-87276728D01*
X39079474Y-87276727D01*
X38400000Y-87956202D01*
X38400000Y-87949990D01*
X38372741Y-87848257D01*
X38320080Y-87757045D01*
X38245606Y-87682571D01*
X38154394Y-87629910D01*
X38052661Y-87602651D01*
X38046446Y-87602651D01*
X38725922Y-86923175D01*
X38725921Y-86923174D01*
X38681359Y-86890798D01*
X38681350Y-86890792D01*
X38499031Y-86797895D01*
X38304417Y-86734660D01*
X38102317Y-86702651D01*
X37897683Y-86702651D01*
X37695582Y-86734660D01*
X37500968Y-86797895D01*
X37318644Y-86890794D01*
X37274077Y-86923174D01*
X37274077Y-86923175D01*
X37953554Y-87602651D01*
X37947339Y-87602651D01*
X37845606Y-87629910D01*
X37754394Y-87682571D01*
X37679920Y-87757045D01*
X37627259Y-87848257D01*
X37600000Y-87949990D01*
X37600000Y-87956204D01*
X36920524Y-87276728D01*
X36920523Y-87276728D01*
X36888143Y-87321295D01*
X36795244Y-87503619D01*
X36732009Y-87698233D01*
X36700000Y-87900333D01*
X27500500Y-87900333D01*
X27500500Y-77202634D01*
X36699500Y-77202634D01*
X36699500Y-78402652D01*
X36699501Y-78402669D01*
X36710000Y-78505447D01*
X36710001Y-78505450D01*
X36765185Y-78671982D01*
X36765186Y-78671985D01*
X36857288Y-78821307D01*
X36981344Y-78945363D01*
X37130666Y-79037465D01*
X37297203Y-79092650D01*
X37399991Y-79103151D01*
X38600008Y-79103150D01*
X38702797Y-79092650D01*
X38869334Y-79037465D01*
X39018656Y-78945363D01*
X39142712Y-78821307D01*
X39234814Y-78671985D01*
X39289999Y-78505448D01*
X39300500Y-78402660D01*
X39300499Y-77202643D01*
X39289999Y-77099854D01*
X39234814Y-76933317D01*
X39142712Y-76783995D01*
X39018656Y-76659939D01*
X38869334Y-76567837D01*
X38702797Y-76512652D01*
X38702795Y-76512651D01*
X38600010Y-76502151D01*
X37399998Y-76502151D01*
X37399981Y-76502152D01*
X37297203Y-76512651D01*
X37297200Y-76512652D01*
X37130668Y-76567836D01*
X37130663Y-76567838D01*
X36981342Y-76659940D01*
X36857289Y-76783993D01*
X36765187Y-76933314D01*
X36765186Y-76933317D01*
X36710001Y-77099854D01*
X36710001Y-77099855D01*
X36710000Y-77099855D01*
X36699500Y-77202634D01*
X27500500Y-77202634D01*
X27500500Y-73900333D01*
X36700000Y-73900333D01*
X36700000Y-74104968D01*
X36732009Y-74307068D01*
X36795244Y-74501682D01*
X36888141Y-74684001D01*
X36888147Y-74684010D01*
X36920523Y-74728572D01*
X36920524Y-74728573D01*
X37600000Y-74049097D01*
X37600000Y-74055312D01*
X37627259Y-74157045D01*
X37679920Y-74248257D01*
X37754394Y-74322731D01*
X37845606Y-74375392D01*
X37947339Y-74402651D01*
X37953553Y-74402651D01*
X37274076Y-75082125D01*
X37318650Y-75114510D01*
X37500968Y-75207406D01*
X37695582Y-75270641D01*
X37897683Y-75302651D01*
X38102317Y-75302651D01*
X38304417Y-75270641D01*
X38499031Y-75207406D01*
X38681349Y-75114510D01*
X38725921Y-75082125D01*
X38046447Y-74402651D01*
X38052661Y-74402651D01*
X38154394Y-74375392D01*
X38245606Y-74322731D01*
X38320080Y-74248257D01*
X38372741Y-74157045D01*
X38400000Y-74055312D01*
X38400000Y-74049098D01*
X39079474Y-74728572D01*
X39111859Y-74684000D01*
X39204755Y-74501682D01*
X39267990Y-74307068D01*
X39300000Y-74104968D01*
X39300000Y-73900333D01*
X39267990Y-73698233D01*
X39204755Y-73503619D01*
X39111859Y-73321301D01*
X39079474Y-73276728D01*
X39079474Y-73276727D01*
X38400000Y-73956202D01*
X38400000Y-73949990D01*
X38372741Y-73848257D01*
X38320080Y-73757045D01*
X38245606Y-73682571D01*
X38154394Y-73629910D01*
X38052661Y-73602651D01*
X38046446Y-73602651D01*
X38725922Y-72923175D01*
X38725921Y-72923174D01*
X38681359Y-72890798D01*
X38681350Y-72890792D01*
X38499031Y-72797895D01*
X38304417Y-72734660D01*
X38102317Y-72702651D01*
X37897683Y-72702651D01*
X37695582Y-72734660D01*
X37500968Y-72797895D01*
X37318644Y-72890794D01*
X37274077Y-72923174D01*
X37274077Y-72923175D01*
X37953554Y-73602651D01*
X37947339Y-73602651D01*
X37845606Y-73629910D01*
X37754394Y-73682571D01*
X37679920Y-73757045D01*
X37627259Y-73848257D01*
X37600000Y-73949990D01*
X37600000Y-73956204D01*
X36920524Y-73276728D01*
X36920523Y-73276728D01*
X36888143Y-73321295D01*
X36795244Y-73503619D01*
X36732009Y-73698233D01*
X36700000Y-73900333D01*
X27500500Y-73900333D01*
X27500500Y-63202634D01*
X36699500Y-63202634D01*
X36699500Y-64402652D01*
X36699501Y-64402669D01*
X36710000Y-64505447D01*
X36710001Y-64505450D01*
X36765185Y-64671982D01*
X36765186Y-64671985D01*
X36857288Y-64821307D01*
X36981344Y-64945363D01*
X37130666Y-65037465D01*
X37297203Y-65092650D01*
X37399991Y-65103151D01*
X38600008Y-65103150D01*
X38702797Y-65092650D01*
X38869334Y-65037465D01*
X39018656Y-64945363D01*
X39142712Y-64821307D01*
X39234814Y-64671985D01*
X39289999Y-64505448D01*
X39300500Y-64402660D01*
X39300499Y-63202643D01*
X39289999Y-63099854D01*
X39234814Y-62933317D01*
X39142712Y-62783995D01*
X39018656Y-62659939D01*
X38869334Y-62567837D01*
X38702797Y-62512652D01*
X38702795Y-62512651D01*
X38600010Y-62502151D01*
X37399998Y-62502151D01*
X37399981Y-62502152D01*
X37297203Y-62512651D01*
X37297200Y-62512652D01*
X37130668Y-62567836D01*
X37130663Y-62567838D01*
X36981342Y-62659940D01*
X36857289Y-62783993D01*
X36765187Y-62933314D01*
X36765186Y-62933317D01*
X36710001Y-63099854D01*
X36710001Y-63099855D01*
X36710000Y-63099855D01*
X36699500Y-63202634D01*
X27500500Y-63202634D01*
X27500500Y-59900333D01*
X36700000Y-59900333D01*
X36700000Y-60104968D01*
X36732009Y-60307068D01*
X36795244Y-60501682D01*
X36888141Y-60684001D01*
X36888147Y-60684010D01*
X36920523Y-60728572D01*
X36920524Y-60728573D01*
X37600000Y-60049097D01*
X37600000Y-60055312D01*
X37627259Y-60157045D01*
X37679920Y-60248257D01*
X37754394Y-60322731D01*
X37845606Y-60375392D01*
X37947339Y-60402651D01*
X37953553Y-60402651D01*
X37274076Y-61082125D01*
X37318650Y-61114510D01*
X37500968Y-61207406D01*
X37695582Y-61270641D01*
X37897683Y-61302651D01*
X38102317Y-61302651D01*
X38304417Y-61270641D01*
X38499031Y-61207406D01*
X38681349Y-61114510D01*
X38725921Y-61082125D01*
X38046447Y-60402651D01*
X38052661Y-60402651D01*
X38154394Y-60375392D01*
X38245606Y-60322731D01*
X38320080Y-60248257D01*
X38372741Y-60157045D01*
X38400000Y-60055312D01*
X38400000Y-60049098D01*
X39079474Y-60728572D01*
X39111859Y-60684000D01*
X39204755Y-60501682D01*
X39267990Y-60307068D01*
X39300000Y-60104968D01*
X39300000Y-59900333D01*
X39267990Y-59698233D01*
X39204755Y-59503619D01*
X39111859Y-59321301D01*
X39079474Y-59276728D01*
X39079474Y-59276727D01*
X38400000Y-59956202D01*
X38400000Y-59949990D01*
X38372741Y-59848257D01*
X38320080Y-59757045D01*
X38245606Y-59682571D01*
X38154394Y-59629910D01*
X38052661Y-59602651D01*
X38046446Y-59602651D01*
X38725922Y-58923175D01*
X38725921Y-58923174D01*
X38681359Y-58890798D01*
X38681350Y-58890792D01*
X38499031Y-58797895D01*
X38304417Y-58734660D01*
X38102317Y-58702651D01*
X37897683Y-58702651D01*
X37695582Y-58734660D01*
X37500968Y-58797895D01*
X37318644Y-58890794D01*
X37274077Y-58923174D01*
X37274077Y-58923175D01*
X37953554Y-59602651D01*
X37947339Y-59602651D01*
X37845606Y-59629910D01*
X37754394Y-59682571D01*
X37679920Y-59757045D01*
X37627259Y-59848257D01*
X37600000Y-59949990D01*
X37600000Y-59956204D01*
X36920524Y-59276728D01*
X36920523Y-59276728D01*
X36888143Y-59321295D01*
X36795244Y-59503619D01*
X36732009Y-59698233D01*
X36700000Y-59900333D01*
X27500500Y-59900333D01*
X27500500Y-42004427D01*
X27500816Y-41995581D01*
X27515130Y-41795443D01*
X27515131Y-41795442D01*
X27515130Y-41795436D01*
X27517646Y-41777938D01*
X27559356Y-41586200D01*
X27564335Y-41569242D01*
X27632911Y-41385382D01*
X27640251Y-41369310D01*
X27734294Y-41197083D01*
X27743850Y-41182214D01*
X27861443Y-41025128D01*
X27873017Y-41011771D01*
X28011771Y-40873017D01*
X28025128Y-40861443D01*
X28182214Y-40743850D01*
X28197083Y-40734294D01*
X28369310Y-40640251D01*
X28385382Y-40632911D01*
X28569242Y-40564335D01*
X28586200Y-40559356D01*
X28777938Y-40517646D01*
X28795436Y-40515130D01*
X28995582Y-40500816D01*
X29004428Y-40500500D01*
X29065892Y-40500500D01*
X247934108Y-40500500D01*
X247995572Y-40500500D01*
X248004418Y-40500816D01*
G37*
%TD.AperFunction*%
%TD*%
M02*
